<svg xmlns="http://www.w3.org/2000/svg" xmlns:xlink="http://www.w3.org/1999/xlink" viewBox="0,0,256,256" width="250px" height="250px"><g transform="translate(40.96,40.96) scale(0.68,0.68)"><g fill="#b700ff" fill-rule="nonzero" stroke="none" stroke-width="1" stroke-linecap="butt" stroke-linejoin="miter" stroke-miterlimit="10" stroke-dasharray="" stroke-dashoffset="0" font-family="none" font-weight="none" font-size="none" text-anchor="none" style="mix-blend-mode: normal"><path d="M128,316.23529c-103.95948,0 -188.23529,-84.27581 -188.23529,-188.23529v0c0,-103.95948 84.27581,-188.23529 188.23529,-188.23529v0c103.95948,0 188.23529,84.27581 188.23529,188.23529v0c0,103.95948 -84.27581,188.23529 -188.23529,188.23529z" id="shape"></path></g><g fill="none" fill-rule="nonzero" stroke="none" stroke-width="none" stroke-linecap="butt" stroke-linejoin="none" stroke-miterlimit="10" stroke-dasharray="" stroke-dashoffset="0" font-family="none" font-weight="none" font-size="none" text-anchor="none" style="mix-blend-mode: normal"><path transform="scale(5.12,5.12)" d="M36,3c1.64497,0 3,1.35503 3,3v14.97656c2.81702,-0.25037 5,-2.59036 5,-5.47656c-0.01187,-0.82768 0.6489,-1.50855 1.47656,-1.52148c0.40561,-0.00634 0.7965,0.15186 1.08353,0.43852c0.28703,0.28666 0.44573,0.67735 0.43991,1.08296c0,4.50776 -3.55539,8.21215 -8,8.47461v13.02539c0,1.64497 -1.35503,3 -3,3h-4v5.5c0.00765,0.54095 -0.27656,1.04412 -0.74381,1.31683c-0.46725,0.27271 -1.04514,0.27271 -1.51238,0c-0.46725,-0.27271 -0.75146,-0.77588 -0.74381,-1.31683v-5.5h-8v5.5c0.00765,0.54095 -0.27656,1.04412 -0.74381,1.31683c-0.46725,0.27271 -1.04514,0.27271 -1.51238,0c-0.46725,-0.27271 -0.75146,-0.77588 -0.74381,-1.31683v-5.5h-4c-1.64497,0 -3,-1.35503 -3,-3v-12.97656c-2.81702,0.25037 -5,2.59036 -5,5.47656c0.00765,0.54095 -0.27656,1.04412 -0.74381,1.31683c-0.46725,0.27271 -1.04514,0.27271 -1.51238,0c-0.46725,-0.27271 -0.75146,-0.77588 -0.74381,-1.31683c0,-4.50776 3.55538,-8.21215 8,-8.47461v-15.02539c0,-1.64497 1.35503,-3 3,-3z" id="strokeMainSVG" fill="#c0bbbb" stroke="#c0bbbb" stroke-width="3" stroke-linejoin="round"></path><g transform="scale(5.12,5.12)" fill="#000000" stroke="none" stroke-width="1" stroke-linejoin="miter"><path d="M14,3c-1.64497,0 -3,1.35503 -3,3v15.02539c-4.44462,0.26245 -8,3.96685 -8,8.47461c-0.00765,0.54095 0.27656,1.04412 0.74381,1.31683c0.46725,0.27271 1.04514,0.27271 1.51238,0c0.46725,-0.27271 0.75146,-0.77588 0.74381,-1.31683c0,-2.8862 2.18298,-5.22619 5,-5.47656v12.97656c0,1.64497 1.35503,3 3,3h4v5.5c-0.00765,0.54095 0.27656,1.04412 0.74381,1.31683c0.46725,0.27271 1.04514,0.27271 1.51238,0c0.46725,-0.27271 0.75146,-0.77588 0.74381,-1.31683v-5.5h8v5.5c-0.00765,0.54095 0.27656,1.04412 0.74381,1.31683c0.46725,0.27271 1.04514,0.27271 1.51238,0c0.46725,-0.27271 0.75146,-0.77588 0.74381,-1.31683v-5.5h4c1.64497,0 3,-1.35503 3,-3v-13.02539c4.44461,-0.26245 8,-3.96685 8,-8.47461c0.00582,-0.40562 -0.15288,-0.7963 -0.43991,-1.08296c-0.28703,-0.28666 -0.67792,-0.44486 -1.08353,-0.43852c-0.82766,0.01293 -1.48843,0.69381 -1.47656,1.52148c0,2.8862 -2.18298,5.22619 -5,5.47656v-14.97656c0,-1.64497 -1.35503,-3 -3,-3zM14,5h22c0.56503,0 1,0.43497 1,1v16.25391c-0.02645,0.16103 -0.02645,0.3253 0,0.48633v14.25977c0,0.56503 -0.43497,1 -1,1h-22c-0.56503,0 -1,-0.43497 -1,-1v-14.25391c0.02645,-0.16103 0.02645,-0.3253 0,-0.48633v-16.25977c0,-0.56503 0.43497,-1 1,-1zM17,7c-1.09306,0 -2,0.90694 -2,2v9c0,1.09306 0.90694,2 2,2h16c1.09306,0 2,-0.90694 2,-2v-9c0,-1.09306 -0.90694,-2 -2,-2zM17,9h16v9h-16zM20,11c-0.55228,0 -1,0.44772 -1,1c0,0.55228 0.44772,1 1,1c0.55228,0 1,-0.44772 1,-1c0,-0.55228 -0.44772,-1 -1,-1zM30,11c-0.55228,0 -1,0.44772 -1,1c0,0.55228 0.44772,1 1,1c0.55228,0 1,-0.44772 1,-1c0,-0.55228 -0.44772,-1 -1,-1zM23,14c0,1.105 0.895,2 2,2c1.105,0 2,-0.895 2,-2zM15,22v2h12v-2zM32,22c-0.55228,0 -1,0.44772 -1,1c0,0.55228 0.44772,1 1,1c0.55228,0 1,-0.44772 1,-1c0,-0.55228 -0.44772,-1 -1,-1zM17,26v2h-2v2h2v2h2v-2h2v-2h-2v-2zM29,26l-2,3h4zM34,27c-0.552,0 -1,0.448 -1,1c0,0.552 0.448,1 1,1c0.552,0 1,-0.448 1,-1c0,-0.552 -0.448,-1 -1,-1zM31.5,31c-1.381,0 -2.5,1.119 -2.5,2.5c0,1.381 1.119,2.5 2.5,2.5c1.381,0 2.5,-1.119 2.5,-2.5c0,-1.381 -1.119,-2.5 -2.5,-2.5zM16,34c-0.36064,-0.0051 -0.69608,0.18438 -0.87789,0.49587c-0.18181,0.3115 -0.18181,0.69676 0,1.00825c0.18181,0.3115 0.51725,0.50097 0.87789,0.49587h2c0.36064,0.0051 0.69608,-0.18438 0.87789,-0.49587c0.18181,-0.3115 0.18181,-0.69676 0,-1.00825c-0.18181,-0.3115 -0.51725,-0.50097 -0.87789,-0.49587zM22,34c-0.36064,-0.0051 -0.69608,0.18438 -0.87789,0.49587c-0.18181,0.3115 -0.18181,0.69676 0,1.00825c0.18181,0.3115 0.51725,0.50097 0.87789,0.49587h2c0.36064,0.0051 0.69608,-0.18438 0.87789,-0.49587c0.18181,-0.3115 0.18181,-0.69676 0,-1.00825c-0.18181,-0.3115 -0.51725,-0.50097 -0.87789,-0.49587z"></path></g></g></g></svg>