<svg xmlns="http://www.w3.org/2000/svg" xmlns:xlink="http://www.w3.org/1999/xlink" viewBox="0,0,256,256" width="250px" height="250px"><g transform="translate(40.96,40.96) scale(0.68,0.68)"><g fill="#b700ff" fill-rule="nonzero" stroke="none" stroke-width="1" stroke-linecap="butt" stroke-linejoin="miter" stroke-miterlimit="10" stroke-dasharray="" stroke-dashoffset="0" font-family="none" font-weight="none" font-size="none" text-anchor="none" style="mix-blend-mode: normal"><path d="M128,316.23529c-103.95948,0 -188.23529,-84.27581 -188.23529,-188.23529v0c0,-103.95948 84.27581,-188.23529 188.23529,-188.23529v0c103.95948,0 188.23529,84.27581 188.23529,188.23529v0c0,103.95948 -84.27581,188.23529 -188.23529,188.23529z" id="shape"></path></g><g fill="none" fill-rule="nonzero" stroke="none" stroke-width="none" stroke-linecap="butt" stroke-linejoin="none" stroke-miterlimit="10" stroke-dasharray="" stroke-dashoffset="0" font-family="none" font-weight="none" font-size="none" text-anchor="none" style="mix-blend-mode: normal"><path transform="scale(5.12,5.12)" d="M25.19531,8.09766c1.25987,-1.86585 3.39333,-3.09766 5.80469,-3.09766c2.54525,0 4.77459,1.37609 6,3.41797c1.22541,-2.04188 3.45475,-3.41797 6,-3.41797c3.85415,0 7,3.14585 7,7c0,3.23059 -2.21227,5.9561 -5.19727,6.75586c-0.58935,1.53546 -1.0197,3.09378 -1.37891,4.66211c-0.385,1.731 -0.70473,3.47061 -0.92773,5.22461c-0.228,1.753 -0.41281,3.51316 -0.50781,5.28516c-0.07841,1.40347 -0.11858,2.81268 -0.06641,4.23438c1.1973,0.39475 2.07813,1.51604 2.07813,2.83789v1.74219c0,2.0708 -2.16755,3.40805 -4.18164,2.88281c-1.19371,-0.31051 -1.80823,-0.625 -3.81641,-0.625c-1.65423,0 -2.34986,0.21094 -3.22461,0.46094c-0.87475,0.25 -1.92867,0.53906 -3.77344,0.53906c-1.84382,0 -2.89723,-0.28906 -3.77148,-0.53906c-0.87425,-0.25 -1.56948,-0.46094 -3.22266,-0.46094c-1.65476,0 -2.34961,0.21094 -3.22461,0.46094c-0.875,0.25 -1.93015,0.53906 -3.77539,0.53906c-1.84618,0 -2.90174,-0.28907 -3.77734,-0.53906c-0.8756,-0.24999 -1.57022,-0.46094 -3.22656,-0.46094c-2.01314,0 -2.63088,0.31636 -3.82812,0.62695c-2.01229,0.52251 -4.17773,-0.81318 -4.17773,-2.88281v-1.74414c0,-1.25662 0.89331,-2.14058 2,-2.58398v-1.41602c0,-1.43779 1.10762,-2.49377 2.4668,-2.77734c-2.14339,-3.09574 -3.4668,-6.96681 -3.4668,-11.22266c0,-9.84996 6.85838,-18 15.5,-18c3.22651,0 6.22642,1.15434 8.69531,3.09766z" id="strokeMainSVG" fill="#c0bbbb" stroke="#c0bbbb" stroke-width="3" stroke-linejoin="round"></path><g transform="scale(5.12,5.12)" fill="#000000" stroke="none" stroke-width="1" stroke-linejoin="miter"><path d="M16.5,5c-8.64162,0 -15.5,8.15004 -15.5,18c0,4.25585 1.32341,8.12692 3.4668,11.22266c-1.35918,0.28357 -2.4668,1.33956 -2.4668,2.77734v1.41602c-1.10669,0.4434 -2,1.32736 -2,2.58398v1.74414c0,2.06963 2.16544,3.40533 4.17773,2.88281c1.19725,-0.3106 1.81499,-0.62695 3.82813,-0.62695c1.65634,0 2.35096,0.21094 3.22656,0.46094c0.8756,0.24999 1.93116,0.53906 3.77734,0.53906c1.84524,0 2.90039,-0.28906 3.77539,-0.53906c0.875,-0.25 1.56985,-0.46094 3.22461,-0.46094c1.65318,0 2.34841,0.21094 3.22266,0.46094c0.87425,0.25 1.92766,0.53906 3.77148,0.53906c1.84477,0 2.89869,-0.28906 3.77344,-0.53906c0.87475,-0.25 1.57037,-0.46094 3.22461,-0.46094c2.00818,0 2.6227,0.31449 3.81641,0.625c2.01409,0.52524 4.18164,-0.81201 4.18164,-2.88281v-1.74219c0,-1.32185 -0.88083,-2.44315 -2.07812,-2.83789c-0.05218,-1.4217 -0.01201,-2.8309 0.06641,-4.23437c0.095,-1.772 0.27981,-3.53216 0.50781,-5.28516c0.223,-1.754 0.54273,-3.49361 0.92773,-5.22461c0.3592,-1.56833 0.78956,-3.12665 1.37891,-4.66211c2.985,-0.79976 5.19727,-3.52527 5.19727,-6.75586c0,-3.85415 -3.14585,-7 -7,-7c-2.54525,0 -4.77459,1.37609 -6,3.41797c-1.22541,-2.04188 -3.45475,-3.41797 -6,-3.41797c-2.41136,0 -4.54481,1.2318 -5.80469,3.09766c-2.46889,-1.94332 -5.4688,-3.09766 -8.69531,-3.09766zM16.5,7c2.90587,0 5.58846,1.09104 7.80664,2.96289c-0.19719,0.64507 -0.30664,1.32913 -0.30664,2.03711c0,3.23059 2.21227,5.9561 5.19727,6.75586c0.20167,0.45744 0.38884,0.91806 0.5625,1.38086c0.14291,0.93142 0.24023,1.88233 0.24023,2.86328c0,4.44074 -1.53,8.4447 -3.96875,11.32617c-0.25181,0.29729 -0.30805,0.71376 -0.14412,1.06719c0.16393,0.35343 0.51819,0.5795 0.90779,0.57929h0.19141l0.98633,0.02734c0.00911,0.00012 0.01823,0.00012 0.02734,0c0.56503,0 1,0.43497 1,1v1h-10.77734c0.4691,-2.51916 0.77302,-5.07892 0.6582,-7.71094c-0.07,-1.58 -0.27172,-3.17 -0.76172,-4.75c-0.49,-1.56 -1.21836,-3.15922 -2.56836,-4.44922c-0.67,-0.63 -1.51172,-1.17945 -2.51172,-1.43945c-0.98,-0.28 -2.11812,-0.22125 -3.07812,0.21875c-0.96,0.42 -1.71141,1.17047 -2.19141,1.98047c-0.49,0.82 -0.73891,1.69102 -0.87891,2.54102c-0.13,0.86 -0.13,1.65008 0,2.58008c0.15,0.89 0.54945,1.89961 1.43945,2.59961c0.43,0.36 1.00984,0.57062 1.58984,0.64063c0.6,0.06 1.2107,-0.10016 1.7207,-0.41016c1.03,-0.68 1.39937,-1.88078 1.35938,-2.80078c-0.02,-0.5 -0.40992,-0.90922 -0.91992,-0.94922c-0.56,-0.04 -1.04008,0.36992 -1.08008,0.91992v0.0293c-0.08,1.08 -0.75,1.28031 -1.25,0.82031c-0.58,-0.44 -0.65039,-1.79 -0.40039,-3c0.24,-1.18 0.88969,-2.16992 1.67969,-2.41992c0.77,-0.28 1.67016,0.03008 2.41016,0.83008c0.75,0.78 1.25078,1.95945 1.55078,3.18945c0.31,1.24 0.41063,2.57969 0.39063,3.92969c-0.02812,2.53982 -0.52146,5.12152 -1.19141,7.65039h-10.18945v-1c0,-0.56503 0.43497,-1 1,-1h0.99805l0.22852,0.00195c0.39072,0.00162 0.7466,-0.22445 0.91119,-0.57881c0.16459,-0.35437 0.10773,-0.77213 -0.14556,-1.06963c-2.45178,-2.88422 -3.99219,-6.89952 -3.99219,-11.35352c0,-8.92803 6.12562,-16 13.5,-16zM31,7c2.77327,0 5,2.22673 5,5c0,2.77327 -2.22673,5 -5,5c-2.77327,0 -5,-2.22673 -5,-5c0,-2.77327 2.22673,-5 5,-5zM43,7c2.77327,0 5,2.22673 5,5c0,2.77327 -2.22673,5 -5,5c-2.77327,0 -5,-2.22673 -5,-5c0,-2.77327 2.22673,-5 5,-5zM31,9c-1.65685,0 -3,1.34315 -3,3c0,1.65685 1.34315,3 3,3c1.65685,0 3,-1.34315 3,-3c0,-1.65685 -1.34315,-3 -3,-3zM43,9c-1.65685,0 -3,1.34315 -3,3c0,1.65685 1.34315,3 3,3c1.65685,0 3,-1.34315 3,-3c0,-1.65685 -1.34315,-3 -3,-3zM11.56445,11.44141c-0.9911,-0.01457 -1.75399,0.39591 -1.89844,1.02149c-0.13429,0.52528 0.1949,1.1184 0.86136,1.55195c0.66646,0.43356 1.56677,0.64028 2.35575,0.54091c0.78898,-0.09937 1.34421,-0.48942 1.45281,-1.0206c0.10806,-0.47235 -0.15399,-0.99898 -0.70375,-1.41431c-0.54976,-0.41532 -1.31971,-0.66832 -2.06774,-0.67944zM17.62305,13.91211c-0.31364,-0.01679 -0.59114,0.06491 -0.80273,0.23633c-0.43471,0.32715 -0.56333,0.97647 -0.33612,1.69697c0.2272,0.7205 0.77462,1.39928 1.43065,1.77396c0.65603,0.37468 1.31787,0.38655 1.7297,0.03102c0.52531,-0.42277 0.56259,-1.31913 0.09114,-2.19097c-0.47145,-0.87184 -1.33576,-1.50487 -2.11263,-1.54731zM37,15.58203c0.90789,1.5128 2.36544,2.65465 4.09766,3.14648c0.09193,1.46575 0.06312,2.9148 -0.02148,4.35547c-0.115,1.769 -0.29627,3.52939 -0.57227,5.27539c-0.272,1.747 -0.58719,3.48684 -0.99219,5.21484c-0.3446,1.48498 -0.73743,2.9632 -1.24219,4.42578h-1.55469c-0.59001,-1.47663 -1.06312,-2.97644 -1.48633,-4.48437c-0.487,-1.721 -0.88524,-3.45713 -1.24023,-5.20312c-0.359,-1.745 -0.62522,-3.50916 -0.82422,-5.28516c-0.1504,-1.4216 -0.24775,-2.85253 -0.23047,-4.30664c1.71872,-0.49663 3.16391,-1.63486 4.06641,-3.13867zM21.96484,20.07422c-0.07171,0.00499 -0.14154,0.01804 -0.20898,0.03906c-0.791,0.24623 -1.09907,1.51442 -0.68809,2.83257c0.41098,1.31815 1.38537,2.18711 2.17637,1.94087c0.75215,-0.23359 1.07426,-1.39666 0.73758,-2.6632c-0.33668,-1.26654 -1.21749,-2.20518 -2.01688,-2.1493zM31.62891,26.78906c0.13494,0.6315 0.27156,1.26245 0.38281,1.89844c0.311,1.754 0.57781,3.51787 0.75781,5.29688c0.13754,1.32976 0.24649,2.66495 0.27148,4.01563h-2.04102v-1c0,-1.43779 -1.10761,-2.49377 -2.4668,-2.77734c1.48652,-2.14636 2.56591,-4.67152 3.0957,-7.43359zM3,40h38c0.56503,0 1,0.43497 1,1v1.74219c0,0.6112 -0.76787,1.18403 -1.67578,0.94727c-0.00065,0 -0.0013,0 -0.00195,0c-1.02825,-0.26749 -2.08049,-0.68945 -4.32031,-0.68945c-1.84477,0 -2.89869,0.28906 -3.77344,0.53906c-0.87475,0.25 -1.57037,0.46094 -3.22461,0.46094c-1.65318,0 -2.34841,-0.21094 -3.22266,-0.46094c-0.87425,-0.25 -1.92767,-0.53906 -3.77148,-0.53906c-1.84524,0 -2.90039,0.28906 -3.77539,0.53906c-0.875,0.25 -1.56985,0.46094 -3.22461,0.46094c-1.65582,0 -2.35091,-0.21093 -3.22656,-0.46094c-0.87565,-0.25001 -1.93069,-0.53906 -3.77734,-0.53906c-2.24486,0 -3.29932,0.424 -4.33008,0.69141c-0.90715,0.23611 -1.67578,-0.33557 -1.67578,-0.94727v-1.74414c0,-0.56503 0.43497,-1 1,-1z"></path></g></g></g></svg>