<svg xmlns="http://www.w3.org/2000/svg" xmlns:xlink="http://www.w3.org/1999/xlink" viewBox="0,0,256,256" width="250px" height="250px"><g transform="translate(40.96,40.96) scale(0.68,0.68)"><g fill="#b700ff" fill-rule="nonzero" stroke="none" stroke-width="1" stroke-linecap="butt" stroke-linejoin="miter" stroke-miterlimit="10" stroke-dasharray="" stroke-dashoffset="0" font-family="none" font-weight="none" font-size="none" text-anchor="none" style="mix-blend-mode: normal"><path d="M128,316.23529c-103.95948,0 -188.23529,-84.27581 -188.23529,-188.23529v0c0,-103.95948 84.27581,-188.23529 188.23529,-188.23529v0c103.95948,0 188.23529,84.27581 188.23529,188.23529v0c0,103.95948 -84.27581,188.23529 -188.23529,188.23529z" id="shape"></path></g><g fill="none" fill-rule="nonzero" stroke="none" stroke-width="none" stroke-linecap="butt" stroke-linejoin="none" stroke-miterlimit="10" stroke-dasharray="" stroke-dashoffset="0" font-family="none" font-weight="none" font-size="none" text-anchor="none" style="mix-blend-mode: normal"><path transform="scale(5.12,5.12)" d="M17.11328,6.64063c0.39063,0.625 0.47266,1.47656 0.60547,2.28906c2.25,-0.57031 4.68359,-0.92969 7.28125,-0.92969c2.59766,0 5.02734,0.36719 7.28125,0.9375c0.13281,-0.81641 0.21094,-1.66797 0.60547,-2.29687c0.57031,-0.91406 1.49219,-1.64062 2.61328,-1.64062c1.12109,0 2.04297,0.72656 2.61328,1.64063c0.57422,0.91797 0.88672,2.08594 0.88672,3.35938v14.1875c0.31641,-0.11328 0.64844,-0.1875 1,-0.1875c1.64453,0 3,1.35547 3,3v2.73438c1.16016,1.23047 2.23828,3.35547 3.1875,6.17969c1.03516,3.08984 1.8125,6.96094 1.8125,11.08594c0.00391,0.35938 -0.18359,0.69531 -0.49609,0.87891c-0.3125,0.17969 -0.69531,0.17969 -1.00781,0c-0.3125,-0.18359 -0.5,-0.51953 -0.49609,-0.87891c0,-3.875 -0.73828,-7.55078 -1.71094,-10.44922c-0.39453,-1.17578 -0.84766,-2.12109 -1.28906,-3v2.63281c1.38672,2.90234 2,6.85156 2,10.81641c0.00391,0.35938 -0.18359,0.69531 -0.49609,0.87891c-0.3125,0.17969 -0.69531,0.17969 -1.00781,0c-0.3125,-0.18359 -0.5,-0.51953 -0.49609,-0.87891c0,-3.10937 -0.42187,-6.23437 -1.21875,-8.60547c-0.50391,0.375 -1.11328,0.60547 -1.78125,0.60547c-0.35156,0 -0.68359,-0.07422 -1,-0.1875v8.1875c0.00391,0.35938 -0.18359,0.69531 -0.49609,0.87891c-0.3125,0.17969 -0.69531,0.17969 -1.00781,0c-0.3125,-0.18359 -0.5,-0.51953 -0.49609,-0.87891v-18.21875c-3.28125,1.33594 -7.35547,2.21875 -12,2.21875c-4.64453,0 -8.71875,-0.88281 -12,-2.21875v18.21875c0.00391,0.35938 -0.18359,0.69531 -0.49609,0.87891c-0.3125,0.17969 -0.69531,0.17969 -1.00781,0c-0.3125,-0.18359 -0.5,-0.51953 -0.49609,-0.87891v-8.1875c-0.31641,0.11328 -0.64844,0.1875 -1,0.1875c-0.66797,0 -1.27734,-0.23047 -1.78125,-0.60547c-0.79687,2.37109 -1.21875,5.49609 -1.21875,8.60547c0.00391,0.35938 -0.18359,0.69531 -0.49609,0.87891c-0.3125,0.17969 -0.69531,0.17969 -1.00781,0c-0.3125,-0.18359 -0.5,-0.51953 -0.49609,-0.87891c0,-3.96484 0.61328,-7.91406 2,-10.81641v-2.63281c-0.44141,0.87891 -0.89453,1.82422 -1.28906,3c-0.97266,2.89844 -1.71094,6.57422 -1.71094,10.44922c0.00391,0.35938 -0.18359,0.69531 -0.49609,0.87891c-0.3125,0.17969 -0.69531,0.17969 -1.00781,0c-0.3125,-0.18359 -0.5,-0.51953 -0.49609,-0.87891c0,-4.125 0.77734,-7.99609 1.8125,-11.08594c0.94922,-2.82422 2.02734,-4.94922 3.1875,-6.17969v-2.73437c0,-1.64453 1.35547,-3 3,-3c0.35156,0 0.68359,0.07422 1,0.1875v-14.1875c0,-1.27344 0.3125,-2.44141 0.88672,-3.35937c0.57031,-0.91406 1.49219,-1.64062 2.61328,-1.64062c1.12109,0 2.04297,0.72656 2.61328,1.64063z" id="strokeMainSVG" fill="#c0bbbb" stroke="#c0bbbb" stroke-width="3" stroke-linejoin="round"></path><g transform="scale(5.12,5.12)" fill="#000000" stroke="none" stroke-width="1" stroke-linejoin="miter"><path d="M14.5,5c-1.12109,0 -2.04297,0.72656 -2.61328,1.64063c-0.57422,0.91797 -0.88672,2.08594 -0.88672,3.35938v14.1875c-0.31641,-0.11328 -0.64844,-0.1875 -1,-0.1875c-1.64453,0 -3,1.35547 -3,3v2.73438c-1.16016,1.23047 -2.23828,3.35547 -3.1875,6.17969c-1.03516,3.08984 -1.8125,6.96094 -1.8125,11.08594c-0.00391,0.35938 0.18359,0.69531 0.49609,0.87891c0.3125,0.17969 0.69531,0.17969 1.00781,0c0.3125,-0.18359 0.5,-0.51953 0.49609,-0.87891c0,-3.875 0.73828,-7.55078 1.71094,-10.44922c0.39453,-1.17578 0.84766,-2.12109 1.28906,-3v2.63281c-1.38672,2.90234 -2,6.85156 -2,10.81641c-0.00391,0.35938 0.18359,0.69531 0.49609,0.87891c0.3125,0.17969 0.69531,0.17969 1.00781,0c0.3125,-0.18359 0.5,-0.51953 0.49609,-0.87891c0,-3.10937 0.42188,-6.23437 1.21875,-8.60547c0.50391,0.375 1.11328,0.60547 1.78125,0.60547c0.35156,0 0.68359,-0.07422 1,-0.1875v8.1875c-0.00391,0.35938 0.18359,0.69531 0.49609,0.87891c0.3125,0.17969 0.69531,0.17969 1.00781,0c0.3125,-0.18359 0.5,-0.51953 0.49609,-0.87891v-18.21875c3.28125,1.33594 7.35547,2.21875 12,2.21875c4.64453,0 8.71875,-0.88281 12,-2.21875v18.21875c-0.00391,0.35938 0.18359,0.69531 0.49609,0.87891c0.3125,0.17969 0.69531,0.17969 1.00781,0c0.3125,-0.18359 0.5,-0.51953 0.49609,-0.87891v-8.1875c0.31641,0.11328 0.64844,0.1875 1,0.1875c0.66797,0 1.27734,-0.23047 1.78125,-0.60547c0.79688,2.37109 1.21875,5.49609 1.21875,8.60547c-0.00391,0.35938 0.18359,0.69531 0.49609,0.87891c0.3125,0.17969 0.69531,0.17969 1.00781,0c0.3125,-0.18359 0.5,-0.51953 0.49609,-0.87891c0,-3.96484 -0.61328,-7.91406 -2,-10.81641v-2.63281c0.44141,0.87891 0.89453,1.82422 1.28906,3c0.97266,2.89844 1.71094,6.57422 1.71094,10.44922c-0.00391,0.35938 0.18359,0.69531 0.49609,0.87891c0.3125,0.17969 0.69531,0.17969 1.00781,0c0.3125,-0.18359 0.5,-0.51953 0.49609,-0.87891c0,-4.125 -0.77734,-7.99609 -1.8125,-11.08594c-0.94922,-2.82422 -2.02734,-4.94922 -3.1875,-6.17969v-2.73437c0,-1.64453 -1.35547,-3 -3,-3c-0.35156,0 -0.68359,0.07422 -1,0.1875v-14.1875c0,-1.27344 -0.3125,-2.44141 -0.88672,-3.35937c-0.57031,-0.91406 -1.49219,-1.64062 -2.61328,-1.64062c-1.12109,0 -2.04297,0.72656 -2.61328,1.64063c-0.39453,0.62891 -0.47266,1.48047 -0.60547,2.29688c-2.25391,-0.57031 -4.68359,-0.9375 -7.28125,-0.9375c-2.59766,0 -5.03125,0.35938 -7.28125,0.92969c-0.13281,-0.8125 -0.21484,-1.66406 -0.60547,-2.28906c-0.57031,-0.91406 -1.49219,-1.64062 -2.61328,-1.64062zM14.5,7c0.25781,0 0.58984,0.17188 0.92188,0.70313c0.32813,0.52734 0.57813,1.35938 0.57813,2.29688c0,-0.07812 -0.00391,-0.05078 -0.00391,0.10156v1.33594l1.28125,-0.375c2.30859,-0.67578 4.93359,-1.0625 7.72266,-1.0625c2.78906,0 5.41016,0.39453 7.72656,1.07422l1.31641,0.38281l-0.03906,-1.37109c0,-0.125 -0.00391,-0.15234 -0.00391,-0.08594c0,-0.9375 0.25,-1.76953 0.57813,-2.29687c0.33203,-0.53125 0.66406,-0.70312 0.92188,-0.70312c0.25781,0 0.58984,0.17188 0.92188,0.70313c0.32813,0.52734 0.57813,1.35938 0.57813,2.29688v16.76563c-3.02344,1.34766 -7.27344,2.23438 -12,2.23438c-4.72656,0 -8.97656,-0.88672 -12,-2.23437v-16.76562c0,-0.9375 0.25,-1.76953 0.57813,-2.29687c0.33203,-0.53125 0.66406,-0.70312 0.92188,-0.70312zM25,12c-2.9375,0 -5.60937,0.76172 -7.61328,2.0625c-2.00781,1.30469 -3.38672,3.22656 -3.38672,5.4375c0,2.21094 1.37891,4.13281 3.38672,5.4375c2.00391,1.30078 4.67578,2.0625 7.61328,2.0625c2.9375,0 5.60938,-0.76172 7.61328,-2.0625c2.00781,-1.30469 3.38672,-3.22656 3.38672,-5.4375c0,-2.21094 -1.37891,-4.13281 -3.38672,-5.4375c-2.00391,-1.30078 -4.67578,-2.0625 -7.61328,-2.0625zM25,14c2.58594,0 4.91016,0.69141 6.52734,1.74219c1.61328,1.05078 2.47266,2.37891 2.47266,3.75781c0,1.37891 -0.85937,2.70703 -2.47266,3.75781c-1.61719,1.05078 -3.94141,1.74219 -6.52734,1.74219c-2.58594,0 -4.91016,-0.69141 -6.52734,-1.74219c-1.61328,-1.05078 -2.47266,-2.37891 -2.47266,-3.75781c0,-1.37891 0.85938,-2.70703 2.47266,-3.75781c1.61719,-1.05078 3.94141,-1.74219 6.52734,-1.74219zM20,17c-0.55078,0 -1,0.44922 -1,1c0,0.55078 0.44922,1 1,1c0.55078,0 1,-0.44922 1,-1c0,-0.55078 -0.44922,-1 -1,-1zM30,17c-0.55078,0 -1,0.44922 -1,1c0,0.55078 0.44922,1 1,1c0.55078,0 1,-0.44922 1,-1c0,-0.55078 -0.44922,-1 -1,-1zM26.98047,18.98438c-0.30078,0.01172 -0.57812,0.15625 -0.76172,0.39063c-0.32031,0.40234 -0.74219,0.625 -1.21875,0.625c-0.47266,0 -0.89844,-0.22266 -1.21875,-0.625c-0.1875,-0.23828 -0.47266,-0.38281 -0.78125,-0.38672c-0.38672,-0.00391 -0.74219,0.21875 -0.91016,0.56641c-0.16797,0.35156 -0.11719,0.76953 0.12891,1.07031c0.65625,0.82031 1.66406,1.375 2.78125,1.375c1.12109,0 2.125,-0.55469 2.78125,-1.375c0.25391,-0.30469 0.30469,-0.72656 0.13281,-1.08203c-0.17187,-0.35156 -0.53906,-0.57422 -0.93359,-0.55859zM10,26c0.55469,0 1,0.44531 1,1v9c0,0.55469 -0.44531,1 -1,1c-0.55469,0 -1,-0.44531 -1,-1v-9c0,-0.55469 0.44531,-1 1,-1zM40,26c0.55469,0 1,0.44531 1,1v9c0,0.55469 -0.44531,1 -1,1c-0.55469,0 -1,-0.44531 -1,-1v-9c0,-0.55469 0.44531,-1 1,-1z"></path></g></g></g></svg>