<svg xmlns="http://www.w3.org/2000/svg" xmlns:xlink="http://www.w3.org/1999/xlink" viewBox="0,0,256,256" width="250px" height="250px"><g transform="translate(40.96,40.96) scale(0.68,0.68)"><g fill="#b700ff" fill-rule="nonzero" stroke="none" stroke-width="1" stroke-linecap="butt" stroke-linejoin="miter" stroke-miterlimit="10" stroke-dasharray="" stroke-dashoffset="0" font-family="none" font-weight="none" font-size="none" text-anchor="none" style="mix-blend-mode: normal"><path d="M128,316.23529c-103.95948,0 -188.23529,-84.27581 -188.23529,-188.23529v0c0,-103.95948 84.27581,-188.23529 188.23529,-188.23529v0c103.95948,0 188.23529,84.27581 188.23529,188.23529v0c0,103.95948 -84.27581,188.23529 -188.23529,188.23529z" id="shape"></path></g><g fill="none" fill-rule="nonzero" stroke="none" stroke-width="none" stroke-linecap="butt" stroke-linejoin="none" stroke-miterlimit="10" stroke-dasharray="" stroke-dashoffset="0" font-family="none" font-weight="none" font-size="none" text-anchor="none" style="mix-blend-mode: normal"><path transform="scale(5.12,5.12)" d="M36.94922,13h0.05078c0.35938,-0.00391 0.69531,0.18359 0.87891,0.49609c0.17969,0.3125 0.17969,0.69531 0,1.00781c-0.18359,0.3125 -0.51953,0.5 -0.87891,0.49609v9.99219c0.02344,0 0.04688,0 0.07031,0.00391c0.00781,0 0.01172,0 0.01953,0c0.01563,0 0.03125,0.00391 0.05078,0.00391c0.25,0.03516 0.48047,0.16016 0.64063,0.35547l0.00391,0.00391c0.01953,0.01953 0.03516,0.03125 0.05859,0.05469c0.12109,0.12109 0.27344,0.29297 0.44141,0.52734c0.34375,0.47266 0.76172,1.19531 1.16406,2.28125c0.74219,2.01563 1.4375,5.30078 1.53125,10.5625c0.01953,0.10156 0.02734,0.19922 0.01563,0.30078c0,0 -0.00781,0.05078 -0.01172,0.05469c0.00391,0.25 0.01172,0.48438 0.01563,0.73828c0.00391,0.05078 0.00391,0.09766 0,0.14844c0.01172,0.12891 0.05859,0.99609 -0.03516,2.08984c-0.10156,1.17969 -0.25391,2.58594 -1.25781,3.58984c-0.24609,0.25391 -0.60547,0.36328 -0.94922,0.28125c-0.34766,-0.08203 -0.62109,-0.33984 -0.72656,-0.67578c-0.10156,0.11719 -0.17969,0.23438 -0.28516,0.35547c-0.36719,0.41016 -1,0.44531 -1.41406,0.07813c-0.41016,-0.36719 -0.44531,-1 -0.07812,-1.41406c0.11328,-0.125 0.19531,-0.24609 0.29688,-0.36719c-0.30859,0.02734 -0.56641,0.03516 -0.56641,0.03516c-0.55469,-0.01172 -0.99219,-0.46484 -0.98437,-1.01562c0.01172,-0.55469 0.46484,-0.99219 1.01563,-0.98437c0,0 0.67969,0.00391 1.40625,-0.28125c0.33203,-0.12891 0.64063,-0.30469 0.90625,-0.55078c0.52734,-1.1875 0.63672,-1.95312 0.65625,-2.13281c-0.07812,-5.22656 -0.76172,-8.35547 -1.41406,-10.11719c-0.20312,-0.55469 -0.39453,-0.94141 -0.57031,-1.25781v8.16016c0.02344,0.12891 0.01953,0.26172 -0.01172,0.38672c-0.10547,3.50391 -2.81641,6.38672 -6.25391,6.75l-0.78516,2.35938c-0.13672,0.41016 -0.51953,0.68359 -0.94922,0.68359h-2c-0.42969,0 -0.8125,-0.27344 -0.94922,-0.68359l-0.76953,-2.31641h-0.5625l-0.76953,2.31641c-0.13672,0.41016 -0.51953,0.68359 -0.94922,0.68359h-2c-0.42969,0 -0.8125,-0.27344 -0.94922,-0.68359l-0.78516,-2.35937c-3.43359,-0.36328 -6.14844,-3.24219 -6.25391,-6.74609c-0.02734,-0.125 -0.03125,-0.25781 -0.01172,-0.38672v-8.13672c-0.17187,0.30078 -0.36328,0.66797 -0.57031,1.23047c-0.65234,1.76172 -1.33594,4.89063 -1.41406,10.11719c0.01953,0.17969 0.12891,0.94531 0.65625,2.13281c0.26563,0.24609 0.57422,0.42188 0.90625,0.55078c0.72656,0.28516 1.40625,0.28125 1.40625,0.28125c0.55078,-0.01172 1.00781,0.42969 1.01563,0.98047c0.01172,0.55469 -0.42969,1.01172 -0.98437,1.01953c0,0 -0.25781,-0.00781 -0.56641,-0.03516c0.10156,0.12109 0.18359,0.24219 0.29688,0.36719c0.36719,0.41406 0.33203,1.04688 -0.07812,1.41406c-0.41406,0.36719 -1.04687,0.33203 -1.41406,-0.07812c-0.10547,-0.12109 -0.18359,-0.23828 -0.28516,-0.35547c-0.10547,0.33594 -0.37891,0.59375 -0.72656,0.67578c-0.34375,0.08203 -0.70312,-0.02734 -0.94922,-0.28125c-1.00391,-1.00391 -1.15625,-2.41016 -1.25781,-3.58984c-0.09375,-1.09375 -0.04297,-1.95312 -0.03516,-2.08594c-0.00391,-0.04687 0,-0.09375 0,-0.14062c0.00391,-0.26172 0.01172,-0.49609 0.01563,-0.75c-0.00391,-0.00391 -0.01172,-0.05469 -0.01172,-0.05469c-0.00781,-0.09766 -0.00391,-0.19531 0.01563,-0.28906c0.09375,-5.26953 0.78906,-8.55859 1.53125,-10.57422c0.40234,-1.08594 0.82031,-1.80859 1.16406,-2.28125c0.16797,-0.23437 0.32031,-0.40625 0.44141,-0.52734c0.0625,-0.0625 0.11328,-0.10937 0.15625,-0.14844c0.01953,-0.01172 0.01563,-0.00781 0.03516,-0.02734c0.01172,-0.00781 0.02344,-0.01562 0.03906,-0.02344c0,-0.00314 0.02021,-0.01891 0.02203,-0.02091c0.00694,-0.00416 0.01354,-0.01076 0.01703,-0.01425c0.00391,-0.00391 0.00781,-0.00391 0.01172,-0.00781c0.02734,-0.01562 0.05469,-0.03516 0.08203,-0.04687c0.14844,-0.08594 0.3125,-0.12891 0.48047,-0.12891v-9.99609c-0.35937,0.00391 -0.69531,-0.18359 -0.87891,-0.49609c-0.17969,-0.3125 -0.17969,-0.69531 0,-1.00781c0.18359,-0.3125 0.51953,-0.5 0.87891,-0.49609h0.05078c0.50781,-6 5.50391,-10.73437 11.58984,-10.92969c0.11328,-0.04297 0.23438,-0.07031 0.35938,-0.07031c6.25781,0 11.43359,4.86719 11.94922,11zM12.40625,25.19531c0.0023,-0.00153 0.00294,-0.00186 0.0025,-0.00138c-0.00083,0.0005 -0.00166,0.00096 -0.0025,0.00138zM30,48h-4c0,-1.10547 0.89453,-2 2,-2c1.10547,0 2,0.89453 2,2zM24,48h-4c0,-1.10547 0.89453,-2 2,-2c1.10547,0 2,0.89453 2,2z" id="strokeMainSVG" fill="#c0bbbb" stroke="#c0bbbb" stroke-width="3" stroke-linejoin="round"></path><g transform="scale(5.12,5.12)" fill="#000000" stroke="none" stroke-width="1" stroke-linejoin="miter"><path d="M25,2c-0.125,0 -0.24609,0.02734 -0.35937,0.07031c-6.08594,0.19531 -11.08203,4.92969 -11.58984,10.92969h-0.05078c-0.35937,-0.00391 -0.69531,0.18359 -0.87891,0.49609c-0.17969,0.3125 -0.17969,0.69531 0,1.00781c0.18359,0.3125 0.51953,0.5 0.87891,0.49609v9.99609c-0.16797,0 -0.33203,0.04297 -0.48047,0.12891c-0.02734,0.01172 -0.05469,0.03125 -0.08203,0.04688c-0.00391,0.00391 -0.00781,0.00391 -0.01172,0.00781c-0.00391,0.00391 -0.01172,0.01172 -0.01953,0.01563c0.01172,-0.00781 -0.01953,0.01563 -0.01953,0.01953c-0.01562,0.00781 -0.02734,0.01563 -0.03906,0.02344c-0.01953,0.01953 -0.01562,0.01563 -0.03516,0.02734c-0.04297,0.03906 -0.09375,0.08594 -0.15625,0.14844c-0.12109,0.12109 -0.27344,0.29297 -0.44141,0.52734c-0.34375,0.47266 -0.76172,1.19531 -1.16406,2.28125c-0.74219,2.01563 -1.4375,5.30469 -1.53125,10.57422c-0.01953,0.09375 -0.02344,0.19141 -0.01562,0.28906c0,0 0.00781,0.05078 0.01172,0.05469c-0.00391,0.25391 -0.01172,0.48828 -0.01562,0.75c0,0.04688 -0.00391,0.09375 0,0.14063c-0.00781,0.13281 -0.05859,0.99219 0.03516,2.08594c0.10156,1.17969 0.25391,2.58594 1.25781,3.58984c0.24609,0.25391 0.60547,0.36328 0.94922,0.28125c0.34766,-0.08203 0.62109,-0.33984 0.72656,-0.67578c0.10156,0.11719 0.17969,0.23438 0.28516,0.35547c0.36719,0.41016 1,0.44531 1.41406,0.07813c0.41016,-0.36719 0.44531,-1 0.07813,-1.41406c-0.11328,-0.125 -0.19531,-0.24609 -0.29687,-0.36719c0.30859,0.02734 0.56641,0.03516 0.56641,0.03516c0.55469,-0.00781 0.99609,-0.46484 0.98438,-1.01953c-0.00781,-0.55078 -0.46484,-0.99219 -1.01562,-0.98047c0,0 -0.67969,0.00391 -1.40625,-0.28125c-0.33203,-0.12891 -0.64062,-0.30469 -0.90625,-0.55078c-0.52734,-1.1875 -0.63672,-1.95312 -0.65625,-2.13281c0.07813,-5.22656 0.76172,-8.35547 1.41406,-10.11719c0.20703,-0.5625 0.39844,-0.92969 0.57031,-1.23047v8.13672c-0.01953,0.12891 -0.01562,0.26172 0.01172,0.38672c0.10547,3.50391 2.82031,6.38281 6.25391,6.74609l0.78516,2.35938c0.13672,0.41016 0.51953,0.68359 0.94922,0.68359h2c0.42969,0 0.8125,-0.27344 0.94922,-0.68359l0.76953,-2.31641h0.5625l0.76953,2.31641c0.13672,0.41016 0.51953,0.68359 0.94922,0.68359h2c0.42969,0 0.8125,-0.27344 0.94922,-0.68359l0.78516,-2.35937c3.4375,-0.36328 6.14844,-3.24609 6.25391,-6.75c0.03125,-0.125 0.03516,-0.25781 0.01172,-0.38672v-8.16016c0.17578,0.31641 0.36719,0.70313 0.57031,1.25781c0.65234,1.76172 1.33594,4.89063 1.41406,10.11719c-0.01953,0.17969 -0.12891,0.94531 -0.65625,2.13281c-0.26562,0.24609 -0.57422,0.42188 -0.90625,0.55078c-0.72656,0.28516 -1.40625,0.28125 -1.40625,0.28125c-0.55078,-0.00781 -1.00391,0.42969 -1.01562,0.98438c-0.00781,0.55078 0.42969,1.00391 0.98438,1.01563c0,0 0.25781,-0.00781 0.56641,-0.03516c-0.10156,0.12109 -0.18359,0.24219 -0.29687,0.36719c-0.36719,0.41406 -0.33203,1.04688 0.07813,1.41406c0.41406,0.36719 1.04688,0.33203 1.41406,-0.07812c0.10547,-0.12109 0.18359,-0.23828 0.28516,-0.35547c0.10547,0.33594 0.37891,0.59375 0.72656,0.67578c0.34375,0.08203 0.70313,-0.02734 0.94922,-0.28125c1.00391,-1.00391 1.15625,-2.41016 1.25781,-3.58984c0.09375,-1.09375 0.04688,-1.96094 0.03516,-2.08984c0.00391,-0.05078 0.00391,-0.09766 0,-0.14844c-0.00391,-0.25391 -0.01172,-0.48828 -0.01562,-0.73828c0.00391,-0.00391 0.01172,-0.05469 0.01172,-0.05469c0.01172,-0.10156 0.00391,-0.19922 -0.01562,-0.30078c-0.09375,-5.26172 -0.78906,-8.54687 -1.53125,-10.5625c-0.40234,-1.08594 -0.82031,-1.80859 -1.16406,-2.28125c-0.16797,-0.23437 -0.32031,-0.40625 -0.44141,-0.52734c-0.02344,-0.02344 -0.03906,-0.03516 -0.05859,-0.05469l-0.00391,-0.00391c-0.16016,-0.19531 -0.39062,-0.32031 -0.64062,-0.35547c-0.01953,0 -0.03516,-0.00391 -0.05078,-0.00391c-0.00781,0 -0.01172,0 -0.01953,0c-0.02344,-0.00391 -0.04687,-0.00391 -0.07031,-0.00391v-9.99219c0.35938,0.00391 0.69531,-0.18359 0.87891,-0.49609c0.17969,-0.3125 0.17969,-0.69531 0,-1.00781c-0.18359,-0.3125 -0.51953,-0.5 -0.87891,-0.49609h-0.05078c-0.51562,-6.13281 -5.69141,-11 -11.94922,-11zM28,46c-1.10547,0 -2,0.89453 -2,2h4c0,-1.10547 -0.89453,-2 -2,-2zM22,46c-1.10547,0 -2,0.89453 -2,2h4c0,-1.10547 -0.89453,-2 -2,-2zM25,4c5.16797,0 9.44531,3.96094 9.94922,9h-4.04297c-0.47656,-2.82812 -2.94531,-5 -5.90625,-5c-2.96094,0 -5.42969,2.17188 -5.90625,5h-4.04297c0.50391,-5.03906 4.78125,-9 9.94922,-9zM25,10c2.19141,0 3.94141,1.73047 3.98828,3.91016c-0.00391,0.05859 -0.00391,0.12109 0,0.18359c-0.04687,2.17578 -1.80078,3.90625 -3.98828,3.90625c-2.19141,0 -3.94141,-1.73047 -3.98828,-3.91016c0.00391,-0.05859 0.00391,-0.12109 0,-0.18359c0.04688,-2.17578 1.80078,-3.90625 3.98828,-3.90625zM24.5,13c-0.82812,0 -1.5,0.67188 -1.5,1.5c0,0.82813 0.67188,1.5 1.5,1.5c0.82813,0 1.5,-0.67187 1.5,-1.5c0,-0.82812 -0.67187,-1.5 -1.5,-1.5zM15,15h4.09375c0.47656,2.82813 2.94531,5 5.90625,5c2.96094,0 5.42969,-2.17187 5.90625,-5h4.09375v11.31641l-3.35156,2.68359h-13.29687l-3.35156,-2.68359zM20.98047,22.98828c-0.42969,0.00391 -0.80469,0.27734 -0.94141,0.68359c-0.13672,0.40234 0,0.84766 0.33594,1.10938c0,0 0.47266,0.35938 1.23828,0.65234c0.76563,0.29297 1.89063,0.56641 3.38672,0.56641c1.49609,0 2.62109,-0.27344 3.38672,-0.56641c0.76563,-0.29297 1.23828,-0.65234 1.23828,-0.65234c0.43359,-0.34375 0.5,-0.97656 0.15625,-1.40625c-0.34375,-0.43359 -0.97656,-0.5 -1.40625,-0.15625c0,0 -0.15234,0.14063 -0.69922,0.34766c-0.54687,0.20703 -1.42187,0.43359 -2.67578,0.43359c-1.25391,0 -2.12891,-0.22656 -2.67578,-0.43359c-0.54687,-0.20703 -0.69922,-0.34766 -0.69922,-0.34766c-0.18359,-0.14844 -0.41016,-0.23047 -0.64453,-0.23047zM15,28.87891l2,1.60156v5.45313c-0.21094,-0.01562 -0.21875,0 -0.47266,-0.03125c-0.57031,-0.08203 -1.16797,-0.26953 -1.52734,-0.43359zM35,28.87891v6.58984c-0.35937,0.16406 -0.95703,0.35156 -1.52734,0.43359c-0.25391,0.03125 -0.26172,0.01563 -0.47266,0.03125v-5.45312zM19,31h12v6c0,0.54688 0.4375,0.99219 0.98438,1c0,0 0.80859,0.01172 1.76172,-0.12109c0.29688,-0.03906 0.60938,-0.09375 0.92969,-0.16016c-0.70312,1.90625 -2.52734,3.28125 -4.67578,3.28125c-0.00391,0 -0.00391,0 -0.00781,0h-3.83594c-0.0625,-0.01172 -0.12891,-0.01562 -0.19922,-0.01562c-0.04297,0.00391 -0.08594,0.00781 -0.12891,0.01563h-5.67187c-0.0625,-0.01172 -0.12891,-0.01562 -0.19922,-0.01562c-0.01953,0.00391 -0.04297,0.00391 -0.06641,0.00781c-2.09766,-0.04687 -3.875,-1.39844 -4.56641,-3.27344c0.32031,0.06641 0.63281,0.12109 0.92969,0.16016c0.95313,0.13281 1.76172,0.12109 1.76172,0.12109c0.54688,-0.00781 0.98438,-0.45312 0.98438,-1zM21.38672,43h1.22656l-0.33203,1h-0.5625zM27.38672,43h1.22656l-0.33203,1h-0.5625z"></path></g></g></g></svg>