<svg xmlns="http://www.w3.org/2000/svg" xmlns:xlink="http://www.w3.org/1999/xlink" viewBox="0,0,256,256" width="250px" height="250px"><g transform="translate(40.96,40.96) scale(0.68,0.68)"><g fill="#b700ff" fill-rule="nonzero" stroke="none" stroke-width="1" stroke-linecap="butt" stroke-linejoin="miter" stroke-miterlimit="10" stroke-dasharray="" stroke-dashoffset="0" font-family="none" font-weight="none" font-size="none" text-anchor="none" style="mix-blend-mode: normal"><path d="M128,316.23529c-103.95948,0 -188.23529,-84.27581 -188.23529,-188.23529v0c0,-103.95948 84.27581,-188.23529 188.23529,-188.23529v0c103.95948,0 188.23529,84.27581 188.23529,188.23529v0c0,103.95948 -84.27581,188.23529 -188.23529,188.23529z" id="shape"></path></g><g fill="none" fill-rule="nonzero" stroke="none" stroke-width="none" stroke-linecap="butt" stroke-linejoin="none" stroke-miterlimit="10" stroke-dasharray="" stroke-dashoffset="0" font-family="none" font-weight="none" font-size="none" text-anchor="none" style="mix-blend-mode: normal"><path transform="scale(5.12,5.12)" d="M41.8457,2c1.73044,0 3.11953,1.49926 2.99023,3.22461l-2.83789,37.84961c-0.03892,0.52233 -0.47426,0.92615 -0.99805,0.92578h-12.5l-2.69922,3.59961c-0.18883,0.25238 -0.48558,0.40098 -0.80078,0.40098c-0.3152,0 -0.61196,-0.14859 -0.80078,-0.40098l-2.69922,-3.59961h-12.5c-0.52378,0.00037 -0.95912,-0.40345 -0.99805,-0.92578l-2.83789,-37.84961c-0.12933,-1.72592 1.26175,-3.22461 2.99219,-3.22461z" id="strokeMainSVG" fill="#c0bbbb" stroke="#c0bbbb" stroke-width="3" stroke-linejoin="round"></path><g transform="scale(5.12,5.12)" fill="#000000" stroke="none" stroke-width="1" stroke-linejoin="miter"><path d="M8.15625,2c-1.73044,0 -3.12152,1.49869 -2.99219,3.22461l2.83789,37.84961c0.03892,0.52233 0.47426,0.92615 0.99805,0.92578h12.5l2.69922,3.59961c0.18883,0.25238 0.48558,0.40098 0.80078,0.40098c0.3152,0 0.61196,-0.14859 0.80078,-0.40098l2.69922,-3.59961h12.5c0.52378,0.00037 0.95912,-0.40345 0.99805,-0.92578l2.83789,-37.84961c0.12929,-1.72535 -1.2598,-3.22461 -2.99023,-3.22461zM8.15625,4h33.68945c0.59756,0 1.0408,0.47953 0.99609,1.07617l-2.09375,27.92383h-3.54883c-0.11627,-0.02076 -0.23529,-0.02076 -0.35156,0h-11.7207c-0.00975,-0.00145 -0.01951,-0.00275 -0.0293,-0.00391c-0.02209,-0.00204 -0.04423,-0.00334 -0.06641,-0.00391c-0.01953,-0.00057 -0.03907,-0.00057 -0.05859,0c-0.03723,0.00053 -0.07439,0.00314 -0.11133,0.00781h-11.73633c-0.04207,-0.00595 -0.08447,-0.00921 -0.12695,-0.00977c-0.0477,-0.00015 -0.09535,0.00311 -0.14258,0.00977h-3.60352l-2.09375,-27.92383c-0.04467,-0.59608 0.40048,-1.07617 0.99805,-1.07617zM19,7c-3.85433,0 -7,3.14567 -7,7c0,3.85433 3.14567,7 7,7c0.71809,0 1.40955,-0.11594 2.06445,-0.31836c0.13127,0.75683 0.47036,1.44711 0.96289,1.99414c0.23674,0.2741 0.60318,0.39879 0.95797,0.32596c0.35479,-0.07283 0.64248,-0.33179 0.7521,-0.67699c0.10962,-0.3452 0.02403,-0.72269 -0.22374,-0.98686c-0.32064,-0.35612 -0.51367,-0.81719 -0.51367,-1.33789c0,-0.2004 0.03865,-0.3887 0.0918,-0.57031c0.00205,-0.00779 0.004,-0.0156 0.00586,-0.02344c0.25022,-0.81824 0.99462,-1.40625 1.90234,-1.40625c0.18794,0 0.36548,0.03313 0.53711,0.08008c0.04263,0.01665 0.08635,0.03035 0.13086,0.04102c0.55827,0.19482 0.99456,0.62249 1.19922,1.17578c0.01356,0.06974 0.03451,0.13783 0.0625,0.20313c0.0406,0.16051 0.07031,0.32564 0.07031,0.5c0,0.51892 -0.19279,0.97969 -0.51172,1.33398c-0.23946,0.26549 -0.31906,0.63858 -0.2088,0.97868c0.11025,0.3401 0.39361,0.59553 0.74328,0.67003c0.34968,0.0745 0.71254,-0.04324 0.95185,-0.30887c0.49231,-0.54689 0.83013,-1.23627 0.96094,-1.99219c0.6547,0.2022 1.34592,0.31836 2.06445,0.31836c3.85433,0 7,-3.14567 7,-7c0,-3.85433 -3.14567,-7 -7,-7c-2.60306,0 -4.79409,1.49639 -6,3.61523c-1.20591,-2.11884 -3.39694,-3.61523 -6,-3.61523zM19,9c2.77367,0 5,2.22633 5,5c0,0.85078 -0.21975,1.63897 -0.5918,2.33789c-0.92312,0.40506 -1.66526,1.1472 -2.07031,2.07031c-0.69789,0.37166 -1.48713,0.5918 -2.33789,0.5918c-2.77367,0 -5,-2.22633 -5,-5c0,-2.77367 2.22633,-5 5,-5zM31,9c2.77367,0 5,2.22633 5,5c0,2.77367 -2.22633,5 -5,5c-0.85095,0 -1.6394,-0.22045 -2.33789,-0.5918c-0.40506,-0.92312 -1.1472,-1.66526 -2.07031,-2.07031c-0.37173,-0.69835 -0.5918,-1.48673 -0.5918,-2.33789c0,-2.77367 2.22633,-5 5,-5zM20,12c-1.10457,0 -2,0.89543 -2,2c0,1.10457 0.89543,2 2,2c1.10457,0 2,-0.89543 2,-2c0,-1.10457 -0.89543,-2 -2,-2zM30,12c-1.10457,0 -2,0.89543 -2,2c0,1.10457 0.89543,2 2,2c1.10457,0 2,-0.89543 2,-2c0,-1.10457 -0.89543,-2 -2,-2zM38.25,19.98438c-0.29896,0.00853 -0.57841,0.1504 -0.76172,0.38672c-2.35523,2.91164 -5.91266,4.62891 -9.69922,4.62891h-0.62109c-0.10799,-0.01785 -0.21818,-0.01785 -0.32617,0h-1.8418h-1.83203c-0.10799,-0.01785 -0.21818,-0.01785 -0.32617,0h-0.63086c-3.78656,0 -7.3431,-1.71744 -9.69727,-4.62891c-0.18837,-0.24012 -0.47606,-0.3811 -0.78125,-0.38281c-0.38909,-0.00209 -0.74408,0.22167 -0.91,0.57362c-0.16592,0.35195 -0.11265,0.76818 0.13656,1.067c1.82636,2.25871 4.30468,3.8255 7.04102,4.66406v3.70703c0.00006,0.55226 0.44774,0.99994 1,1h4c0.55226,-0.00006 0.99994,-0.44774 1,-1v-3h1h1v3c0.00006,0.55226 0.44774,0.99994 1,1h4c0.55226,-0.00006 0.99994,-0.44774 1,-1v-3.70703c2.73639,-0.83855 5.21598,-2.40546 7.04297,-4.66406c0.25424,-0.3014 0.30765,-0.72404 0.13639,-1.07921c-0.17126,-0.35517 -0.53522,-0.57656 -0.92936,-0.56532zM20,26.75195c0.66141,0.10303 1.32088,0.21454 2,0.22461v2.02344h-2zM30,26.75195v2.24805h-2v-2.02344c0.67912,-0.01007 1.33858,-0.12158 2,-0.22461zM9.40234,35h3.23633l5.7207,4.76758c0.37102,0.30949 0.91023,0.30949 1.28125,0l2.00977,-1.67383l1.12891,1.10938l-1.39844,2.79688h-11.45312zM15.76172,35h6.47852l-3.24023,2.69922zM27.76172,35h6.47656l-3.23828,2.69922zM37.36133,35h3.23633l-0.52539,7h-11.45508l-1.40234,-2.80664l1.10742,-1.12305l2.03711,1.69727c0.37102,0.30949 0.91023,0.30949 1.28125,0zM25,35.30078l1.7793,1.48438l-1.19727,1.21484h-1.17383l-1.21484,-1.19336zM24.61719,40h0.76562l1.44727,2.89453l-1.83008,2.43945l-1.83008,-2.43945z"></path></g></g></g></svg>