<svg xmlns="http://www.w3.org/2000/svg" xmlns:xlink="http://www.w3.org/1999/xlink" viewBox="0,0,256,256" width="250px" height="250px"><g transform="translate(25.6,25.6) scale(0.8,0.8)"><g fill="#b700ff" fill-rule="nonzero" stroke="none" stroke-width="1" stroke-linecap="butt" stroke-linejoin="miter" stroke-miterlimit="10" stroke-dasharray="" stroke-dashoffset="0" font-family="none" font-weight="none" font-size="none" text-anchor="none" style="mix-blend-mode: normal"><path d="M128,288c-88.36556,0 -160,-71.63444 -160,-160v0c0,-88.36556 71.63444,-160 160,-160v0c88.36556,0 160,71.63444 160,160v0c0,88.36556 -71.63444,160 -160,160z" id="shape"></path></g><g fill="none" fill-rule="nonzero" stroke="none" stroke-width="none" stroke-linecap="butt" stroke-linejoin="none" stroke-miterlimit="10" stroke-dasharray="" stroke-dashoffset="0" font-family="none" font-weight="none" font-size="none" text-anchor="none" style="mix-blend-mode: normal"><path transform="scale(5.12,5.12)" d="M32,0c0.32156,-0.00015 0.62359,0.15434 0.81166,0.41517c0.18808,0.26083 0.23926,0.59618 0.13756,0.90124c0,0 -0.82904,2.73621 -0.90625,8.09961c0.11234,0.0155 1.11133,0.06641 1.11133,0.06641c0.50402,0.07987 0.8671,0.52635 0.84255,1.03606c-0.02456,0.50972 -0.42889,0.91922 -0.93825,0.95026c1.29746,0.85758 2.46065,1.90939 3.44727,3.11523c0.89022,-2.09533 2.89905,-3.58398 5.26172,-3.58398c1.60426,0 3.2002,0.65547 4.4082,1.72852c1.208,1.07304 2.04832,2.66592 1.76953,4.42187c-0.53712,3.37476 -3.0391,5.83789 -6.17773,5.83789c-0.68457,0 -1.33074,-0.15193 -1.93555,-0.38281c0.0472,0.46882 0.16797,0.91112 0.16797,1.39453c0,1.75 0.55078,2.40039 1.30078,3.40039c0.75,1 1.69922,2.34961 1.69922,4.59961c0,3.91808 -2.32449,5.86201 -3,6.38477v2.61523c0,1.99248 -0.75979,3.65355 -1.92187,4.88867c-1.16209,1.23512 -2.69179,2.07577 -4.29883,2.67383c-3.21408,1.19611 -6.78394,1.4375 -8.7793,1.4375c-1.99535,0 -5.56522,-0.24139 -8.7793,-1.4375c-1.60704,-0.59805 -3.13674,-1.43871 -4.29883,-2.67383c-1.16209,-1.23512 -1.92187,-2.8962 -1.92187,-4.88867v-2.61523c-0.67551,-0.52276 -3,-2.46668 -3,-6.38477c0,-2.25 0.94922,-3.59961 1.69922,-4.59961c0.75,-1 1.30078,-1.65039 1.30078,-3.40039c0,-0.48371 0.12079,-0.92557 0.16797,-1.39453c-0.60538,0.23117 -1.25062,0.38281 -1.93555,0.38281c-3.13889,0 -5.64253,-2.46212 -6.17969,-5.83594c-0.27876,-1.75642 0.56323,-3.35067 1.77148,-4.42383c1.20826,-1.07315 2.80395,-1.72852 4.4082,-1.72852c2.36326,0 4.37168,1.48869 5.26172,3.58398c0.97781,-1.19508 2.12864,-2.23675 3.41211,-3.08984c-0.51497,-0.03134 -0.92158,-0.44927 -0.93878,-0.9649c-0.0172,-0.51563 0.36065,-0.95973 0.87238,-1.02533c0,0 0.99277,-0.05245 1.10352,-0.06836c-0.10522,-5.32957 -1.26367,-8.00781 -1.26367,-8.00781c-0.14657,-0.30986 -0.12424,-0.67319 0.05918,-0.96277c0.18341,-0.28958 0.50235,-0.46505 0.84512,-0.46497z" id="strokeMainSVG" fill="#c0bbbb" stroke="#c0bbbb" stroke-width="3" stroke-linejoin="round"></path><g transform="scale(5.12,5.12)" fill="#282828" stroke="none" stroke-width="1" stroke-linejoin="miter"><path d="M17.58398,0c-0.34277,-0.00008 -0.66171,0.17539 -0.84512,0.46497c-0.18341,0.28958 -0.20574,0.65291 -0.05918,0.96277c0,0 1.15846,2.67824 1.26367,8.00781c-0.11075,0.01591 -1.10352,0.06836 -1.10352,0.06836c-0.51173,0.0656 -0.88958,0.5097 -0.87238,1.02533c0.0172,0.51563 0.42382,0.93356 0.93878,0.9649c-1.28347,0.8531 -2.4343,1.89477 -3.41211,3.08984c-0.89004,-2.09529 -2.89846,-3.58398 -5.26172,-3.58398c-1.60426,0 -3.19995,0.65536 -4.4082,1.72852c-1.20826,1.07315 -2.05024,2.66741 -1.77148,4.42383c0.53715,3.37382 3.0408,5.83594 6.17969,5.83594c0.68493,0 1.33017,-0.15164 1.93555,-0.38281c-0.04717,0.46896 -0.16797,0.91082 -0.16797,1.39453c0,1.75 -0.55078,2.40039 -1.30078,3.40039c-0.75,1 -1.69922,2.34961 -1.69922,4.59961c0,3.91808 2.32449,5.86201 3,6.38477v2.61523c0,1.99248 0.75979,3.65355 1.92188,4.88867c1.16209,1.23512 2.69179,2.07577 4.29883,2.67383c3.21408,1.19611 6.78394,1.4375 8.7793,1.4375c1.99535,0 5.56522,-0.24139 8.7793,-1.4375c1.60704,-0.59805 3.13674,-1.43871 4.29883,-2.67383c1.16209,-1.23512 1.92188,-2.8962 1.92188,-4.88867v-2.61523c0.67551,-0.52276 3,-2.46668 3,-6.38477c0,-2.25 -0.94922,-3.59961 -1.69922,-4.59961c-0.75,-1 -1.30078,-1.65039 -1.30078,-3.40039c0,-0.48341 -0.12077,-0.92571 -0.16797,-1.39453c0.60481,0.23088 1.25098,0.38281 1.93555,0.38281c3.13863,0 5.64061,-2.46313 6.17773,-5.83789c0.27878,-1.75595 -0.56153,-3.34883 -1.76953,-4.42187c-1.208,-1.07304 -2.80394,-1.72852 -4.4082,-1.72852c-2.36267,0 -4.3715,1.48866 -5.26172,3.58398c-0.98662,-1.20585 -2.1498,-2.25766 -3.44727,-3.11523c0.50936,-0.03104 0.91369,-0.44055 0.93825,-0.95026c0.02456,-0.50972 -0.33853,-0.9562 -0.84255,-1.03606c0,0 -0.99898,-0.05091 -1.11133,-0.06641c0.07721,-5.3634 0.90625,-8.09961 0.90625,-8.09961c0.1017,-0.30506 0.05052,-0.64041 -0.13756,-0.90124c-0.18808,-0.26083 -0.4901,-0.41531 -0.81166,-0.41517zM18.9375,2h11.82031c-0.28343,1.18143 -0.63745,3.39283 -0.70508,7.29883c-1.34389,-0.1395 -1.92785,-0.29341 -4.9668,-0.29687c-0.0286,-0.00188 -0.05728,-0.00253 -0.08594,-0.00195c-3.14299,0 -3.71631,0.1654 -5.07422,0.3125c-0.09211,-3.84328 -0.57547,-6.06495 -0.98828,-7.3125zM25,11c4.7535,0 8.8868,2.55221 11.15625,6.35352c0.22812,0.38061 0.67975,0.5654 1.10924,0.45385c0.42949,-0.11155 0.73411,-0.49276 0.74819,-0.93627c0.06422,-2.1834 1.72832,-3.87109 3.75391,-3.87109c1.02874,0 2.24283,0.4809 3.08008,1.22461c0.83725,0.74371 1.27626,1.64823 1.12305,2.61328c-0.4174,2.61802 -2.0763,4.15039 -4.20312,4.15039c-0.93211,0 -1.77003,-0.36792 -2.44531,-0.98437c-0.32421,-0.29587 -0.80343,-0.34577 -1.18164,-0.12305l-0.03906,0.02344c-0.37825,0.223 -0.5668,0.66665 -0.46484,1.09375c0.23126,0.97372 0.36328,1.97305 0.36328,3.00195c0,2.25 0.94922,3.59961 1.69922,4.59961c0.75,1 1.30078,1.65039 1.30078,3.40039c0,3.5 -2.55469,5.16797 -2.55469,5.16797c-0.27818,0.18547 -0.44528,0.49769 -0.44531,0.83203v3c0,1.50752 -0.51224,2.59645 -1.37891,3.51758c-0.86666,0.92113 -2.1231,1.64298 -3.53906,2.16992c-2.83193,1.05389 -6.26138,1.3125 -8.08203,1.3125c-1.82065,0 -5.25011,-0.25861 -8.08203,-1.3125c-1.41596,-0.52695 -2.6724,-1.24879 -3.53906,-2.16992c-0.86666,-0.92113 -1.37891,-2.01005 -1.37891,-3.51758v-3c-0.00003,-0.33434 -0.16713,-0.64656 -0.44531,-0.83203c0,0 -2.55469,-1.66797 -2.55469,-5.16797c0,-1.75 0.55078,-2.40039 1.30078,-3.40039c0.75,-1 1.69922,-2.34961 1.69922,-4.59961c0,-1.0289 0.13288,-2.02886 0.36328,-3.00195c0.10102,-0.42647 -0.0874,-0.86903 -0.46484,-1.0918l-0.03906,-0.02344c-0.37867,-0.2237 -0.85904,-0.17376 -1.18359,0.12305c-0.67484,0.61686 -1.51069,0.98242 -2.44336,0.98242c-2.12711,0 -3.78628,-1.53221 -4.20312,-4.15039c-0.15325,-0.96558 0.28555,-1.86943 1.12305,-2.61328c0.83749,-0.74385 2.05134,-1.22461 3.08008,-1.22461c2.0268,0 3.68968,1.68745 3.75391,3.87109c0.01407,0.44351 0.3187,0.82472 0.74819,0.93627c0.42949,0.11155 0.88112,-0.07324 1.10924,-0.45385c2.26945,-3.8013 6.40275,-6.35352 11.15625,-6.35352zM19.05273,17.01367c-0.61818,-0.0243 -1.17815,0.04942 -1.6582,0.17773c-1.28013,0.34219 -2.07617,1.07813 -2.07617,1.07813c-0.2799,0.2388 -0.40608,0.612 -0.32852,0.97166c0.07756,0.35966 0.34634,0.64769 0.69978,0.7499c0.35344,0.10222 0.73447,0.00212 0.99203,-0.26062c0,0 0.40714,-0.38786 1.22852,-0.60742c0.82137,-0.21956 1.97565,-0.26628 3.56055,0.72461c0.30316,0.20617 0.69482,0.22994 1.02068,0.06195c0.32586,-0.16799 0.53369,-0.50082 0.5416,-0.86735c0.00791,-0.36653 -0.18537,-0.70801 -0.50368,-0.8899c-1.00455,-0.62805 -1.96697,-0.95412 -2.83984,-1.08008c-0.21822,-0.03149 -0.43066,-0.05049 -0.63672,-0.05859zM30.94727,17.01367c-0.20606,0.0081 -0.4185,0.0271 -0.63672,0.05859c-0.87288,0.12596 -1.83529,0.45203 -2.83984,1.08008c-0.31831,0.18189 -0.51159,0.52337 -0.50368,0.8899c0.00791,0.36653 0.21573,0.69936 0.5416,0.86735c0.32586,0.16799 0.71753,0.14422 1.02068,-0.06195c1.5849,-0.99089 2.73918,-0.94417 3.56055,-0.72461c0.82137,0.21956 1.22852,0.60742 1.22852,0.60742c0.25756,0.26274 0.63859,0.36284 0.99203,0.26062c0.35344,-0.10222 0.62222,-0.39025 0.69978,-0.7499c0.07756,-0.35966 -0.04862,-0.73286 -0.32852,-0.97166c0,0 -0.79604,-0.73594 -2.07617,-1.07812c-0.48005,-0.12832 -1.04002,-0.20204 -1.6582,-0.17773zM18.5,21c-1.41667,0 -2.60644,0.56726 -3.37305,1.42969c-0.76661,0.86243 -1.12695,1.97309 -1.12695,3.07031c0,1.09722 0.36035,2.20788 1.12695,3.07031c0.05319,0.05984 0.12249,0.10716 0.17969,0.16406c-0.51773,0.23879 -0.99039,0.52895 -1.40234,0.88281c-1.24388,1.06849 -1.9043,2.64403 -1.9043,4.38281c0,1.58064 0.89057,2.81264 2.0293,3.60547c0.05468,0.6716 0.27114,1.64176 1.10156,2.56445c1.39604,1.55115 4.21763,2.83008 9.86914,2.83008c5.65152,0 8.4731,-1.27893 9.86914,-2.83008c0.83042,-0.92269 1.04688,-1.89286 1.10156,-2.56445c1.13873,-0.79283 2.0293,-2.02483 2.0293,-3.60547c0,-1.73878 -0.66042,-3.31432 -1.9043,-4.38281c-0.41195,-0.35387 -0.88462,-0.64402 -1.40234,-0.88281c0.0572,-0.05691 0.1265,-0.10422 0.17969,-0.16406c0.76661,-0.86243 1.12695,-1.97309 1.12695,-3.07031c0,-1.09722 -0.36035,-2.20788 -1.12695,-3.07031c-0.76661,-0.86243 -1.95638,-1.42969 -3.37305,-1.42969c-1.41667,0 -2.60644,0.56726 -3.37305,1.42969c-0.76661,0.86243 -1.12695,1.97309 -1.12695,3.07031c0,0.24044 0.02546,0.48172 0.06055,0.7207c-0.60604,-0.14209 -1.28869,-0.2207 -2.06055,-0.2207c-0.77186,0 -1.45451,0.07861 -2.06055,0.2207c0.03509,-0.23898 0.06055,-0.48026 0.06055,-0.7207c0,-1.09722 -0.36035,-2.20788 -1.12695,-3.07031c-0.76661,-0.86243 -1.95638,-1.42969 -3.37305,-1.42969zM18.9043,24.16016c0.57805,0.00269 1.21108,0.08831 1.88672,0.29102c0.13176,0.32621 0.20898,0.68332 0.20898,1.04883c0,0.65278 -0.22299,1.29212 -0.62305,1.74219c-0.40006,0.45007 -0.96029,0.75781 -1.87695,0.75781c-0.91667,0 -1.47689,-0.30774 -1.87695,-0.75781c-0.40006,-0.45007 -0.62305,-1.08941 -0.62305,-1.74219c0,-0.23267 0.03722,-0.46035 0.0918,-0.68164c0.64663,-0.32241 1.60448,-0.66383 2.8125,-0.6582zM31.125,24.16016c1.18391,-0.00552 2.1309,0.32396 2.77734,0.64063c0.05752,0.22675 0.09766,0.46024 0.09766,0.69922c0,0.65278 -0.22299,1.29212 -0.62305,1.74219c-0.40006,0.45007 -0.96029,0.75781 -1.87695,0.75781c-0.91667,0 -1.47689,-0.30774 -1.87695,-0.75781c-0.40006,-0.45007 -0.62305,-1.08941 -0.62305,-1.74219c0,-0.36093 0.07455,-0.71412 0.20313,-1.03711c0.68863,-0.21033 1.33404,-0.29999 1.92188,-0.30273zM19,25c-0.55228,0 -1,0.44772 -1,1c0,0.55228 0.44772,1 1,1c0.55228,0 1,-0.44772 1,-1c0,-0.55228 -0.44772,-1 -1,-1zM31,25c-0.55228,0 -1,0.44772 -1,1c0,0.55228 0.44772,1 1,1c0.55228,0 1,-0.44772 1,-1c0,-0.55228 -0.44772,-1 -1,-1zM25,28c1.20833,0 2.05,0.23748 2.50977,0.49609c0.45976,0.25862 0.49023,0.44835 0.49023,0.50391c0,0.05556 -0.03047,0.24529 -0.49023,0.50391c-0.45976,0.25862 -1.30143,0.49609 -2.50977,0.49609c-1.20833,0 -2.05,-0.23748 -2.50977,-0.49609c-0.45976,-0.25862 -0.49023,-0.44835 -0.49023,-0.50391c0,-0.05556 0.03047,-0.24529 0.49023,-0.50391c0.45976,-0.25862 1.30143,-0.49609 2.50977,-0.49609zM19,30c0.47024,0 0.89261,0.03177 1.29492,0.07422c0.26801,0.47628 0.69753,0.88089 1.21484,1.17188c0.66299,0.37293 1.49253,0.61246 2.49023,0.70703v4.33789c-0.57717,0.23267 -1.95885,0.70898 -5,0.70898c-1.06529,0 -2.35056,-0.26189 -3.31836,-0.74805c-0.11255,-0.10412 -0.24754,-0.18097 -0.39453,-0.22461c-0.81768,-0.50618 -1.28711,-1.11078 -1.28711,-2.02734c0,-1.26122 0.41366,-2.18568 1.20703,-2.86719c0.79337,-0.68151 2.04058,-1.13281 3.79297,-1.13281zM31,30c1.75238,0 2.99959,0.4513 3.79297,1.13281c0.79337,0.68151 1.20703,1.60597 1.20703,2.86719c0,0.90323 -0.45673,1.504 -1.25195,2.00586c-0.17439,0.04419 -0.33363,0.13461 -0.46094,0.26172c-0.96438,0.47622 -2.23301,0.73242 -3.28711,0.73242c-3.04115,0 -4.42283,-0.47631 -5,-0.70898v-4.33789c0.9977,-0.09457 1.82724,-0.3341 2.49023,-0.70703c0.51731,-0.29099 0.94684,-0.69559 1.21484,-1.17187c0.40201,-0.0424 0.82456,-0.07422 1.29492,-0.07422zM24,38.38086v2.58984c-0.7283,-0.02323 -1.39866,-0.0655 -2,-0.13281v-2.03711c0.86824,-0.12108 1.50239,-0.27307 2,-0.41992zM26,38.38086c0.49761,0.14685 1.13176,0.29884 2,0.41992v2.03711c-0.60134,0.06732 -1.2717,0.10958 -2,0.13281zM18,38.94727c0.33956,0.0332 0.67579,0.05273 1,0.05273c0.35453,0 0.67868,-0.01238 1,-0.02539v1.53125c-0.82913,-0.19709 -1.48223,-0.43781 -2,-0.69531zM32,38.94727v0.86328c-0.51777,0.25751 -1.17087,0.49822 -2,0.69531v-1.53125c0.32132,0.01301 0.64547,0.02539 1,0.02539c0.32421,0 0.66044,-0.01953 1,-0.05273z"></path></g></g></g></svg>