<svg xmlns="http://www.w3.org/2000/svg" xmlns:xlink="http://www.w3.org/1999/xlink" viewBox="0,0,256,256" width="250px" height="250px"><g transform="translate(25.6,25.6) scale(0.8,0.8)"><g fill="#b700ff" fill-rule="nonzero" stroke="none" stroke-width="1" stroke-linecap="butt" stroke-linejoin="miter" stroke-miterlimit="10" stroke-dasharray="" stroke-dashoffset="0" font-family="none" font-weight="none" font-size="none" text-anchor="none" style="mix-blend-mode: normal"><path d="M128,288c-88.36556,0 -160,-71.63444 -160,-160v0c0,-88.36556 71.63444,-160 160,-160v0c88.36556,0 160,71.63444 160,160v0c0,88.36556 -71.63444,160 -160,160z" id="shape"></path></g><g fill="none" fill-rule="nonzero" stroke="none" stroke-width="none" stroke-linecap="butt" stroke-linejoin="none" stroke-miterlimit="10" stroke-dasharray="" stroke-dashoffset="0" font-family="none" font-weight="none" font-size="none" text-anchor="none" style="mix-blend-mode: normal"><path transform="scale(5.12,5.12)" d="M22.0096,0.33381c0.18771,0.218 0.27246,0.50628 0.23258,0.79119l-0.10938,0.875h2.73438l-0.10938,-0.875c-0.03939,-0.27996 0.04155,-0.56352 0.2228,-0.78049c0.18125,-0.21698 0.44587,-0.3471 0.72837,-0.35818c0.52417,-0.02058 0.97516,0.36732 1.0332,0.88867l0.17969,1.44141c0.77801,0.41161 1.3074,1.0323 1.63867,1.71289c4.69756,0.29235 8.43945,4.20144 8.43945,8.9707v2.37891l2.49741,1.23914c2.70793,1.03329 4.50259,3.63942 4.50259,6.54015v3.8418c0,2.74952 -2.25048,5 -5,5v2.25c-0.00027,0.28819 -0.12484,0.56226 -0.3418,0.75195c0,0 -0.30805,0.24073 -0.75781,0.4375c-0.39079,0.17097 -1.06839,0.37578 -1.90039,0.57617v6.48438c0.55226,0.00006 0.99994,0.44774 1,1v4c0.00003,0.37879 -0.21395,0.72509 -0.55273,0.89453c0,0 -0.92652,0.44585 -2.87695,0.83594c-1.95043,0.39009 -5.01476,0.76953 -9.57031,0.76953c-5.13333,0 -8.54819,-1.03093 -10.69727,-2.10547c-2.14907,-1.07453 -3.10351,-2.29492 -3.10351,-2.29492c-0.12946,-0.17309 -0.19935,-0.38346 -0.19922,-0.59961v-32c0,-4.76926 3.7419,-8.67835 8.43945,-8.9707c0.33127,-0.68059 0.86067,-1.30128 1.63867,-1.71289l0.17969,-1.44141c0.05714,-0.50988 0.49086,-0.89382 1.00391,-0.88867c0.28767,0.00287 0.56017,0.12948 0.74788,0.34748z" id="strokeMainSVG" fill="#c0bbbb" stroke="#c0bbbb" stroke-width="3" stroke-linejoin="round"></path><g transform="scale(5.12,5.12)" fill="#282828" stroke="none" stroke-width="1" stroke-linejoin="miter"><path d="M21.26172,-0.01367c-0.51305,-0.00514 -0.94677,0.37879 -1.00391,0.88867l-0.17969,1.44141c-0.77801,0.41161 -1.3074,1.0323 -1.63867,1.71289c-4.69756,0.29235 -8.43945,4.20144 -8.43945,8.9707v32c-0.00013,0.21615 0.06976,0.42652 0.19922,0.59961c0,0 0.95444,1.22039 3.10352,2.29492c2.14907,1.07454 5.56393,2.10547 10.69727,2.10547c4.55556,0 7.61988,-0.37944 9.57031,-0.76953c1.95043,-0.39009 2.87695,-0.83594 2.87695,-0.83594c0.33878,-0.16944 0.55276,-0.51574 0.55273,-0.89453v-4c-0.00006,-0.55226 -0.44774,-0.99994 -1,-1v-6.48437c0.832,-0.2004 1.50961,-0.4052 1.90039,-0.57617c0.44976,-0.19677 0.75781,-0.4375 0.75781,-0.4375c0.21695,-0.1897 0.34153,-0.46376 0.3418,-0.75195v-2.25c2.74952,0 5,-2.25048 5,-5v-2v-1.8418c0,-2.91444 -1.81165,-5.53147 -4.54102,-6.55469l0.0918,0.04102l-2.55078,-1.26562v-2.37891c0,-4.76926 -3.7419,-8.67835 -8.43945,-8.9707c-0.33127,-0.68059 -0.86067,-1.30128 -1.63867,-1.71289l-0.17969,-1.44141c-0.05804,-0.52135 -0.50904,-0.90926 -1.0332,-0.88867c-0.2825,0.01107 -0.54712,0.1412 -0.72837,0.35818c-0.18125,0.21698 -0.26219,0.50053 -0.2228,0.78049l0.10938,0.875h-2.73438l0.10938,-0.875c0.03988,-0.28491 -0.04487,-0.57319 -0.23258,-0.79119c-0.18771,-0.218 -0.46022,-0.34461 -0.74788,-0.34748zM21.24805,4h4.50391c0.83756,0.31443 1.10162,0.89168 1.17188,1.5293c-0.128,0.05484 -0.23833,0.11168 -0.47852,0.17188c-0.69572,0.17436 -1.76251,0.29883 -2.94531,0.29883c-1.1828,0 -2.24959,-0.12447 -2.94531,-0.29883c-0.24018,-0.06019 -0.35052,-0.11704 -0.47852,-0.17187c0.07026,-0.63762 0.33431,-1.21487 1.17188,-1.5293zM18.03516,6.07422c0.08534,0.56105 0.48135,0.90443 0.80664,1.09766c0.36436,0.21643 0.76388,0.3523 1.22852,0.46875c0.92928,0.23289 2.11249,0.35938 3.42969,0.35938c1.3172,0 2.50041,-0.12648 3.42969,-0.35937c0.46464,-0.11645 0.86415,-0.25232 1.22852,-0.46875c0.3253,-0.19323 0.7213,-0.53661 0.80664,-1.09766c3.41621,0.46882 6.03516,3.3769 6.03516,6.92578v2.31445c-0.75536,0.26362 -2.33821,0.68555 -5,0.68555c-2.94444,0 -4.6018,-0.2401 -5.94531,-0.48437c-1.34352,-0.24428 -2.44358,-0.51562 -4.05469,-0.51562c-3.30163,0 -6,2.69837 -6,6v5c0,3.30163 2.69837,6 6,6h17v1.63672c-0.31143,0.13128 -0.81597,0.31552 -1.71289,0.51172c-1.89803,0.41519 -5.33572,0.85156 -11.28711,0.85156c-1.644,0 -3.08306,-0.1114 -4.33789,-0.29492c-0.09183,-0.01337 -0.1725,0.02958 -0.26367,0.02148c-0.30482,-0.1322 -0.65539,-0.10439 -0.93555,0.07422c-2.45467,0.26773 -4.46289,2.27669 -4.46289,4.85938v0.04688c0,2.68392 1.82359,4.95277 4.35156,5.68555c0.18961,0.16154 0.43268,0.24651 0.68164,0.23828c0.0015,0.00023 0.00241,0.00165 0.00391,0.00195c1.4371,0.22873 3.08274,0.36719 4.96289,0.36719c0.27951,0 0.43866,-0.02653 0.70703,-0.0293c0.2168,0.06594 0.44956,0.0563 0.66016,-0.02734c2.18586,-0.04407 3.98929,-0.15456 5.44727,-0.32812c0.00065,0 0.0013,0 0.00195,0c0.21236,0.03893 0.43161,0.0081 0.625,-0.08789c0.72746,-0.0993 1.58379,-0.18785 2.12891,-0.29687c0.86876,-0.17375 0.81036,-0.22145 1.28125,-0.37305c0.04907,0.00824 0.09869,0.01281 0.14844,0.01367v1.88867c-0.23228,0.09828 -0.43983,0.23367 -1.82031,0.50977c-1.79957,0.35991 -4.73524,0.73047 -9.17969,0.73047c-4.86667,0 -7.95181,-0.96907 -9.80273,-1.89453c-1.69676,-0.84838 -2.10902,-1.4474 -2.19727,-1.5625v-31.54297c0,-3.54889 2.61895,-6.45696 6.03516,-6.92578zM20,17c1.38889,0 2.28883,0.22865 3.69531,0.48438c1.40648,0.25572 3.24913,0.51563 6.30469,0.51563c3.49597,0 5.30468,-0.67717 5.91211,-0.92773l2.75,1.36328c0.03053,0.01526 0.06182,0.02895 0.09375,0.04102c1.07641,0.40354 1.9391,1.15641 2.50781,2.09375c-0.68341,-0.35208 -1.44589,-0.57031 -2.26367,-0.57031h-15c-2.74952,0 -5,2.25048 -5,5v2c0,1.12794 0.39275,2.16094 1.0293,3h-0.0293c-2.22038,0 -4,-1.77962 -4,-4v-5c0,-2.22038 1.77962,-4 4,-4zM24,22h1c1.54409,0 2.85983,0.86962 3.52734,2.14063c0.03535,0.12781 0.09577,0.24732 0.17773,0.35156c0.18783,0.46501 0.29492,0.97293 0.29492,1.50781c0,0.53489 -0.10709,1.0428 -0.29492,1.50781c-0.08197,0.10425 -0.14238,0.22375 -0.17773,0.35156c-0.66751,1.271 -1.98325,2.14063 -3.52734,2.14063h-1c-1.66848,0 -3,-1.33152 -3,-3h0.5c0.276,0 0.5,-0.224 0.5,-0.5v-1c0,-0.276 -0.224,-0.5 -0.5,-0.5h-0.5c0,-1.66848 1.33152,-3 3,-3zM34,22c2.22037,0 4,1.77962 4,4c0,2.22038 -1.77963,4 -4,4c-1.44352,0 -2.68207,-0.76687 -3.38477,-1.91016c0.24459,-0.65238 0.38477,-1.35446 0.38477,-2.08984c0,-0.73538 -0.14018,-1.43746 -0.38477,-2.08984c0.70269,-1.14329 1.94125,-1.91016 3.38477,-1.91016zM38.45508,22h0.54492c1.66848,0 3,1.33152 3,3v2c0,1.66848 -1.33152,3 -3,3h-0.54492c0.95654,-1.06379 1.54492,-2.4645 1.54492,-4c0,-1.5355 -0.58839,-2.93621 -1.54492,-4zM32.5,25c-0.276,0 -0.5,0.224 -0.5,0.5v1c0,0.276 0.224,0.5 0.5,0.5h1c0.276,0 0.5,-0.224 0.5,-0.5v-1c0,-0.276 -0.224,-0.5 -0.5,-0.5zM34,36.34375v6.69531c-0.35618,0.10081 -0.19806,0.10602 -0.82031,0.23047c-0.29505,0.05901 -0.82195,0.10616 -1.17969,0.16406v-6.80469c0.8056,-0.08376 1.38012,-0.18566 2,-0.28516zM20,36.72656c1.21538,0.15194 2.50096,0.27344 4,0.27344v7c-1.53331,0 -2.80653,-0.1332 -4,-0.29492zM30,36.77344v6.9375c-1.08989,0.11177 -2.51617,0.16134 -4,0.20703v-6.99414c1.46947,-0.03047 2.85849,-0.07166 4,-0.15039zM18,36.83398v6.3457c-1.20886,-0.69384 -2,-1.99946 -2,-3.47266v-0.04687c0,-1.33248 0.84974,-2.4235 2,-2.82617z"></path></g></g></g></svg>