<svg xmlns="http://www.w3.org/2000/svg" xmlns:xlink="http://www.w3.org/1999/xlink" viewBox="0,0,256,256" width="250px" height="250px"><g transform="translate(40.96,40.96) scale(0.68,0.68)"><g fill="#b700ff" fill-rule="nonzero" stroke="none" stroke-width="1" stroke-linecap="butt" stroke-linejoin="miter" stroke-miterlimit="10" stroke-dasharray="" stroke-dashoffset="0" font-family="none" font-weight="none" font-size="none" text-anchor="none" style="mix-blend-mode: normal"><path d="M128,316.23529c-103.95948,0 -188.23529,-84.27581 -188.23529,-188.23529v0c0,-103.95948 84.27581,-188.23529 188.23529,-188.23529v0c103.95948,0 188.23529,84.27581 188.23529,188.23529v0c0,103.95948 -84.27581,188.23529 -188.23529,188.23529z" id="shape"></path></g><g fill="none" fill-rule="nonzero" stroke="none" stroke-width="none" stroke-linecap="butt" stroke-linejoin="none" stroke-miterlimit="10" stroke-dasharray="" stroke-dashoffset="0" font-family="none" font-weight="none" font-size="none" text-anchor="none" style="mix-blend-mode: normal"><path transform="scale(5.12,5.12)" d="M45,26.5c0,2.29688 -1.76953,4.13672 -4,4.39844v0.51563l4.82813,4.82813c1.55469,1.55469 1.55469,4.10547 0,5.66016l-4.82812,4.82813v0.26953c0.00391,0.35938 -0.18359,0.69531 -0.49609,0.87891c-0.3125,0.17969 -0.69531,0.17969 -1.00781,0c-0.3125,-0.18359 -0.5,-0.51953 -0.49609,-0.87891v-19c0,-0.55078 0.44922,-1 1,-1c0.55078,0 1,0.44922 1,1v0.94922c1.14844,-0.22656 2,-1.22656 2,-2.44922c0,-9.67578 -7.82422,-17.5 -17.5,-17.5c-9.67578,0 -17.5,7.82422 -17.5,17.5c0,1.22266 0.85156,2.22266 2,2.44922v-0.94922c0,-0.55078 0.44922,-1 1,-1c0.55078,0 1,0.44922 1,1v19c0.00391,0.35938 -0.18359,0.69531 -0.49609,0.87891c-0.3125,0.17969 -0.69531,0.17969 -1.00781,0c-0.3125,-0.18359 -0.5,-0.51953 -0.49609,-0.87891v-0.26953l-4.82812,-4.82812c-1.55469,-1.55469 -1.55469,-4.10547 0,-5.66016l4.82813,-4.82812v-0.51562c-2.23047,-0.26172 -4,-2.10156 -4,-4.39844c0,-10.75781 8.74219,-19.5 19.5,-19.5c10.75781,0 19.5,8.74219 19.5,19.5zM21.98047,20.60938c1.03906,-0.38672 2.23047,-0.60937 3.51953,-0.60937c1.28906,0 2.48047,0.22266 3.51953,0.60938c0.19922,-2.57422 2.35547,-4.60937 4.98047,-4.60937c2.75781,0 5,2.24219 5,5c0,2.75781 -2.24219,5 -5,5c-0.12891,0 -0.24609,-0.02344 -0.37109,-0.03125c0.21484,0.75781 0.37109,1.60156 0.37109,2.53125c0,1.66797 -0.35547,3.18359 -1,4.36719c-0.64453,1.18359 -1.67578,2.13281 -3,2.13281c-1.26562,0 -2.27344,-0.87891 -2.91406,-1.98437c-0.63281,-1.08984 -1.00391,-2.49219 -1.07031,-4.03906c-0.17187,0.01563 -0.34375,0.02344 -0.51562,0.02344c-0.17187,0 -0.34375,-0.00781 -0.51562,-0.02344c-0.06641,1.54688 -0.4375,2.94922 -1.07031,4.03906c-0.64062,1.10547 -1.64844,1.98438 -2.91406,1.98438c-1.32422,0 -2.35547,-0.94922 -3,-2.13281c-0.64453,-1.18359 -1,-2.69922 -1,-4.36719c0,-0.92969 0.15625,-1.77344 0.37109,-2.53125c-0.125,0.00781 -0.24219,0.03125 -0.37109,0.03125c-2.75781,0 -5,-2.24219 -5,-5c0,-2.75781 2.24219,-5 5,-5c2.625,0 4.78125,2.03516 4.98047,4.60938z" id="strokeMainSVG" fill="#c0bbbb" stroke="#c0bbbb" stroke-width="3" stroke-linejoin="round"></path><g transform="scale(5.12,5.12)" fill="#000000" stroke="none" stroke-width="1" stroke-linejoin="miter"><path d="M25.5,7c-10.75781,0 -19.5,8.74219 -19.5,19.5c0,2.29688 1.76953,4.13672 4,4.39844v0.51563l-4.82812,4.82813c-1.55469,1.55469 -1.55469,4.10547 0,5.66016l4.82813,4.82813v0.26953c-0.00391,0.35938 0.18359,0.69531 0.49609,0.87891c0.3125,0.17969 0.69531,0.17969 1.00781,0c0.3125,-0.18359 0.5,-0.51953 0.49609,-0.87891v-19c0,-0.55078 -0.44922,-1 -1,-1c-0.55078,0 -1,0.44922 -1,1v0.94922c-1.14844,-0.22656 -2,-1.22656 -2,-2.44922c0,-9.67578 7.82422,-17.5 17.5,-17.5c9.67578,0 17.5,7.82422 17.5,17.5c0,1.22266 -0.85156,2.22266 -2,2.44922v-0.94922c0,-0.55078 -0.44922,-1 -1,-1c-0.55078,0 -1,0.44922 -1,1v19c-0.00391,0.35938 0.18359,0.69531 0.49609,0.87891c0.3125,0.17969 0.69531,0.17969 1.00781,0c0.3125,-0.18359 0.5,-0.51953 0.49609,-0.87891v-0.26953l4.82813,-4.82812c1.55469,-1.55469 1.55469,-4.10547 0,-5.66016l-4.82812,-4.82812v-0.51562c2.23047,-0.26172 4,-2.10156 4,-4.39844c0,-10.75781 -8.74219,-19.5 -19.5,-19.5zM17,16c-2.75781,0 -5,2.24219 -5,5c0,2.75781 2.24219,5 5,5c0.12891,0 0.24609,-0.02344 0.37109,-0.03125c-0.21484,0.75781 -0.37109,1.60156 -0.37109,2.53125c0,1.66797 0.35547,3.18359 1,4.36719c0.64453,1.18359 1.67578,2.13281 3,2.13281c1.26563,0 2.27344,-0.87891 2.91406,-1.98437c0.63281,-1.08984 1.00391,-2.49219 1.07031,-4.03906c0.17188,0.01563 0.34375,0.02344 0.51563,0.02344c0.17188,0 0.34375,-0.00781 0.51563,-0.02344c0.06641,1.54688 0.4375,2.94922 1.07031,4.03906c0.64063,1.10547 1.64844,1.98438 2.91406,1.98438c1.32422,0 2.35547,-0.94922 3,-2.13281c0.64453,-1.18359 1,-2.69922 1,-4.36719c0,-0.92969 -0.15625,-1.77344 -0.37109,-2.53125c0.125,0.00781 0.24219,0.03125 0.37109,0.03125c2.75781,0 5,-2.24219 5,-5c0,-2.75781 -2.24219,-5 -5,-5c-2.625,0 -4.78125,2.03516 -4.98047,4.60938c-1.03906,-0.38672 -2.23047,-0.60937 -3.51953,-0.60937c-1.28906,0 -2.48047,0.22266 -3.51953,0.60938c-0.19922,-2.57422 -2.35547,-4.60937 -4.98047,-4.60937zM17.5,18c1.38281,0 2.5,1.11719 2.5,2.5c0,1.38281 -1.11719,2.5 -2.5,2.5c-1.38281,0 -2.5,-1.11719 -2.5,-2.5c0,-1.38281 1.11719,-2.5 2.5,-2.5zM34.5,18c1.38281,0 2.5,1.11719 2.5,2.5c0,1.38281 -1.11719,2.5 -2.5,2.5c-1.38281,0 -2.5,-1.11719 -2.5,-2.5c0,-1.38281 1.11719,-2.5 2.5,-2.5zM25.5,22c2.83203,0 4.84766,1.37891 5.47266,2.64453c0.51172,1.03906 1.02734,2.33984 1.02734,3.85547c0,1.37109 -0.31641,2.60156 -0.75391,3.41016c-0.44141,0.80859 -0.91406,1.08984 -1.24609,1.08984c-0.32031,0 -0.75391,-0.25 -1.18359,-0.98828c-0.42969,-0.73828 -0.75781,-1.875 -0.80469,-3.16406c-0.00391,-0.15234 -0.02344,-0.29297 -0.05469,-0.42578c0.66797,-0.375 1.04297,-0.88672 1.04297,-1.42187c0,-1.10547 -1.56641,-2 -3.5,-2c-1.93359,0 -3.5,0.89453 -3.5,2c0,0.52734 0.36719,1.03516 1.01953,1.41016c-0.01953,0.15234 -0.03125,0.30859 -0.03125,0.46484c-0.05078,1.27734 -0.37891,2.40234 -0.80469,3.13672c-0.42969,0.73828 -0.86328,0.98828 -1.18359,0.98828c-0.33203,0 -0.80469,-0.28125 -1.24609,-1.08984c-0.4375,-0.80859 -0.75391,-2.03906 -0.75391,-3.41016c0,-1.51562 0.51563,-2.81641 1.02734,-3.85547c0.625,-1.26562 2.64063,-2.64453 5.47266,-2.64453zM10,34.24219v2.48828l-1.63672,1.63281c-0.39063,0.39063 -0.39063,1.02344 0,1.41406l1.63672,1.63672v2.48828l-3.41406,-3.41797c-0.78906,-0.78906 -0.78906,-2.03906 0,-2.82812zM41,34.24219l3.41406,3.41406c0.78906,0.78906 0.78906,2.03906 0,2.82813l-3.41406,3.41797v-2.48828l1.63672,-1.63672c0.39063,-0.39062 0.39063,-1.02344 0,-1.41406l-1.63672,-1.63281z"></path></g></g></g></svg>