<svg xmlns="http://www.w3.org/2000/svg" xmlns:xlink="http://www.w3.org/1999/xlink" viewBox="0,0,256,256" width="250px" height="250px"><g transform="translate(40.96,40.96) scale(0.68,0.68)"><g fill="#b700ff" fill-rule="nonzero" stroke="none" stroke-width="1" stroke-linecap="butt" stroke-linejoin="miter" stroke-miterlimit="10" stroke-dasharray="" stroke-dashoffset="0" font-family="none" font-weight="none" font-size="none" text-anchor="none" style="mix-blend-mode: normal"><path d="M128,316.23529c-103.95948,0 -188.23529,-84.27581 -188.23529,-188.23529v0c0,-103.95948 84.27581,-188.23529 188.23529,-188.23529v0c103.95948,0 188.23529,84.27581 188.23529,188.23529v0c0,103.95948 -84.27581,188.23529 -188.23529,188.23529z" id="shape"></path></g><g fill="none" fill-rule="nonzero" stroke="none" stroke-width="none" stroke-linecap="butt" stroke-linejoin="none" stroke-miterlimit="10" stroke-dasharray="" stroke-dashoffset="0" font-family="none" font-weight="none" font-size="none" text-anchor="none" style="mix-blend-mode: normal"><path transform="scale(5.12,5.12)" d="M31.25,3c1.4375,1.03906 2.41797,2.07422 3.46875,2.46875c0.00781,0.00391 0.02344,-0.00391 0.03125,0c2.375,0.83203 3.90234,1.76172 4.875,2.75c0.97656,0.99219 1.375,2.0625 1.375,2.96875c0,1.9375 -1.23437,3.34766 -1.96875,4.03125c0.78516,1.3125 1.30078,2.73047 1.5,4.1875c0.01953,0 0.04297,0 0.0625,0c2.14063,0 3.8125,1.74609 3.8125,3.78125c0,1.54297 -0.94531,2.87891 -2.28125,3.46875c0.5625,0.40625 1.10547,0.85547 1.59375,1.34375c0.01172,0.01172 0.01953,0.01953 0.03125,0.03125l3,3.28125c0.18359,0.19922 0.27734,0.46875 0.25781,0.73828c-0.01562,0.27344 -0.14453,0.52344 -0.35156,0.69922l-0.625,0.53125l1.8125,2.65625c0.18359,0.26563 0.22656,0.60547 0.11328,0.91016c-0.10937,0.30469 -0.36328,0.53516 -0.67578,0.62109l-0.90625,0.25l0.8125,3.875c0.05859,0.30859 -0.02734,0.625 -0.23828,0.85938c-0.20703,0.23047 -0.51172,0.35156 -0.82422,0.32813l-1.375,-0.09375l-0.25,3c-0.02344,0.28516 -0.16406,0.54688 -0.39062,0.71875c-0.22656,0.17188 -0.51562,0.24219 -0.79687,0.1875l-2.09375,-0.375l-1.8125,2.46875c-0.3125,0.42578 -0.89844,0.53516 -1.34375,0.25l-1.3125,-0.8125l-1.9375,1.5625c-0.30469,0.23438 -0.71875,0.26953 -1.0625,0.09375l-2,-1.03125l-1.75,1c-0.22266,0.14063 -0.49219,0.18359 -0.75,0.125l-2.28125,-0.625l-1.75,0.59375c-0.21094,0.07422 -0.44531,0.07422 -0.65625,0l-1.75,-0.59375l-2.25,0.625c-0.26562,0.06641 -0.55078,0.02344 -0.78125,-0.125l-1.71875,-1l-2,1.03125c-0.35156,0.19141 -0.78125,0.15234 -1.09375,-0.09375l-1.9375,-1.5625l-1.3125,0.8125c-0.4375,0.26563 -1.00391,0.15625 -1.3125,-0.25l-1.84375,-2.46875l-2.03125,0.46875c-0.28516,0.06641 -0.58203,0 -0.81641,-0.17187c-0.23437,-0.17578 -0.38281,-0.44141 -0.40234,-0.73437l-0.25,-3l-1.375,0.125c-0.32422,0.03125 -0.64453,-0.09766 -0.85547,-0.34766c-0.21484,-0.25 -0.28906,-0.58594 -0.20703,-0.90234l0.96875,-3.9375l-0.875,-0.25c-0.31641,-0.08984 -0.57031,-0.32812 -0.67578,-0.64062c-0.10937,-0.3125 -0.05469,-0.65625 0.14453,-0.92187l1.875,-2.53125l-0.71875,-0.625c-0.40234,-0.35156 -0.45703,-0.95703 -0.125,-1.375l2.59375,-3.28125c0.02734,-0.03516 0.05859,-0.06641 0.09375,-0.09375c0.54297,-0.54297 1.15234,-1.02734 1.78125,-1.46875c-1.21875,-0.63281 -2.09375,-1.87891 -2.09375,-3.34375c0,-2.14062 1.77734,-3.78125 3.8125,-3.78125c0.02344,0 0.03906,0 0.0625,0c0.20313,-1.45703 0.74609,-2.88672 1.5625,-4.21875c-0.78516,-0.66406 -2.03125,-2.02734 -2.03125,-4c0,-2.04687 1.00391,-3.60547 2.3125,-4.625c1.30078,-1.01562 2.87891,-1.58984 4.34375,-2.09375c0.00781,-0.00391 0.02344,0.00391 0.03125,0c1.34766,-0.48437 2.17188,-1.26172 3.46875,-2.03125c1.30469,-0.77734 3.05078,-1.4375 5.84375,-1.4375c2.86328,0 4.80469,0.95703 6.25,2z" id="strokeMainSVG" fill="#c0bbbb" stroke="#c0bbbb" stroke-width="3" stroke-linejoin="round"></path><g transform="scale(5.12,5.12)" fill="#000000" stroke="none" stroke-width="1" stroke-linejoin="miter"><path d="M25,1c-2.79297,0 -4.53906,0.66016 -5.84375,1.4375c-1.29687,0.76953 -2.12109,1.54688 -3.46875,2.03125c-0.00781,0.00391 -0.02344,-0.00391 -0.03125,0c-1.46484,0.50391 -3.04297,1.07813 -4.34375,2.09375c-1.30859,1.01953 -2.3125,2.57813 -2.3125,4.625c0,1.97266 1.24609,3.33594 2.03125,4c-0.81641,1.33203 -1.35937,2.76172 -1.5625,4.21875c-0.02344,0 -0.03906,0 -0.0625,0c-2.03516,0 -3.8125,1.64063 -3.8125,3.78125c0,1.46484 0.875,2.71094 2.09375,3.34375c-0.62891,0.44141 -1.23828,0.92578 -1.78125,1.46875c-0.03516,0.02734 -0.06641,0.05859 -0.09375,0.09375l-2.59375,3.28125c-0.33203,0.41797 -0.27734,1.02344 0.125,1.375l0.71875,0.625l-1.875,2.53125c-0.19922,0.26563 -0.25391,0.60938 -0.14453,0.92188c0.10547,0.3125 0.35938,0.55078 0.67578,0.64063l0.875,0.25l-0.96875,3.9375c-0.08203,0.31641 -0.00781,0.65234 0.20703,0.90234c0.21094,0.25 0.53125,0.37891 0.85547,0.34766l1.375,-0.125l0.25,3c0.01953,0.29297 0.16797,0.55859 0.40234,0.73438c0.23438,0.17188 0.53125,0.23828 0.81641,0.17188l2.03125,-0.46875l1.84375,2.46875c0.30859,0.40625 0.875,0.51563 1.3125,0.25l1.3125,-0.8125l1.9375,1.5625c0.3125,0.24609 0.74219,0.28516 1.09375,0.09375l2,-1.03125l1.71875,1c0.23047,0.14844 0.51563,0.19141 0.78125,0.125l2.25,-0.625l1.75,0.59375c0.21094,0.07422 0.44531,0.07422 0.65625,0l1.75,-0.59375l2.28125,0.625c0.25781,0.05859 0.52734,0.01563 0.75,-0.125l1.75,-1l2,1.03125c0.34375,0.17578 0.75781,0.14063 1.0625,-0.09375l1.9375,-1.5625l1.3125,0.8125c0.44531,0.28516 1.03125,0.17578 1.34375,-0.25l1.8125,-2.46875l2.09375,0.375c0.28125,0.05469 0.57031,-0.01562 0.79688,-0.1875c0.22656,-0.17187 0.36719,-0.43359 0.39063,-0.71875l0.25,-3l1.375,0.09375c0.3125,0.02344 0.61719,-0.09766 0.82422,-0.32812c0.21094,-0.23437 0.29688,-0.55078 0.23828,-0.85937l-0.8125,-3.875l0.90625,-0.25c0.3125,-0.08594 0.56641,-0.31641 0.67578,-0.62109c0.11328,-0.30469 0.07031,-0.64453 -0.11328,-0.91016l-1.8125,-2.65625l0.625,-0.53125c0.20703,-0.17578 0.33594,-0.42578 0.35156,-0.69922c0.01953,-0.26953 -0.07422,-0.53906 -0.25781,-0.73828l-3,-3.28125c-0.01172,-0.01172 -0.01953,-0.01953 -0.03125,-0.03125c-0.48828,-0.48828 -1.03125,-0.9375 -1.59375,-1.34375c1.33594,-0.58984 2.28125,-1.92578 2.28125,-3.46875c0,-2.03516 -1.67187,-3.78125 -3.8125,-3.78125c-0.01953,0 -0.04297,0 -0.0625,0c-0.19922,-1.45703 -0.71484,-2.875 -1.5,-4.1875c0.73438,-0.68359 1.96875,-2.09375 1.96875,-4.03125c0,-0.90625 -0.39844,-1.97656 -1.375,-2.96875c-0.97266,-0.98828 -2.5,-1.91797 -4.875,-2.75c-0.00781,-0.00391 -0.02344,0.00391 -0.03125,0c-1.05078,-0.39453 -2.03125,-1.42969 -3.46875,-2.46875c-1.44531,-1.04297 -3.38672,-2 -6.25,-2zM25,3c2.4375,0 3.83984,0.71875 5.09375,1.625c1.25391,0.90625 2.32422,2.10938 3.96875,2.71875c2.20703,0.76563 3.48438,1.59766 4.15625,2.28125c0.67188,0.68359 0.78125,1.16797 0.78125,1.5625c0,0.91016 -0.68359,1.78906 -1.1875,2.34375c-2.60547,-3.00391 -6.95703,-5.125 -12.8125,-5.125c-5.82422,0 -10.17187,2.10938 -12.78125,5.09375c-0.51562,-0.49219 -1.21875,-1.32422 -1.21875,-2.3125c0,-1.45312 0.56641,-2.27734 1.53125,-3.03125c0.96484,-0.75391 2.35547,-1.32031 3.78125,-1.8125c0.01172,0 0.01953,0 0.03125,0c1.73828,-0.61719 2.75,-1.53906 3.84375,-2.1875c1.09375,-0.64844 2.30859,-1.15625 4.8125,-1.15625zM25,10.40625c2.69922,0 4.98438,0.44531 6.875,1.21875c-1.48828,0.59766 -3.9375,1.375 -6.875,1.375c-2.88281,0 -5.07422,-0.50781 -6.53125,-1c-0.23047,-0.07812 -0.40234,-0.14453 -0.59375,-0.21875c1.9375,-0.85547 4.3125,-1.375 7.125,-1.375zM34.09375,12.8125c3.0625,2.01953 4.59375,5.03906 4.59375,8c0,0.38281 0.21875,0.73438 0.56641,0.90234c0.34766,0.16797 0.75781,0.12109 1.05859,-0.12109c0.21094,-0.16016 0.26953,-0.19531 0.25,-0.1875c0.01172,-0.00391 0.01953,0.00391 0.03125,0c1.05859,0 1.8125,0.81641 1.8125,1.78125c0,0.83984 -0.58594,1.5625 -1.34375,1.75c-0.33594,0.05859 -0.61719,0.28125 -0.75,0.59375c-1.92578,-0.98828 -4.06641,-1.53125 -6.125,-1.53125h-5.6875c-0.44922,-0.00391 -0.84375,0.28906 -0.96875,0.71875c0,0 -0.04297,0.22656 -0.40625,0.5625c-0.36328,0.33594 -0.97656,0.71875 -2.3125,0.71875c-1.33594,0 -1.98047,-0.38281 -2.34375,-0.71875c-0.36328,-0.33594 -0.40625,-0.5625 -0.40625,-0.5625c-0.125,-0.42969 -0.51953,-0.72266 -0.96875,-0.71875h-5.6875c-2.00391,0 -4.0625,0.53125 -5.9375,1.46875c-0.10937,-0.28125 -0.33594,-0.5 -0.625,-0.59375c-0.74219,-0.26953 -1.25,-0.93359 -1.25,-1.6875c0,-1.05859 0.84766,-1.78125 1.8125,-1.78125c0.04688,0.03906 0.16406,0.14453 0.4375,0.28125c0.30859,0.16406 0.67969,0.15625 0.98047,-0.02344c0.30078,-0.17969 0.48438,-0.50391 0.48828,-0.85156c0,-2.77344 1.46484,-5.75391 4.40625,-7.8125c0.40625,0.21875 1.03906,0.53906 2.125,0.90625c1.64453,0.55469 4.03906,1.09375 7.15625,1.09375c4.80859,0 8.34766,-1.78516 9.09375,-2.1875zM19,15c-0.82031,0 -1.41406,0.35938 -1.875,0.65625c-0.46094,0.29688 -0.8125,0.59375 -0.8125,0.59375c-0.41406,0.37891 -0.44141,1.02344 -0.0625,1.4375c0.37891,0.41406 1.02344,0.44141 1.4375,0.0625c0,0 0.21875,-0.20312 0.53125,-0.40625c0.3125,-0.20312 0.70313,-0.34375 0.78125,-0.34375c0.48828,0 0.64063,0.11719 0.90625,0.5c0.24219,0.34766 0.45703,0.94141 0.65625,1.59375c-0.17969,-0.05469 -0.36719,-0.09375 -0.5625,-0.09375c-1.10547,0 -2,0.89453 -2,2c0,1.10547 0.89453,2 2,2c0.72656,0 1.33594,-0.39062 1.6875,-0.96875c0.12891,0.16797 0.29297,0.32422 0.46875,0.46875c0.35547,0.29297 0.83984,0.5 1.34375,0.5c0.60547,0 1.10938,-0.19922 1.5,-0.46875c0.39063,0.26953 0.89453,0.46875 1.5,0.46875c0.50391,0 0.98828,-0.20703 1.34375,-0.5c0.17578,-0.14453 0.33984,-0.30078 0.46875,-0.46875c0.35156,0.57813 0.96094,0.96875 1.6875,0.96875c1.10547,0 2,-0.89453 2,-2c0,-1.10547 -0.89453,-2 -2,-2c-0.19531,0 -0.38281,0.03906 -0.5625,0.09375c0.19922,-0.65234 0.41406,-1.24609 0.65625,-1.59375c0.26563,-0.38281 0.41797,-0.5 0.90625,-0.5c0.07813,0 0.46875,0.14063 0.78125,0.34375c0.3125,0.20313 0.53125,0.40625 0.53125,0.40625c0.41406,0.37891 1.05859,0.35156 1.4375,-0.0625c0.37891,-0.41406 0.35156,-1.05859 -0.0625,-1.4375c0,0 -0.35156,-0.29687 -0.8125,-0.59375c-0.46094,-0.29687 -1.05469,-0.65625 -1.875,-0.65625c-1.11328,0 -2.04297,0.63281 -2.5625,1.375c-0.51953,0.74219 -0.77344,1.57031 -1,2.34375c-0.22656,0.77344 -0.42187,1.5 -0.625,1.90625c-0.10156,0.20313 -0.17578,0.30859 -0.21875,0.34375c-0.04297,0.03516 -0.02344,0.03125 -0.09375,0.03125c-0.41406,0 -0.38672,-0.08203 -0.4375,-0.15625c-0.05078,-0.07422 -0.0625,-0.125 -0.0625,-0.125c-0.01172,-0.14453 -0.05469,-0.28125 -0.125,-0.40625c0,-0.01172 0,-0.01953 0,-0.03125c-0.01953,-0.02344 -0.03906,-0.04297 -0.0625,-0.0625c-0.02734,-0.04297 -0.05859,-0.08594 -0.09375,-0.125c-0.07422,-0.07422 -0.15625,-0.13672 -0.25,-0.1875c-0.01172,0 -0.01953,0 -0.03125,0c-0.01953,-0.01172 -0.04297,-0.02344 -0.0625,-0.03125c-0.01172,-0.01172 -0.01953,-0.01953 -0.03125,-0.03125c-0.01953,0 -0.04297,0 -0.0625,0c-0.01172,-0.01172 -0.01953,-0.01953 -0.03125,-0.03125c-0.01953,0 -0.04297,0 -0.0625,0c-0.01172,0 -0.01953,0 -0.03125,0c-0.01953,0 -0.04297,0 -0.0625,0c-0.01172,-0.01172 -0.01953,-0.01953 -0.03125,-0.03125c-0.16016,-0.00781 -0.32422,0.02344 -0.46875,0.09375c-0.03125,0.00781 -0.0625,0.01953 -0.09375,0.03125c-0.01172,0.01172 -0.01953,0.01953 -0.03125,0.03125c-0.01172,0.01172 -0.01953,0.01953 -0.03125,0.03125c-0.01172,0.01172 -0.01953,0.01953 -0.03125,0.03125c-0.01953,0.00781 -0.04297,0.01953 -0.0625,0.03125c-0.01172,0.01172 -0.01953,0.01953 -0.03125,0.03125c-0.01172,0.01172 -0.01953,0.01953 -0.03125,0.03125c-0.01172,0.01172 -0.01953,0.01953 -0.03125,0.03125c-0.01172,0.01953 -0.02344,0.04297 -0.03125,0.0625c-0.01172,0.01172 -0.01953,0.01953 -0.03125,0.03125c-0.01172,0.01172 -0.01953,0.01953 -0.03125,0.03125c-0.01172,0.01953 -0.02344,0.04297 -0.03125,0.0625c-0.01172,0.01172 -0.01953,0.01953 -0.03125,0.03125c0,0.01172 0,0.01953 0,0.03125c-0.01172,0.01953 -0.02344,0.04297 -0.03125,0.0625c0,0.01172 0,0.01953 0,0.03125c-0.01172,0.01953 -0.02344,0.04297 -0.03125,0.0625c0,0.01953 0,0.04297 0,0.0625c-0.01172,0.01172 -0.01953,0.01953 -0.03125,0.03125c0,0.01953 0,0.04297 0,0.0625c0,0.01172 0,0.01953 0,0.03125c0,0 -0.01172,0.05078 -0.0625,0.125c-0.05078,0.07422 -0.02344,0.15625 -0.4375,0.15625c-0.07031,0 -0.05078,0.00391 -0.09375,-0.03125c-0.04297,-0.03516 -0.11719,-0.14062 -0.21875,-0.34375c-0.20312,-0.40625 -0.39844,-1.13281 -0.625,-1.90625c-0.22656,-0.77344 -0.48047,-1.60156 -1,-2.34375c-0.51953,-0.74219 -1.44922,-1.375 -2.5625,-1.375zM15.40625,26h5.21875c0.15234,0.27734 0.11328,0.38672 0.46875,0.71875c0.71484,0.66406 1.95313,1.28125 3.71875,1.28125c1.76563,0 2.97266,-0.61719 3.6875,-1.28125c0.35938,-0.33594 0.34766,-0.4375 0.5,-0.71875h5.1875c2.78516,0 5.96875,1.29688 8.0625,3.375c0.01172,0.01172 0.01953,0.01953 0.03125,0.03125l2.28125,2.53125l-0.5,0.40625c-0.38672,0.32813 -0.46484,0.89063 -0.1875,1.3125l1.5,2.25l-0.4375,0.125c-0.51953,0.13672 -0.83594,0.66406 -0.71875,1.1875l0.71875,3.46875l-1.0625,-0.09375c-0.26562,-0.01562 -0.52734,0.07031 -0.72656,0.25c-0.19922,0.17578 -0.32031,0.42188 -0.33594,0.6875l-0.21875,2.90625l-1.625,-0.3125c-0.36719,-0.06641 -0.74219,0.07813 -0.96875,0.375l-1.65625,2.25l-1.125,-0.6875c-0.35937,-0.22656 -0.82422,-0.20312 -1.15625,0.0625l-1.96875,1.59375l-1.9375,-1c-0.30859,-0.15625 -0.67187,-0.14453 -0.96875,0.03125l-1.84375,1.09375l-2.1875,-0.59375c-0.19141,-0.05859 -0.40234,-0.05859 -0.59375,0l-1.6875,0.59375l-1.65625,-0.59375c-0.19141,-0.05859 -0.40234,-0.05859 -0.59375,0l-2.15625,0.5625l-1.875,-1.0625c-0.29687,-0.17578 -0.66016,-0.1875 -0.96875,-0.03125l-1.9375,1l-1.96875,-1.59375c-0.33203,-0.26562 -0.79687,-0.28906 -1.15625,-0.0625l-1.09375,0.6875l-1.65625,-2.25c-0.23828,-0.32031 -0.64453,-0.46484 -1.03125,-0.375l-1.5625,0.34375l-0.21875,-2.84375c-0.02344,-0.26562 -0.15234,-0.51172 -0.35937,-0.67969c-0.20312,-0.17187 -0.46875,-0.25391 -0.73437,-0.22656l-1,0.09375l0.875,-3.5625c0.13672,-0.53516 -0.18359,-1.08203 -0.71875,-1.21875l-0.40625,-0.125l1.5625,-2.125c0.30469,-0.42187 0.23828,-1.00391 -0.15625,-1.34375l-0.6875,-0.5625l1.9375,-2.46875c2.09375,-2.09375 5.29297,-3.40625 8.09375,-3.40625zM13.6875,29.9375c-1.98437,0.08984 -3.6875,1.62109 -3.6875,3.65625v3.625c-0.00781,0.0625 -0.00781,0.125 0,0.1875v2c0,2.22656 2.08203,3.85547 4.3125,3.59375c0.01172,0 0.01953,0 0.03125,0c2.79297,-0.39844 7.16797,-1 10.65625,-1c3.46875,0 7.73047,0.69531 10.6875,1c2.23047,0.26172 4.3125,-1.36719 4.3125,-3.59375v-2c0,-0.03125 0,-0.0625 0,-0.09375v-3.625c0,-2.36719 -2.30078,-3.96094 -4.5625,-3.5625c-0.01172,0 -0.01953,0 -0.03125,0c-2.41406,0.48438 -6.06641,0.875 -10.40625,0.875c-4.33984,0 -7.99609,-0.39844 -10.375,-0.96875c-0.01953,-0.01172 -0.04297,-0.02344 -0.0625,-0.03125c-0.28906,-0.04687 -0.58984,-0.07422 -0.875,-0.0625zM13.78125,31.96875c0.14844,0 0.30859,0.00391 0.46875,0.03125c0.53125,0.125 1.12891,0.23828 1.75,0.34375v5.875c-0.71875,0.22656 -1.36719,0.42188 -1.90625,0.5c-0.01172,0 -0.01953,0 -0.03125,0c-0.62891,0.06641 -1.1875,-0.07812 -1.53125,-0.3125c-0.35156,-0.23828 -0.53125,-0.51172 -0.53125,-1c0,-0.03125 0,-0.0625 0,-0.09375v-3.71875c0,-0.9375 0.73828,-1.61328 1.78125,-1.625zM36.21875,32.0625c0.96875,0.02344 1.78125,0.72266 1.78125,1.625v3.53125c-0.00781,0.0625 -0.00781,0.125 0,0.1875c0,0.48828 -0.17969,0.76172 -0.53125,1c-0.34375,0.23438 -0.90234,0.37891 -1.53125,0.3125c-0.00781,0 -0.02344,0 -0.03125,0c-0.53906,-0.07812 -1.1875,-0.27344 -1.90625,-0.5v-5.8125c0.62891,-0.09375 1.24609,-0.20703 1.78125,-0.3125c0.14063,-0.02344 0.30078,-0.03516 0.4375,-0.03125zM18,32.59375c1.77344,0.20703 3.78906,0.33984 6,0.375v3.09375c-1.73047,0.15234 -3.45703,0.65625 -5.0625,1.1875c-0.33203,0.10938 -0.61719,0.20313 -0.9375,0.3125zM32,32.65625v4.90625c-0.32031,-0.10937 -0.60547,-0.20312 -0.9375,-0.3125c-1.60547,-0.53125 -3.33203,-1.03516 -5.0625,-1.1875v-3.09375c2.20703,-0.02734 4.23438,-0.125 6,-0.3125zM25,38c1.64453,0 3.57813,0.53906 5.4375,1.15625c1.85938,0.61719 3.625,1.30469 5.21875,1.53125c0.01172,0 0.01953,0 0.03125,0c0.61328,0.07031 1.1875,0 1.75,-0.15625c-0.37891,0.33984 -0.90234,0.54297 -1.53125,0.46875c-2.84375,-0.29297 -7.17578,-1 -10.90625,-1c-3.69922,0 -8.09766,0.59766 -10.90625,1c-0.01172,0 -0.01953,0 -0.03125,0c-0.61328,0.0625 -1.12891,-0.13672 -1.5,-0.46875c0.5625,0.15625 1.13672,0.22656 1.75,0.15625c0.01172,0 0.01953,0 0.03125,0c1.59375,-0.22656 3.35938,-0.91406 5.21875,-1.53125c1.85938,-0.61719 3.79297,-1.15625 5.4375,-1.15625z"></path></g></g></g></svg>