<svg xmlns="http://www.w3.org/2000/svg" xmlns:xlink="http://www.w3.org/1999/xlink" viewBox="0,0,256,256" width="250px" height="250px"><g transform="translate(40.96,40.96) scale(0.68,0.68)"><g fill="#b700ff" fill-rule="nonzero" stroke="none" stroke-width="1" stroke-linecap="butt" stroke-linejoin="miter" stroke-miterlimit="10" stroke-dasharray="" stroke-dashoffset="0" font-family="none" font-weight="none" font-size="none" text-anchor="none" style="mix-blend-mode: normal"><path d="M128,316.23529c-103.95948,0 -188.23529,-84.27581 -188.23529,-188.23529v0c0,-103.95948 84.27581,-188.23529 188.23529,-188.23529v0c103.95948,0 188.23529,84.27581 188.23529,188.23529v0c0,103.95948 -84.27581,188.23529 -188.23529,188.23529z" id="shape"></path></g><g fill="none" fill-rule="nonzero" stroke="none" stroke-width="none" stroke-linecap="butt" stroke-linejoin="none" stroke-miterlimit="10" stroke-dasharray="" stroke-dashoffset="0" font-family="none" font-weight="none" font-size="none" text-anchor="none" style="mix-blend-mode: normal"><path transform="scale(5.12,5.12)" d="M25.98828,4.77734c0.10547,0.45703 -0.125,0.92969 -0.55078,1.12891c-0.21484,0.10938 -0.42969,0.33203 -0.65625,0.46875c0.98828,-0.21875 2.05078,-0.375 3.21875,-0.375c5.53516,0 8.84375,5.46875 8.84375,5.46875c0.22656,0.35156 0.21094,0.80859 -0.04297,1.14063c-0.25,0.33594 -0.67969,0.47656 -1.08203,0.35938c0,0 -0.77734,-0.22266 -1.5625,-0.40625c1.60938,1.30078 2.87109,2.63281 3.5625,3.8125c1.14453,1.95703 1.28125,3.5625 1.28125,3.5625c0.03906,0.40625 -0.17578,0.79688 -0.54297,0.98438c-0.36328,0.18359 -0.80469,0.12891 -1.11328,-0.14062c0,0 -1.20703,-0.86328 -2.5625,-1.6875c0.10938,0.58594 0.21875,1.16797 0.25,1.6875c0.07813,1.30859 -0.03125,2.3125 -0.03125,2.3125c-0.04687,0.44922 -0.38672,0.8125 -0.83203,0.88672c-0.44922,0.07422 -0.88672,-0.16016 -1.07422,-0.57422c0,0 -1.63672,-3.53906 -4.65625,-5.78125l-0.03125,0.0625c-0.05078,0.08203 -0.11328,0.15625 -0.1875,0.21875c-0.125,0.11719 -0.41797,0.47656 -0.625,0.8125c-0.18359,0.29688 -0.20703,0.49219 -0.21875,0.53125c0.07813,0.11719 0.16797,0.28906 0.28125,0.46875c0.17969,0.28906 0.35938,0.63281 0.53125,1c0.57813,0.25 1.125,0.63281 1.625,1.125c0.81641,0.80469 1.55859,1.89453 2.15625,3.15625c0.55078,1.16016 0.90234,2.33203 1.03125,3.4375c5.85938,-1.53516 10.375,-5.21875 10.375,-5.21875c0.13281,-0.11328 0.29688,-0.1875 0.46875,-0.21875c0.33594,-0.05469 0.67578,0.06641 0.90234,0.31641c0.23047,0.25391 0.3125,0.60547 0.22266,0.93359c0,0 -2.125,8.41797 -8.40625,12.40625c-0.01172,0.00781 -0.01953,0.02344 -0.03125,0.03125c-0.01953,0.01172 -0.04297,0.01953 -0.0625,0.03125v-0.03125c-0.81641,0.60547 -1.80078,0.90625 -2.71875,1.09375c-0.64844,0.13281 -1.0625,0.16797 -1.5,0.21875c-0.34375,1.15234 -0.96484,3.65625 -1.125,7.90625l-0.03125,0.46875c-0.00781,0.30469 -0.15625,0.58594 -0.39844,0.76953c-0.24609,0.18359 -0.55859,0.24219 -0.85156,0.16797l-0.46875,-0.125c-4.59375,-1.21484 -7.30469,-3.15234 -8.84375,-4.8125l-0.90625,-0.28125c-0.13281,-0.03906 -1.10156,-0.33594 -2.3125,-0.8125c-1.10937,-0.4375 -2.32031,-1.02734 -3.25,-1.75c-0.01953,-0.00781 -0.04297,-0.01953 -0.0625,-0.03125c-0.00781,-0.00391 -0.02344,0.00391 -0.03125,0c-0.06641,-0.02344 -0.12891,-0.05469 -0.1875,-0.09375c0,0 -4.78125,-3.10547 -4.78125,-8.1875c0,-3.07031 1.04688,-6.36719 3.90625,-8.59375c-0.78125,-6.04297 -3.625,-11.15625 -3.625,-11.15625c-0.16016,-0.30078 -0.15625,-0.66016 0.00781,-0.95703c0.16406,-0.29297 0.46484,-0.48828 0.80469,-0.51172c0,0 2.03125,-0.11719 4.15625,0.96875c0.58203,-2.85547 2.50781,-4.73437 4.59375,-5.6875c2.47266,-1.13281 5.06641,-1.28125 6.15625,-1.28125c0.47266,-0.00781 0.88281,0.31641 0.98828,0.77734z" id="strokeMainSVG" fill="#c0bbbb" stroke="#c0bbbb" stroke-width="3" stroke-linejoin="round"></path><g transform="scale(5.12,5.12)" fill="#000000" stroke="none" stroke-width="1" stroke-linejoin="miter"><path d="M25,4c-1.08984,0 -3.68359,0.14844 -6.15625,1.28125c-2.08594,0.95313 -4.01172,2.83203 -4.59375,5.6875c-2.125,-1.08594 -4.15625,-0.96875 -4.15625,-0.96875c-0.33984,0.02344 -0.64062,0.21875 -0.80469,0.51172c-0.16406,0.29688 -0.16797,0.65625 -0.00781,0.95703c0,0 2.84375,5.11328 3.625,11.15625c-2.85937,2.22656 -3.90625,5.52344 -3.90625,8.59375c0,5.08203 4.78125,8.1875 4.78125,8.1875c0.05859,0.03906 0.12109,0.07031 0.1875,0.09375c0.00781,0.00391 0.02344,-0.00391 0.03125,0c0.01953,0.01172 0.04297,0.02344 0.0625,0.03125c0.92969,0.72266 2.14063,1.3125 3.25,1.75c1.21094,0.47656 2.17969,0.77344 2.3125,0.8125l0.90625,0.28125c1.53906,1.66016 4.25,3.59766 8.84375,4.8125l0.46875,0.125c0.29297,0.07422 0.60547,0.01563 0.85156,-0.16797c0.24219,-0.18359 0.39063,-0.46484 0.39844,-0.76953l0.03125,-0.46875c0.16016,-4.25 0.78125,-6.75391 1.125,-7.90625c0.4375,-0.05078 0.85156,-0.08594 1.5,-0.21875c0.91797,-0.1875 1.90234,-0.48828 2.71875,-1.09375v0.03125c0.01953,-0.01172 0.04297,-0.01953 0.0625,-0.03125c0.01172,-0.00781 0.01953,-0.02344 0.03125,-0.03125c6.28125,-3.98828 8.40625,-12.40625 8.40625,-12.40625c0.08984,-0.32812 0.00781,-0.67969 -0.22266,-0.93359c-0.22656,-0.25 -0.56641,-0.37109 -0.90234,-0.31641c-0.17187,0.03125 -0.33594,0.10547 -0.46875,0.21875c0,0 -4.51562,3.68359 -10.375,5.21875c-0.12891,-1.10547 -0.48047,-2.27734 -1.03125,-3.4375c-0.59766,-1.26172 -1.33984,-2.35156 -2.15625,-3.15625c-0.5,-0.49219 -1.04687,-0.875 -1.625,-1.125c-0.17187,-0.36719 -0.35156,-0.71094 -0.53125,-1c-0.11328,-0.17969 -0.20312,-0.35156 -0.28125,-0.46875c0.01172,-0.03906 0.03516,-0.23437 0.21875,-0.53125c0.20703,-0.33594 0.5,-0.69531 0.625,-0.8125c0.07422,-0.0625 0.13672,-0.13672 0.1875,-0.21875l0.03125,-0.0625c3.01953,2.24219 4.65625,5.78125 4.65625,5.78125c0.1875,0.41406 0.625,0.64844 1.07422,0.57422c0.44531,-0.07422 0.78516,-0.4375 0.83203,-0.88672c0,0 0.10938,-1.00391 0.03125,-2.3125c-0.03125,-0.51953 -0.14062,-1.10156 -0.25,-1.6875c1.35547,0.82422 2.5625,1.6875 2.5625,1.6875c0.30859,0.26953 0.75,0.32422 1.11328,0.14063c0.36719,-0.1875 0.58203,-0.57812 0.54297,-0.98437c0,0 -0.13672,-1.60547 -1.28125,-3.5625c-0.69141,-1.17969 -1.95312,-2.51172 -3.5625,-3.8125c0.78516,0.18359 1.5625,0.40625 1.5625,0.40625c0.40234,0.11719 0.83203,-0.02344 1.08203,-0.35937c0.25391,-0.33203 0.26953,-0.78906 0.04297,-1.14062c0,0 -3.30859,-5.46875 -8.84375,-5.46875c-1.16797,0 -2.23047,0.15625 -3.21875,0.375c0.22656,-0.13672 0.44141,-0.35937 0.65625,-0.46875c0.42578,-0.19922 0.65625,-0.67187 0.55078,-1.12891c-0.10547,-0.46094 -0.51562,-0.78516 -0.98828,-0.77734zM21.03125,6.71875c-0.77344,0.74219 -1.29297,1.39844 -1.6875,2.0625c-0.03516,0.02734 -0.05078,0.05469 -0.0625,0.0625c-0.07031,0.12109 -0.25781,0.25391 -0.3125,0.375c-0.18359,0.41797 -0.05469,0.90625 0.30469,1.1875c0.35938,0.28125 0.86719,0.28125 1.22656,0c0.03516,-0.02734 0.08203,-0.02344 0.09375,-0.03125c0.82813,-0.65625 3.74609,-2.375 7.40625,-2.375c2.20313,0 3.97266,1.21094 5.25,2.40625c-1.03906,-0.19141 -2.14453,-0.40625 -3.25,-0.40625c-0.47266,-0.00781 -0.88281,0.31641 -0.98828,0.77734c-0.10547,0.45703 0.125,0.92969 0.55078,1.12891c3.64844,1.75391 5.48438,3.83984 6.4375,5.46875c0.02344,0.03906 0.00781,0.02344 0.03125,0.0625c-0.85547,-0.53125 -1.74219,-1.10156 -2.71875,-1.40625c-0.40625,-0.13672 -0.85547,-0.00391 -1.11719,0.33594c-0.26172,0.33984 -0.27734,0.80859 -0.03906,1.16406c0.19141,0.30469 0.1875,0.78906 0.3125,1.1875c-1.60156,-1.96484 -4,-4.04687 -7.28125,-4.6875c-0.37109,-0.13672 -0.78906,-0.04297 -1.06641,0.24219c-0.27734,0.28516 -0.35547,0.70703 -0.20703,1.07422c0.14844,0.36719 0.50391,0.60938 0.89844,0.62109c0.67969,0.13281 1.30469,0.375 1.90625,0.65625l-0.03125,0.0625c-0.24609,0.25391 -0.54297,0.53125 -0.8125,0.96875c-0.03906,0.0625 -0.08984,0.12109 -0.125,0.1875c-0.43359,0.03125 -0.8125,0.18359 -1.09375,0.3125c-0.42578,0.19531 -0.71875,0.40625 -0.71875,0.40625c-0.44141,0.33594 -0.52344,0.96484 -0.1875,1.40625c0.33594,0.44141 0.96484,0.52344 1.40625,0.1875c0,0 0.13281,-0.08203 0.28125,-0.15625c0.0625,0.13281 0.09766,0.14453 0.125,0.1875c0.03125,0.04688 0.08594,0.09766 0.125,0.15625c0.06641,0.10156 0.13281,0.24219 0.21875,0.375c-0.65625,0.35547 -1.08594,1.00781 -1.28125,1.6875c-0.03516,0.12109 -0.07031,0.25 -0.09375,0.375c-0.96875,-0.64453 -1.99219,-1.03125 -3.03125,-1.03125c-0.63672,0 -1.28516,0.21484 -1.8125,0.5625c-0.00781,0.00391 -0.02344,-0.00391 -0.03125,0c-1.20312,0.83203 -1.64062,2.39453 -1.4375,4.0625c0.14844,1.23828 0.59375,2.53125 1.28125,3.78125c-2.66016,0.34766 -4.40234,1.94141 -5.21875,3.09375c-0.61328,0.86328 -1.01172,1.85938 -1.15625,2.875c-1.03906,-1.17187 -2.125,-2.89062 -2.125,-4.90625c0,-2.83984 0.88281,-5.58984 3.5625,-7.375c0.30859,-0.20703 0.47656,-0.56641 0.4375,-0.9375c-0.56641,-5.20312 -2.27344,-8.90234 -3.1875,-10.71875c0.76953,0.17188 1.70703,0.48047 2.5625,1.1875c0.30078,0.24219 0.71094,0.28906 1.05859,0.12109c0.34766,-0.16797 0.56641,-0.51953 0.56641,-0.90234c0,-3.08594 1.64844,-4.56641 3.6875,-5.5c0.44141,-0.20312 0.88672,-0.23828 1.34375,-0.375zM20.1875,18.21875c-0.49609,0.02344 -1.06641,0.14063 -1.625,0.4375c-2.60547,1.38672 -2.625,4.375 -2.625,4.375c-0.00391,0.35938 0.18359,0.69531 0.49609,0.87891c0.3125,0.17969 0.69531,0.17969 1.00781,0c0.3125,-0.18359 0.5,-0.51953 0.49609,-0.87891c0,0 0.00781,-1.79687 1.5625,-2.625c0.49609,-0.26562 1.59375,-0.09375 1.59375,-0.09375c0.35938,0.16016 0.77734,0.09375 1.07031,-0.16797c0.29297,-0.25781 0.40625,-0.66797 0.28906,-1.04297c-0.11328,-0.375 -0.4375,-0.64453 -0.82812,-0.69531c0,0 -0.39062,-0.14844 -0.96875,-0.1875c-0.14453,-0.00781 -0.30469,-0.00781 -0.46875,0zM27.03125,22.4375c0.20313,0 0.76953,0.24609 1.375,0.84375c0.60547,0.59766 1.23828,1.48828 1.75,2.5625c0.5,1.05469 0.79297,2.13281 0.875,3c-0.03906,0.00781 -0.08594,-0.00781 -0.125,0c0.01563,-0.19922 -0.03516,-0.44531 -0.1875,-0.8125c-0.54687,-1.30469 -1.5,-2.16797 -2.125,-1.90625c-0.23437,0.09766 -0.39453,0.32422 -0.46875,0.65625c-0.13672,-0.23047 -0.25391,-0.46094 -0.40625,-0.6875c-0.375,-0.55469 -0.76562,-1.08594 -1.1875,-1.5625c0,-0.01953 0,-0.04297 0,-0.0625c-0.09375,-0.64844 -0.0625,-1.19922 0.03125,-1.53125c0.09375,-0.33203 0.17969,-0.41797 0.28125,-0.46875c0.04297,-0.01953 0.11328,-0.03125 0.1875,-0.03125zM21.5,23.75c1.05469,0 3.12891,1.30078 4.5625,3.4375c0.69922,1.03906 1.18359,2.09375 1.4375,3.03125c0.01172,0.08594 0.03125,0.16797 0.0625,0.25c0.05859,0.25781 0.10156,0.51563 0.125,0.75c0.11328,1.13281 -0.16406,1.80469 -0.59375,2.09375c-0.1875,0.125 -0.41016,0.1875 -0.71875,0.1875c-0.25781,0 -0.58203,-0.10156 -0.9375,-0.25c0.21484,0.00391 0.39063,-0.03516 0.53125,-0.15625c0.5625,-0.48047 0.22656,-1.85156 -0.78125,-3.03125c-1.00781,-1.17969 -2.3125,-1.73047 -2.875,-1.25c-0.44531,0.38281 -0.29297,1.29688 0.28125,2.25c-0.27344,-0.3125 -0.53516,-0.63672 -0.78125,-1c-0.89062,-1.32422 -1.45312,-2.73828 -1.59375,-3.90625c-0.14844,-1.24609 0.13281,-1.89844 0.5625,-2.1875c0.18359,-0.125 0.41016,-0.21875 0.71875,-0.21875zM41.875,26.5625c-1.03125,2.57813 -2.80078,6.18359 -6.46875,8.46875c-0.02344,0.01953 -0.04297,0.03906 -0.0625,0.0625c-0.32422,0.25391 -1.18359,0.55078 -2,0.71875c-0.81641,0.16797 -1.57422,0.23047 -2,0.28125c-0.39062,0.04297 -0.72266,0.3125 -0.84375,0.6875c-0.30859,0.94141 -1.02344,3.85156 -1.28125,8.21875c-5.30469,-1.58203 -7.55078,-4.08203 -8.21875,-5.28125c-0.1875,-0.34375 -0.55859,-0.54297 -0.94531,-0.51953c-0.39062,0.02734 -0.73047,0.28125 -0.86719,0.64453c-0.35547,-0.125 -0.72266,-0.26562 -1.15625,-0.4375c-1.07031,-0.42187 -2.21094,-1.01953 -2.78125,-1.46875c-0.28906,-1.06641 -0.09375,-2.47656 0.65625,-3.53125c0.62891,-0.88672 2.13281,-2.34375 4.625,-2.34375c0.0625,-0.00391 0.125,-0.01562 0.1875,-0.03125c1.60156,2.0625 3.625,3.46875 5.65625,3.46875c0.64844,0 1.28125,-0.17578 1.8125,-0.53125c1.23438,-0.82812 1.62109,-2.37109 1.46875,-3.9375c5.65625,-0.39453 9.72266,-2.77734 12.21875,-4.46875zM29,26.96875c0.26172,-0.07812 0.57031,0.19141 0.6875,0.59375c0.11719,0.40234 0.01172,0.79688 -0.25,0.875c-0.26172,0.07813 -0.57031,-0.19141 -0.6875,-0.59375c-0.11719,-0.40234 -0.01172,-0.79687 0.25,-0.875zM23.125,30.0625c0.27734,0.00391 0.60547,0.23828 0.84375,0.59375c0.32031,0.47266 0.35156,0.99219 0.0625,1.1875c-0.28906,0.19531 -0.80469,-0.02734 -1.125,-0.5c-0.32031,-0.47266 -0.32031,-0.99219 -0.03125,-1.1875c0.07422,-0.05078 0.15625,-0.09375 0.25,-0.09375zM21.375,35.0625c-0.5,0.04297 -1.08203,0.19922 -1.65625,0.65625c-0.69531,0.55469 -0.6875,1.65625 -0.6875,1.65625c0,0 1.08984,-0.44531 1.65625,-0.65625c0.80859,0 2.00781,2.05469 3.34375,3.625c1.28516,1.50781 3.9375,2.53125 3.9375,2.53125c-0.02734,-3.46484 1,-6.09375 1,-6.09375c0,0 -0.47266,0.09375 -2.59375,0.09375c-2.12109,0 -4.6875,-0.44141 -4.6875,-0.75l1.125,-0.84375c0,0 -0.60547,-0.28906 -1.4375,-0.21875zM23.84375,37.53125c0.03125,-0.01562 0.04688,-0.00781 0.09375,0c0.66797,0.08594 1.25,0.8125 1.25,0.8125c0,0 0.10938,-0.55078 0.5,-0.46875c0.84766,0.17578 0.6875,2.75 0.6875,2.75c0,0 -1.08203,-0.20703 -1.96875,-1.40625c-0.28516,-0.38672 -0.39062,-0.50391 -0.59375,-0.8125c-0.08594,-0.12891 -0.19531,-0.75781 0.03125,-0.875z"></path></g></g></g></svg>