<svg width="60" height="60" viewBox="0 0 60 60" fill="none" xmlns="http://www.w3.org/2000/svg">
<g id="adventure-colour_svgrepo.com">
<path id="Vector" d="M3.02812 7.73063L30 0L56.9719 7.74V8.66062C56.9719 16.77 56.9512 24.8794 56.9719 32.9888C57.0131 45.8025 48.1256 56.4225 36.435 59.2781C33.8831 59.9025 31.3069 60.0562 28.6894 59.9813C24.3656 59.8631 20.3475 58.6594 16.8656 56.6344L16.9837 56.6981C9.74062 52.5788 5.21062 46.4362 3.52125 38.2481C3.20625 36.7537 3.02625 35.0362 3.02625 33.2775C3.02625 33.2156 3.02625 33.1538 3.02625 33.09V33.0994C3.03375 24.9906 3.03375 16.8813 3.02625 8.77125L3.02812 7.73063ZM6.6 10.4513V11.4394C6.6 18.5231 6.58875 25.605 6.60937 32.6888C6.60937 32.7394 6.60937 32.7975 6.60937 32.8575C6.60937 34.4944 6.76499 36.0956 7.06312 37.6444L7.03687 37.4869C8.14312 43.11 10.9031 47.7525 15.3675 51.3094C20.9194 55.725 27.2587 57.2831 34.2337 56.0531C39.9037 55.0556 44.5537 52.2337 48.1837 47.7788C51.7819 43.365 53.4056 38.2463 53.4037 32.5819C53.4037 25.4994 53.4037 18.4163 53.4037 11.3325C53.4037 11.0437 53.3812 10.7587 53.3644 10.4362L29.9944 3.73125L6.6 10.4513Z" fill="white"/>
<path id="Vector_2" d="M6.6 10.4512L30 3.73499L53.37 10.44C53.385 10.7606 53.4094 11.0475 53.4094 11.3362C53.4094 18.42 53.4094 25.5031 53.4094 32.5856C53.4094 38.25 51.7875 43.3687 48.1894 47.7825C44.5594 52.2375 39.9094 55.0594 34.2394 56.0569C27.2644 57.2869 20.925 55.725 15.3731 51.3131C10.9013 47.7544 8.14875 43.11 7.0425 37.4906C6.76687 36.0937 6.60938 34.4869 6.60938 32.8425C6.60938 32.7862 6.60938 32.73 6.60938 32.6737V32.6831C6.59063 25.5994 6.6 18.5175 6.6 11.4337V10.4512ZM18.8644 46.3462C20.5387 44.9906 33.2981 32.9662 33.6994 32.3606L29.9944 30.3881L17.1469 43.215L16.4344 42.9825C16.3931 42.7294 16.3575 42.5081 16.3069 42.1987L29.0719 29.4262L27.0581 25.6969L13.11 40.56C13.5225 42.0975 13.9237 43.59 14.34 45.1294L18.8644 46.3462ZM42.7388 35.04L25.9688 18.2512C26.4056 17.2762 26.8312 16.3312 27.2625 15.375C27.1444 15.3525 27.0863 15.3187 27.0431 15.3356C25.95 15.8231 24.8494 16.2937 23.7712 16.815C23.0681 17.1656 22.5731 17.7262 22.365 18.6787C23.4188 19.7794 24.5719 20.8987 25.7044 22.0294C26.8369 23.16 27.9412 24.2644 29.0588 25.3819L32.475 28.7981C33.5925 29.9156 34.7119 31.0319 35.8331 32.1469C36.9694 33.2819 38.1081 34.4206 39.2494 35.5631C38.8181 36.525 38.4075 37.4437 37.9313 38.5106C39.2588 37.9237 40.4531 37.4662 41.5763 36.8737C42.24 36.525 42.7931 35.9606 42.7406 35.0419L42.7388 35.04ZM44.4769 19.7531L39.7144 14.9644L32.385 22.3144L37.1775 27.1162L44.4769 19.7531ZM47.895 18.0956L41.43 11.6269C40.7644 11.9494 40.2337 12.4612 39.8963 13.0912L39.8869 13.11L46.4081 19.6294C47.07 19.2262 47.5594 18.8025 47.9006 18.0881L47.895 18.0956Z" fill="#E67419"/>
<path id="Vector_3" d="M18.8644 46.3463L14.3325 45.1256C13.9219 43.5881 13.5206 42.0956 13.1025 40.5562L27.0506 25.6875L29.0644 29.4169L16.305 42.1913C16.3556 42.5006 16.3931 42.7181 16.4325 42.975L17.145 43.2075L29.9925 30.3806L33.6975 32.3531C33.2944 32.9644 20.5369 44.9906 18.8625 46.3444L18.8644 46.3463Z" fill="white"/>
<path id="Vector_4" d="M42.7388 35.04C42.7856 35.9587 42.2325 36.5231 41.5706 36.8718C40.4475 37.4662 39.2531 37.9256 37.9256 38.5087C38.4019 37.4418 38.8125 36.5231 39.2438 35.5612C38.1013 34.4162 36.9625 33.2775 35.8275 32.145C34.6925 31.0125 33.575 29.8962 32.475 28.7962L29.0588 25.38C27.9413 24.2625 26.8231 23.145 25.7044 22.0275C24.5719 20.895 23.4206 19.7775 22.365 18.6768C22.5769 17.7243 23.0681 17.1581 23.7713 16.8131C24.8475 16.2862 25.95 15.8212 27.0431 15.3337C27.0844 15.3168 27.1444 15.3487 27.2625 15.3731C26.8313 16.3293 26.4075 17.2743 25.9688 18.2493L42.7388 35.04Z" fill="white"/>
<path id="Vector_5" d="M44.4825 19.7438L37.1775 27.1144L32.385 22.3144L39.72 14.9569L44.4825 19.7438Z" fill="white"/>
<path id="Vector_6" d="M47.9006 18.0881C47.5594 18.8025 47.0719 19.2262 46.4081 19.6293L39.8869 13.11C40.2337 12.4612 40.7644 11.9493 41.4094 11.6362L41.43 11.6268L47.9006 18.0881Z" fill="white"/>
</g>
</svg>
