<svg width="60" height="60" viewBox="0 0 60 60" fill="none" xmlns="http://www.w3.org/2000/svg">
<g id="beauty_svgrepo.com">
<path id="Vector" d="M40.7088 8.8319C41.2052 8.28868 52.8789 9.07542 52.3825 9.61677L39.8397 23.3304C39.7218 23.4595 39.5796 23.5641 39.4212 23.6382C39.2629 23.7123 39.0915 23.7545 38.9168 23.7624C38.7421 23.7702 38.5676 23.7435 38.4033 23.6838C38.2389 23.6242 38.0879 23.5327 37.959 23.4146L33.1749 19.0389C32.6335 18.5444 32.596 17.7014 33.0924 17.1601L40.7088 8.8319Z" fill="#FF4893"/>
<path id="Vector_2" d="M39.332 25.0162C40.2237 25.831 40.2855 27.2172 39.4706 28.1088L18.8319 50.6751C18.0152 51.5667 16.6309 51.6285 15.7374 50.8137L7.86625 43.6132C6.97274 42.7965 6.91093 41.4122 7.72764 40.5206L28.3664 17.9543C29.1812 17.0608 30.5674 16.999 31.459 17.8157L39.332 25.0162Z" fill="#8B87C1"/>
<path id="Vector_3" d="M17.2149 52.6977C16.3396 52.6977 15.501 52.3727 14.8538 51.7823L6.98136 44.5807C6.64098 44.2713 6.36535 43.8975 6.17043 43.4809C5.97552 43.0643 5.86519 42.6131 5.84584 42.1536C5.82395 41.6941 5.89356 41.2348 6.05065 40.8024C6.20773 40.3701 6.44915 39.9732 6.76089 39.6349L27.3989 17.0694C27.727 16.7107 28.1261 16.4242 28.5708 16.2281C29.0156 16.032 29.4963 15.9306 29.9824 15.9303C30.8592 15.9303 31.6982 16.2564 32.3449 16.8489L40.2171 24.0487C40.5572 24.358 40.8326 24.7318 41.0273 25.1483C41.222 25.5648 41.3321 26.0158 41.3513 26.4752C41.3732 26.9345 41.3037 27.3935 41.1471 27.8258C40.9904 28.258 40.7496 28.6549 40.4385 28.9935L19.7996 51.5602C19.4709 51.9183 19.0715 52.2043 18.6266 52.4001C18.1817 52.5959 17.701 52.6972 17.2149 52.6977ZM29.9824 18.5526C29.7329 18.5526 29.5029 18.6539 29.3354 18.8377L8.69533 41.4054C8.61716 41.4901 8.55658 41.5895 8.51713 41.6978C8.47767 41.8061 8.46012 41.9212 8.46549 42.0363C8.47042 42.1517 8.49819 42.2649 8.54719 42.3694C8.59619 42.4739 8.66546 42.5677 8.75096 42.6453L16.6223 49.846C16.7843 49.9937 16.9956 50.0754 17.2148 50.0753C17.3371 50.0759 17.4582 50.0508 17.5703 50.0015C17.6823 49.9523 17.7827 49.88 17.8649 49.7894L38.5029 27.2239C38.5808 27.1389 38.6411 27.0394 38.6803 26.9309C38.7195 26.8225 38.7368 26.7074 38.7313 26.5923C38.7266 26.4772 38.699 26.3641 38.6503 26.2597C38.6015 26.1553 38.5326 26.0616 38.4473 25.9841L30.5739 18.7833C30.4128 18.6348 30.2016 18.5524 29.9824 18.5526Z" fill="#4F46A3"/>
<path id="Vector_4" d="M38.857 25.0748C38.1971 25.0751 37.561 24.8281 37.0743 24.3824L32.2898 20.0063C32.0332 19.7729 31.8255 19.491 31.6787 19.1768C31.5319 18.8626 31.4489 18.5224 31.4345 18.1758C31.4181 17.8289 31.4708 17.4821 31.5894 17.1557C31.7081 16.8293 31.8903 16.5296 32.1257 16.2742L39.7409 7.94712C40.1834 7.46308 40.7804 7.33777 42.6434 7.33777C44.2579 7.33777 46.6742 7.4599 48.7987 7.6489C49.8724 7.74444 50.7929 7.85046 51.4607 7.95573C52.5033 8.12001 53.267 8.29384 53.5941 9.03731C53.6998 9.27904 53.733 9.54633 53.6894 9.80656C53.6459 10.0668 53.5276 10.3087 53.3489 10.5029L40.807 24.2154C40.5592 24.4859 40.258 24.702 39.9223 24.8499C39.5866 24.9979 39.2238 25.0745 38.857 25.0748ZM41.4176 9.99975L34.0601 18.0449C34.0603 18.0451 34.0596 18.0709 34.0599 18.0713L38.857 22.4525C38.8598 22.4527 38.8627 22.4522 38.8653 22.451C38.8678 22.4499 38.8701 22.448 38.8718 22.4458L49.8951 10.3935C47.8884 10.171 44.7792 9.96004 42.6436 9.96004C41.9972 9.95985 41.6229 9.98102 41.4176 9.99975ZM25.0505 39.3366C24.7962 39.3365 24.5474 39.2625 24.3344 39.1235C24.1214 38.9845 23.9535 38.7866 23.851 38.5539C23.7485 38.3211 23.7159 38.0636 23.7571 37.8127C23.7984 37.5617 23.9117 37.3282 24.0834 37.1405L33.9436 26.3583C34.0598 26.2312 34.1999 26.1283 34.3559 26.0553C34.5119 25.9824 34.6808 25.9409 34.8528 25.9333C35.0248 25.9256 35.1967 25.9519 35.3586 26.0106C35.5204 26.0694 35.6691 26.1595 35.7962 26.2757C35.9233 26.3919 36.0262 26.532 36.0992 26.688C36.1721 26.844 36.2136 27.0128 36.2213 27.1848C36.229 27.3568 36.2027 27.5287 36.144 27.6906C36.0852 27.8525 35.9952 28.0012 35.879 28.1283L26.0185 38.9103C25.8958 39.0449 25.7462 39.1523 25.5795 39.2257C25.4128 39.2991 25.2326 39.3369 25.0505 39.3366ZM21.1749 43.5757C20.9206 43.5756 20.6718 43.5016 20.4588 43.3627C20.2458 43.2238 20.0778 43.0259 19.9753 42.7932C19.8727 42.5605 19.84 42.303 19.8812 42.0521C19.9224 41.8012 20.0356 41.5676 20.2072 41.3799L20.8815 40.6419C21.1161 40.3852 21.443 40.2322 21.7904 40.2165C22.1378 40.2008 22.4772 40.3238 22.7339 40.5583C22.9906 40.7929 23.1437 41.1198 23.1594 41.4672C23.1751 41.8146 23.0522 42.154 22.8176 42.4107L22.1433 43.1488C22.0205 43.2835 21.871 43.391 21.7042 43.4646C21.5374 43.5381 21.3571 43.5759 21.1749 43.5757Z" fill="#4F46A3"/>
</g>
</svg>
