<svg width="12" height="11" viewBox="0 0 12 11" fill="none" xmlns="http://www.w3.org/2000/svg">
<g id="&#240;&#159;&#166;&#134; icon &#34;Angle Double Right&#34;">
<path id="Vector" d="M5.00909 5.37993L0.270347 1.85737C-0.0571838 1.6139 -0.0637438 1.21168 0.255716 0.960301L1.02368 0.349568C1.34309 0.0955464 1.86616 0.0870158 2.19025 0.330542L5.54917 2.82741L8.8249 0.222338C9.14431 -0.0316838 9.66738 -0.0402145 9.99147 0.203312L10.7858 0.785919C11.1133 1.02939 11.1199 1.43162 10.8004 1.68299L6.17905 5.3582C5.85968 5.61487 5.33662 5.6234 5.00909 5.37993ZM6.26196 10.4416L10.8833 6.76641C11.2027 6.51239 11.1962 6.11016 10.8687 5.86934L10.0812 5.28397C9.75368 5.0405 9.23062 5.04903 8.91464 5.303L5.63892 7.90807L2.27999 5.4112C1.95246 5.16773 1.4294 5.17626 1.11342 5.43023L0.345462 6.04096C0.0260445 6.29498 0.0326044 6.69721 0.360092 6.93803L5.09883 10.4606C5.41948 10.7042 5.94254 10.6956 6.26196 10.4416Z" fill="#E0E0E0"/>
</g>
</svg>
