<svg width="60" height="60" viewBox="0 0 60 60" fill="none" xmlns="http://www.w3.org/2000/svg">
<g id="expand-fullscreen_svgrepo.com" clip-path="url(#clip0_433_1415)">
<g id="Group">
<g id="Group_2">
<path id="Vector" d="M50.3241 25.5278C51.3946 26.5983 52.8182 27.188 54.3321 27.1879C55.8459 27.1879 57.2692 26.5983 58.3398 25.5278C59.4103 24.4571 60 23.0338 60 21.52V5.66789C59.9999 4.15395 59.4103 2.73059 58.3398 1.6602C57.2694 0.589805 55.8461 0.000117188 54.332 0L38.4803 0.000117188C36.9664 0.000117188 35.5431 0.589687 34.4725 1.6602C33.4021 2.73082 32.8123 4.15418 32.8123 5.66801C32.8123 7.18207 33.4018 8.60543 34.4723 9.67582L38.3905 13.594L30.0091 21.9754L21.6632 13.6295L25.5812 9.71145C26.6517 8.64105 27.2413 7.21758 27.2413 5.70328C27.2413 4.18934 26.6517 2.76609 25.5812 1.69594C24.5107 0.625313 23.0873 0.035625 21.5734 0.035625L5.72145 0.0355078C4.2075 0.035625 2.78426 0.625312 1.71375 1.69582C0.643242 2.76621 0.0536719 4.18945 0.0535547 5.70352V21.5555C0.0535547 23.0694 0.643125 24.4928 1.71375 25.5633C2.78426 26.6338 4.20762 27.2235 5.72145 27.2235C7.23551 27.2235 8.65887 26.6339 9.72938 25.5634L13.6473 21.6452L21.9933 29.9911L13.594 38.3904L9.67594 34.4723C8.60555 33.402 7.18207 32.8123 5.66789 32.8123C4.15406 32.8123 2.73082 33.4018 1.6602 34.4723C0.58957 35.5429 0 36.9661 0 38.48V54.3321C0.000117188 55.8461 0.589687 57.2694 1.6602 58.3398C2.73059 59.4101 4.15406 59.9999 5.66801 60L21.5201 59.9999C23.0339 59.9999 24.4571 59.4103 25.5279 58.3398C26.5983 57.2692 27.1881 55.8458 27.1881 54.332C27.1881 52.8179 26.5985 51.3946 25.528 50.3242L21.6098 46.4061L30.0091 38.0068L38.355 46.3526L34.4368 50.2706C33.3663 51.3413 32.7768 52.7648 32.7769 54.2787C32.7769 55.7925 33.3664 57.2159 34.4371 58.2864C35.5076 59.3568 36.9309 59.9464 38.4448 59.9464L54.2967 59.9466C55.8105 59.9464 57.2339 59.3569 58.3044 58.2863C59.3748 57.2159 59.9645 55.7925 59.9646 54.2787V54.2786V38.4265C59.9645 36.9127 59.3749 35.4893 58.3043 34.4188C57.2338 33.3483 55.8103 32.7586 54.2966 32.7586C52.7827 32.7586 51.3593 33.3482 50.2888 34.4187L46.3706 38.3368L38.0248 29.991L46.4061 21.6096L50.3241 25.5278ZM45.5606 19.074L35.4889 29.1458C35.0222 29.6127 35.0222 30.3695 35.4889 30.8362L45.5251 40.8725C45.7492 41.0966 46.0533 41.2226 46.3703 41.2226C46.6873 41.2226 46.9912 41.0966 47.2154 40.8725L51.9788 36.1091C52.5977 35.4902 53.4207 35.1492 54.2963 35.1492C55.1716 35.1492 55.9946 35.4901 56.6138 36.1092C57.2327 36.7283 57.5737 37.5513 57.5737 38.4267V54.2784C57.5736 55.1541 57.2326 55.9771 56.6138 56.5961C55.9946 57.2149 55.1716 57.5559 54.2963 57.5561L38.4444 57.5559C37.569 57.5559 36.746 57.215 36.127 56.5961C35.508 55.9771 35.167 55.1541 35.167 54.2786C35.1669 53.403 35.5079 52.58 36.1269 51.9609L40.8902 47.1976C41.1143 46.9734 41.2403 46.6695 41.2403 46.3525C41.2403 46.0355 41.1143 45.7316 40.8902 45.5073L30.8541 35.4711C30.3872 35.0045 29.6304 35.0045 29.1636 35.4711L19.0739 45.5609C18.6071 46.0277 18.6071 46.7845 19.0739 47.2513L23.8372 52.0146C24.4562 52.6336 24.7972 53.4566 24.7972 54.3321C24.7972 55.2075 24.4562 56.0305 23.8372 56.6496C23.2181 57.2685 22.3952 57.6095 21.5197 57.6095L5.66801 57.6096C4.7925 57.6095 3.96949 57.2686 3.35051 56.6496C2.73152 56.0306 2.39051 55.2075 2.39039 54.3321V38.4802C2.39051 37.6047 2.73141 36.7818 3.35039 36.1627C3.96949 35.5438 4.79238 35.2028 5.66777 35.2028C6.54352 35.2028 7.36652 35.5437 7.98539 36.1627L12.7486 40.926C12.9727 41.15 13.2768 41.276 13.5938 41.276C13.9107 41.276 14.2147 41.15 14.4389 40.926L24.5286 30.8362C24.7527 30.6121 24.8787 30.3081 24.8787 29.9911C24.8787 29.6741 24.7527 29.3702 24.5286 29.1459L14.4925 19.1098C14.0256 18.6431 13.2688 18.6431 12.802 19.1098L8.03871 23.8731C7.41973 24.492 6.59672 24.833 5.72121 24.833C4.84582 24.833 4.02293 24.4921 3.40383 23.8731C2.78484 23.2539 2.44383 22.4309 2.44383 21.5555V5.70363C2.44395 4.82813 2.78496 4.00512 3.40395 3.38613C4.02293 2.76715 4.84594 2.42613 5.72133 2.42602H21.5733C22.4488 2.42602 23.2717 2.76691 23.8908 3.38602C24.5096 4.00488 24.8507 4.82789 24.8507 5.70328C24.8508 6.57902 24.5099 7.40203 23.8908 8.02102L19.1275 12.7843C18.6607 13.2512 18.6607 14.008 19.1275 14.4748L29.1637 24.5111C29.3878 24.7351 29.6919 24.8611 30.0089 24.8611C30.3259 24.8611 30.6299 24.7351 30.8541 24.5111L40.9257 14.4393C41.3925 13.9724 41.3925 13.2156 40.9257 12.7488L36.1624 7.98539C35.5434 7.36641 35.2024 6.5434 35.2024 5.66789C35.2024 4.7925 35.5434 3.96949 36.1624 3.35039C36.7815 2.73152 37.6044 2.39051 38.4799 2.39051L54.3316 2.39039C55.2071 2.39051 56.0302 2.73141 56.6491 3.35039C57.2681 3.96938 57.6091 4.7925 57.6093 5.66789V21.5198C57.6093 22.3954 57.2682 23.2182 56.6493 23.8373C56.0302 24.4562 55.2073 24.7972 54.3318 24.7972C53.4563 24.7973 52.6332 24.4564 52.0141 23.8373L47.2509 19.074C47.0269 18.85 46.7228 18.724 46.4058 18.724C46.0888 18.724 45.7848 18.85 45.5606 19.074Z" fill="black"/>
</g>
</g>
<g id="Group_3">
<g id="Group_4">
<path id="Vector_2" d="M4.7809 13.9841C4.12078 13.9841 3.5857 14.5193 3.5857 15.1793V15.5249C3.5857 16.1849 4.12078 16.7201 4.7809 16.7201C5.44102 16.7201 5.97609 16.1849 5.97609 15.5249V15.1793C5.97609 14.5193 5.44102 13.9841 4.7809 13.9841Z" fill="black"/>
</g>
</g>
<g id="Group_5">
<g id="Group_6">
<path id="Vector_3" d="M4.7809 4.78088C4.12078 4.78088 3.5857 5.31608 3.5857 5.97608V11.6881C3.5857 12.3481 4.12078 12.8833 4.7809 12.8833C5.44102 12.8833 5.97609 12.3481 5.97609 11.6881V5.97608C5.97609 5.31608 5.44102 4.78088 4.7809 4.78088Z" fill="black"/>
</g>
</g>
</g>
<defs>
<clipPath id="clip0_433_1415">
<rect width="60" height="60" fill="white"/>
</clipPath>
</defs>
</svg>
