<svg width="41" height="41" viewBox="0 0 41 41" fill="none" xmlns="http://www.w3.org/2000/svg">
<g id="Vector">
<path id="Vector_2" fill-rule="evenodd" clip-rule="evenodd" d="M34.5059 2.98413C35.1395 2.80712 35.5814 2.63309 35.9434 2.45031C36.4506 2.19414 36.8712 1.88726 37.5357 1.37044C38.0941 0.936073 38.8097 0.898249 39.3988 1.27194C39.9879 1.64564 40.3553 2.37048 40.3553 3.15902C40.3553 5.47544 40.1104 7.37401 39.5435 9.04483C39.0664 10.4502 38.3963 11.5917 37.5946 12.6307C37.2561 19.8378 35.4861 25.4977 32.7801 29.7856C29.9754 34.2299 26.2438 37.076 22.3101 38.67C18.388 40.259 14.2439 40.6141 10.5313 40.076C6.84303 39.5415 3.43373 38.1023 1.05739 35.924C0.406631 35.3273 0.177874 34.2893 0.500049 33.3948C0.82223 32.5003 1.61468 31.9734 2.43082 32.1109C4.76894 32.5046 7.01964 31.878 8.87037 30.9822C8.50604 30.7486 8.16253 30.4958 7.84324 30.2352C6.15683 28.8592 4.7962 26.9911 4.18378 25.5474C3.93035 24.9501 3.92773 24.2474 4.17671 23.6476C4.30514 23.3379 4.49296 23.0741 4.721 22.8729C2.2587 20.4777 1.26456 17.1648 1.26456 14.9455C1.26456 14.2856 1.52252 13.6624 1.96383 13.2564C2.14939 13.0856 2.35866 12.9612 2.57926 12.8863C2.39501 12.2504 2.25202 11.6079 2.14304 10.9859C1.65983 8.22814 1.70272 5.11553 2.22793 2.63928C2.40766 1.7919 3.00573 1.15789 3.73964 1.03673C4.47353 0.915586 5.19638 1.33154 5.5667 2.08812C7.52581 6.09055 11.1394 8.53701 14.5025 9.98621C16.0836 10.6676 17.548 11.1017 18.6456 11.3687C18.8825 8.75294 19.5021 6.59582 20.4532 4.88252C21.708 2.62211 23.458 1.28474 25.3372 0.688407C28.5785 -0.340015 32.175 0.831645 34.5059 2.98413ZM18.0798 15.6068C16.8342 15.3119 15.1222 14.8167 13.2538 14.0116C10.7862 12.9483 7.9207 11.2902 5.52041 8.72191C5.56338 9.19452 5.62436 9.66313 5.70425 10.119C6.10652 12.4149 6.85401 13.7007 7.53221 14.1003C8.36168 14.5892 8.74607 15.7355 8.42431 16.7607C7.98868 18.1487 6.8429 18.2625 5.80185 17.9558C6.63915 19.4353 8.14413 20.9106 10.6543 21.4037C11.5201 21.5738 12.1592 22.4486 12.1734 23.483C12.1875 24.5175 11.5727 25.416 10.712 25.6189L9.12936 25.992C9.37147 26.24 9.63363 26.4832 9.91309 26.7112C11.1802 27.7452 12.4525 28.1912 13.5508 27.8676C14.3735 27.6252 15.229 28.0851 15.6129 28.9764C15.9968 29.8674 15.8072 30.9531 15.1558 31.5928C13.985 32.7414 12.6177 33.6631 11.2474 34.4279C10.6041 34.7871 9.88516 35.1416 9.10436 35.4536C9.70487 35.6047 10.3297 35.7285 10.975 35.8222C14.1943 36.2887 17.7774 35.9741 21.128 34.6167C24.467 33.2639 27.5534 30.8864 29.8625 27.2277C32.1681 23.5739 33.7772 18.5175 33.993 11.6518C34.0099 11.1113 34.1997 10.5983 34.5243 10.2158C35.3417 9.25219 36.0174 8.14771 36.3497 6.83305C35.7681 7.04677 35.1132 7.23175 34.3332 7.40752C33.7414 7.54086 33.1321 7.32007 32.7061 6.81799C31.3161 5.1796 28.567 4.10219 26.2825 4.82704C25.2074 5.16818 24.2301 5.9067 23.4961 7.22899C22.7469 8.57903 22.1736 10.6822 22.1736 13.8741C22.1736 14.4805 21.9556 15.0585 21.5738 15.4648C20.6683 16.4281 19.1445 15.8588 18.0798 15.6068Z" fill="#E0E0E0"/>
</g>
</svg>
