<svg width="60" height="60" viewBox="0 0 60 60" fill="none" xmlns="http://www.w3.org/2000/svg">
<g id="puzzle-toy_svgrepo.com" clip-path="url(#clip0_88_5867)">
<path id="Vector" d="M24.9997 27.9108C24.6079 28.05 24.1877 28.1251 23.749 28.1251C21.6781 28.1251 19.999 26.446 19.999 24.375C19.999 22.3042 21.6781 20.625 23.749 20.625C24.1875 20.625 24.6077 20.7001 24.9997 20.8392V12.4996H16.0349C16.1731 12.8916 16.2491 13.3118 16.2491 13.7503C16.2491 15.8212 14.5701 17.5003 12.4991 17.5003C10.4282 17.5003 8.74915 15.8213 8.74915 13.7503C8.74915 13.3118 8.82514 12.8916 8.96341 12.4996H1.24915V36.2494H9.58863C9.45036 36.6413 9.37436 37.0625 9.37436 37.5C9.37436 39.5709 11.0534 41.25 13.1244 41.25C15.1953 41.25 16.8744 39.5711 16.8744 37.5C16.8744 37.0625 16.7984 36.6413 16.6601 36.2494H24.9996V27.9108H24.9997Z" fill="#8CC153"/>
<path id="Vector_2" d="M47.5008 51.8757C45.428 51.8757 43.7506 50.1966 43.7506 48.1255C43.7506 46.0545 45.428 44.3755 47.5008 44.3755C47.9364 44.3755 48.3577 44.4506 48.7494 44.5897V36.2493H24.9997V60.0001H48.7494V51.6614C48.3576 51.7987 47.9363 51.8757 47.5008 51.8757Z" fill="#37BC9B"/>
<path id="Vector_3" d="M26.2494 44.3757C25.8109 44.3757 25.3907 44.4507 24.9997 44.5898V36.2494H1.24915V44.5898C1.64098 44.4506 2.06119 44.3757 2.49981 44.3757C4.57073 44.3757 6.24981 46.0546 6.24981 48.1257C6.24981 50.1967 4.57073 51.8758 2.49981 51.8758C2.0613 51.8758 1.64109 51.7988 1.24915 51.6615V60.0001H24.9998V51.6614C25.3907 51.7987 25.811 51.8757 26.2495 51.8757C28.3205 51.8757 29.9995 50.1966 29.9995 48.1255C29.9995 46.0545 28.3203 44.3757 26.2494 44.3757Z" fill="#4A89DC"/>
<path id="Vector_4" d="M58.7507 17.9105C58.3589 18.0488 57.9377 18.1246 57.4983 18.1246C55.4292 18.1246 53.7482 16.4465 53.7482 14.3746C53.7482 12.3037 55.4292 10.6245 57.4983 10.6245C57.9377 10.6245 58.3589 10.7005 58.7507 10.8388V2.50037H34.9982V10.8389C34.6083 10.7006 34.1889 10.6246 33.7495 10.6246C31.6786 10.6246 29.9994 12.3037 29.9994 14.3748C29.9994 16.4466 31.6785 18.1248 33.7495 18.1248C34.1889 18.1248 34.6083 18.0489 34.9982 17.9106V26.2501H43.3386C43.2013 26.6419 43.1245 27.0612 43.1245 27.5006C43.1245 29.5716 44.8034 31.2506 46.8745 31.2506C48.9455 31.2506 50.6245 29.5717 50.6245 27.5006C50.6245 27.0612 50.5475 26.6419 50.4103 26.2501H58.7507V17.9105Z" fill="#F6BB42"/>
<path id="Vector_5" d="M47.5008 49.3744C45.428 49.3744 43.7506 47.6953 43.7506 45.6243C43.7506 43.5535 45.428 41.8743 47.5008 41.8743C47.9364 41.8743 48.3577 41.9511 48.7494 42.0885V33.7499H24.9997V57.5004H48.7494V49.16C48.3576 49.2993 47.9363 49.3744 47.5008 49.3744Z" fill="#48CFAD"/>
<path id="Vector_6" d="M26.2494 41.8744C25.8109 41.8744 25.3907 41.9512 24.9997 42.0887V33.75H1.24915V42.0887C1.64098 41.9512 2.06119 41.8744 2.49981 41.8744C4.57073 41.8744 6.24981 43.5535 6.24981 45.6244C6.24981 47.6953 4.57073 49.3745 2.49981 49.3745C2.0613 49.3745 1.64109 49.2993 1.24915 49.1602V57.5007H24.9998V49.1602C25.3907 49.2995 25.811 49.3745 26.2495 49.3745C28.3205 49.3745 29.9995 47.6954 29.9995 45.6244C29.9994 43.5535 28.3203 41.8744 26.2494 41.8744Z" fill="#5D9CEC"/>
<path id="Vector_7" d="M58.7507 15.4111C58.3589 15.5493 57.9377 15.6252 57.4983 15.6252C55.4292 15.6252 53.7482 13.9462 53.7482 11.8752C53.7482 9.80418 55.4292 8.1251 57.4983 8.1251C57.9377 8.1251 58.3589 8.20109 58.7507 8.33937V0H34.9982V8.33948C34.6083 8.20121 34.1889 8.12521 33.7495 8.12521C31.6786 8.12521 29.9994 9.8043 29.9994 11.8753C29.9994 13.9464 31.6785 15.6253 33.7495 15.6253C34.1889 15.6253 34.6083 15.5495 34.9982 15.4112V23.7507H43.3386C43.2013 24.1406 43.1245 24.5618 43.1245 24.9993C43.1245 27.0702 44.8034 28.7495 46.8745 28.7495C48.9455 28.7495 50.6245 27.0704 50.6245 24.9993C50.6245 24.5618 50.5475 24.1406 50.4103 23.7507H58.7507V15.4111Z" fill="#FFCE54"/>
<path id="Vector_8" d="M24.9997 25.4113C24.6079 25.5486 24.1877 25.6256 23.749 25.6256C21.6781 25.6256 19.999 23.9465 19.999 21.8756C19.999 19.8047 21.6781 18.1246 23.749 18.1246C24.1875 18.1246 24.6077 18.2006 24.9997 18.3389V10.0004H16.0349C16.1731 10.3913 16.2491 10.8115 16.2491 11.25C16.2491 13.3209 14.5701 15 12.4991 15C10.4282 15 8.74915 13.321 8.74915 11.25C8.74915 10.8115 8.82514 10.3913 8.96341 10.0004H1.24915V33.7501H9.58863C9.45036 34.1419 9.37436 34.5612 9.37436 35.0006C9.37436 37.0716 11.0534 38.7506 13.1244 38.7506C15.1953 38.7506 16.8744 37.0717 16.8744 35.0006C16.8744 34.5612 16.7984 34.1419 16.6601 33.7501H24.9996V25.4113H24.9997Z" fill="#A0D468"/>
</g>
<defs>
<clipPath id="clip0_88_5867">
<rect width="60" height="60" fill="white"/>
</clipPath>
</defs>
</svg>
