<svg width="60" height="60" viewBox="0 0 60 60" fill="none" xmlns="http://www.w3.org/2000/svg">
<g id="recommended-like_svgrepo.com" clip-path="url(#clip0_88_5876)">
<path id="Vector" d="M30.4385 1.46994L34.1166 0.0801025C34.5268 -0.074936 34.9885 -0.00181121 35.3307 0.272406L38.399 2.73087C38.6348 2.91978 38.9314 3.01622 39.2332 3.00193L43.1607 2.81665C43.5989 2.79603 44.0152 3.00826 44.256 3.37482L46.4146 6.66109C46.5804 6.91363 46.8327 7.09691 47.1242 7.1766L50.9167 8.21394C51.3398 8.32972 51.6702 8.66007 51.7859 9.08311L52.8232 12.8756C52.9029 13.1671 53.0862 13.4194 53.3387 13.5852L56.625 15.7438C56.9916 15.9846 57.2038 16.401 57.1832 16.8391L56.9979 20.7667C56.9837 21.0685 57.0801 21.365 57.269 21.6008L59.7274 24.6693C60.0016 25.0116 60.0748 25.4732 59.9197 25.8835L58.5299 29.5616C58.4231 29.8441 58.4231 30.1559 58.5299 30.4386L59.9197 34.1166C60.0748 34.5269 60.0016 34.9886 59.7274 35.3308L57.269 38.3993C57.0801 38.6351 56.9836 38.9317 56.9979 39.2335L57.1832 43.161C57.2038 43.5992 56.9916 44.0155 56.625 44.2563L53.3387 46.4149C53.0862 46.5807 52.9029 46.833 52.8232 47.1245L51.7859 50.917C51.6701 51.3401 51.3398 51.6705 50.9167 51.7862L47.1242 52.8235C46.8327 52.9032 46.5804 53.0865 46.4146 53.339L44.256 56.6253C44.0152 56.9919 43.5989 57.2041 43.1607 57.1835L39.2332 56.9982C38.9315 56.984 38.6348 57.0804 38.399 57.2693L35.3305 59.7277C34.9882 60.0019 34.5266 60.0751 34.1163 59.92L30.4383 58.5302C30.1557 58.4234 29.8439 58.4234 29.5613 58.5302L25.8832 59.92C25.4729 60.0751 25.0112 60.0019 24.669 59.7277L21.6005 57.2693C21.3647 57.0804 21.0681 56.9839 20.7664 56.9982L16.8388 57.1835C16.4007 57.2041 15.9843 56.9919 15.7435 56.6253L13.5849 53.339C13.4191 53.0865 13.1668 52.9032 12.8753 52.8235L9.08282 51.7862C8.65977 51.6704 8.32931 51.3401 8.21364 50.917L7.1763 47.1245C7.09661 46.833 6.91333 46.5807 6.6608 46.4149L3.37452 44.2562C3.00796 44.0154 2.79573 43.599 2.81636 43.1609L3.00163 39.2333C3.01593 38.9316 2.91948 38.635 2.73058 38.3992L0.272579 35.3304C-0.0016385 34.9881 -0.0747632 34.5265 0.0802752 34.1163L1.47011 30.4382C1.57687 30.1557 1.57687 29.8439 1.47011 29.5612L0.0802752 25.8832C-0.0747632 25.4729 -0.0016385 25.0112 0.272579 24.669L2.73105 21.6007C2.91995 21.3649 3.0164 21.0683 3.0021 20.7665L2.81683 16.839C2.7962 16.4009 3.00843 15.9845 3.37499 15.7437L6.66126 13.5851C6.9138 13.4193 7.09708 13.167 7.17677 12.8755L8.21411 9.083C8.32989 8.65995 8.66024 8.32948 9.08329 8.21382L12.8758 7.17648C13.1673 7.09679 13.4196 6.91351 13.5854 6.66098L15.744 3.3747C15.9848 3.00814 16.4011 2.79591 16.8393 2.81654L20.7668 3.00181C21.0686 3.01611 21.3652 2.91966 21.601 2.73076L24.6695 0.272289C25.0118 -0.00192842 25.4734 -0.0750531 25.8837 0.0799853L29.5617 1.46982C29.844 1.5767 30.156 1.5767 30.4385 1.46994Z" fill="#FFC850"/>
<path id="Vector_2" d="M39.3631 51.847C22.1262 51.847 8.15282 37.8736 8.15282 20.6367C8.15282 16.0203 9.16309 11.6425 10.9619 7.69995L9.08329 8.21393C8.66024 8.32971 8.32977 8.66006 8.21411 9.08311L7.17665 12.8756C7.09697 13.1671 6.91369 13.4194 6.66115 13.5853L3.37475 15.7439C3.00819 15.9847 2.79597 16.4011 2.81659 16.8391L3.00187 20.7667C3.01604 21.0684 2.91972 21.365 2.73081 21.6008L0.272579 24.6693C-0.0016385 25.0116 -0.0747632 25.4732 0.0802752 25.8834L1.47011 29.5614C1.57687 29.844 1.57687 30.1558 1.47011 30.4385L0.0802752 34.1165C-0.0747632 34.5268 -0.0016385 34.9885 0.272579 35.3307L2.73105 38.3992C2.91995 38.635 3.0164 38.9316 3.0021 39.2333L2.81683 43.1609C2.7962 43.599 3.00843 44.0154 3.37499 44.2562L6.66126 46.4148C6.91369 46.5806 7.09708 46.8329 7.17677 47.1244L8.21423 50.9169C8.33001 51.3399 8.66036 51.6704 9.0834 51.7862L12.8759 52.8236C13.1674 52.9033 13.4197 53.0866 13.5855 53.3391L15.7441 56.6254C15.9849 56.992 16.4013 57.2041 16.8394 57.1836L20.7668 56.9983C21.0687 56.9841 21.3653 57.0805 21.6011 57.2694L24.6696 59.7278C25.0119 60.0019 25.4735 60.0752 25.8837 59.9201L29.5617 58.5302C29.8443 58.4234 30.1561 58.4234 30.4387 58.5302L34.1168 59.9201C34.5271 60.0752 34.9888 60.0021 35.3308 59.7278L38.3994 57.2694C38.6352 57.0806 38.9318 56.9841 39.2336 56.9983L43.161 57.1836C43.5992 57.2042 44.0156 56.992 44.2564 56.6254L46.415 53.3391C46.5808 53.0867 46.8331 52.9033 47.1245 52.8236L50.9171 51.7862C51.3401 51.6704 51.6706 51.3401 51.7862 50.9169L52.3002 49.0383C48.3575 50.8369 43.9795 51.847 39.3631 51.847Z" fill="#E1A546"/>
<path id="Vector_3" d="M29.9996 53.9273C43.2146 53.9273 53.9275 43.2145 53.9275 29.9995C53.9275 16.7845 43.2146 6.07166 29.9996 6.07166C16.7847 6.07166 6.07181 16.7845 6.07181 29.9995C6.07181 43.2145 16.7847 53.9273 29.9996 53.9273Z" fill="#FFDC64"/>
<path id="Vector_4" d="M41.5042 47.0727C41.2983 46.7981 40.9775 46.6379 40.6345 46.6267C27.7948 46.1995 17.5158 35.6612 17.5158 22.7176C17.5158 19.2562 18.2591 15.9729 19.5865 13.0062C20.0066 12.067 18.9572 11.1331 18.095 11.6944C11.5001 15.9878 7.36403 23.7365 8.27914 32.3812C9.31156 42.1334 16.9556 50.1273 26.652 51.5933C32.004 52.4025 37.0207 51.2293 41.1639 48.7415C41.7485 48.3906 41.9132 47.6182 41.5042 47.0727Z" fill="#FFC850"/>
<g id="Group">
<path id="Vector_5" d="M22.7177 42.4839H16.4756C15.901 42.4839 15.4352 42.0181 15.4352 41.4436V24.7981C15.4352 24.2235 15.901 23.7577 16.4756 23.7577H22.7177C23.2922 23.7577 23.758 24.2235 23.758 24.7981V41.4436C23.758 42.0182 23.2922 42.4839 22.7177 42.4839Z" fill="white"/>
<path id="Vector_6" d="M45.5969 26.0903C45.4614 24.7366 44.2216 23.7577 42.8612 23.7577H34.0053C36.4271 21.797 38.0715 19.1668 38.3095 17.0038C38.486 15.3999 37.3769 13.8763 35.7634 13.8613C34.3165 13.848 33.1387 15.0051 33.1387 16.4488C33.1387 17.3855 31.1058 20.1652 27.2958 21.402C27.2902 21.4038 27.2848 21.4056 27.2792 21.4075C26.388 21.7023 25.8387 22.6037 25.8387 23.5424V40.403C25.8387 40.9776 26.3045 41.4434 26.8791 41.4434H40.2976C41.334 41.4434 42.2947 40.735 42.4611 39.712C42.6731 38.4084 41.6725 37.282 40.4089 37.282H41.3381C42.3745 37.282 43.3352 36.5736 43.5016 35.5505C43.7136 34.2469 42.713 33.1205 41.4494 33.1205H42.3786C43.415 33.1205 44.3757 32.4121 44.5421 31.3891C44.7541 30.0855 43.7536 28.9591 42.4899 28.9591H43.0101C44.5345 28.9595 45.7528 27.6472 45.5969 26.0903Z" fill="white"/>
</g>
<g id="Group_2">
<path id="Vector_7" d="M39.3631 35.2014C38.7886 35.2014 38.3228 35.6672 38.3228 36.2418C38.3228 36.8164 38.7886 37.2822 39.3631 37.2822H40.4087H41.3379C42.3743 37.2822 43.335 36.5738 43.5014 35.5508C43.5206 35.4318 43.5194 35.3167 43.5193 35.2014H39.3631Z" fill="#FFFAB4"/>
<path id="Vector_8" d="M39.3631 31.0402C38.7886 31.0402 38.3228 31.506 38.3228 32.0805C38.3228 32.6551 38.7886 33.1209 39.3631 33.1209H41.4491H42.3782C43.4146 33.1209 44.3753 32.4125 44.5418 31.3895C44.561 31.2705 44.5598 31.1555 44.5597 31.0402H39.3631Z" fill="#FFFAB4"/>
<path id="Vector_9" d="M39.3631 26.8788C38.7886 26.8788 38.3228 27.3446 38.3228 27.9192C38.3228 28.4937 38.7886 28.9596 39.3631 28.9596H42.4893H43.0095C44.2661 28.9596 45.3011 28.0635 45.5441 26.8789L39.3631 26.8788Z" fill="#FFFAB4"/>
<path id="Vector_10" d="M30.0001 39.363C28.851 39.363 27.9195 38.4315 27.9195 37.2824V24.463C27.9195 24.0457 28.1692 23.6726 28.5518 23.5062C30.2548 22.7652 35.6134 19.9129 36.1776 14.3119C36.007 14.1333 35.9177 14.0401 35.7471 13.8615C34.3077 13.8569 33.1389 15.0106 33.1389 16.4491C33.1389 17.3857 31.1059 20.1654 27.2959 21.4022C26.4266 21.6876 25.8388 22.4991 25.8388 23.4141V40.4034C25.8388 40.978 26.3046 41.4438 26.8792 41.4438H40.2977C41.4461 41.4438 42.5014 40.5741 42.4863 39.3705C42.4836 39.3677 42.4817 39.3659 42.479 39.3631H30.0001V39.363Z" fill="#FFFAB4"/>
<path id="Vector_11" d="M19.5966 40.4033C18.4475 40.4033 17.516 39.4718 17.516 38.3226V23.7578H16.4756C15.901 23.7578 15.4352 24.2236 15.4352 24.7982V41.4437C15.4352 42.0182 15.901 42.4841 16.4756 42.4841H22.7177C23.2922 42.4841 23.758 42.0182 23.758 41.4437V40.4033H19.5966Z" fill="#FFFAB4"/>
</g>
<path id="Vector_12" d="M19.5963 39.8828C20.4581 39.8828 21.1567 39.1841 21.1567 38.3223C21.1567 37.4605 20.4581 36.7618 19.5963 36.7618C18.7344 36.7618 18.0358 37.4605 18.0358 38.3223C18.0358 39.1841 18.7344 39.8828 19.5963 39.8828Z" fill="#FFDC64"/>
</g>
<defs>
<clipPath id="clip0_88_5876">
<rect width="60" height="60" fill="white"/>
</clipPath>
</defs>
</svg>
