<svg width="46" height="48" viewBox="0 0 46 48" fill="none" xmlns="http://www.w3.org/2000/svg">
<g id="&#240;&#159;&#166;&#134; icon &#34;Angle Double Right&#34;">
<path id="Vector" d="M25.4151 24.0641L44.8049 40.2237C46.145 41.3406 46.1527 43.1557 44.8219 44.272L41.6225 46.9843C40.2918 48.1125 38.1323 48.1216 36.8064 47.0046L23.0624 35.5503L9.41543 47.12C8.0847 48.2481 5.92525 48.2572 4.59928 47.1402L1.34879 44.467C0.00861134 43.3501 0.000967769 41.5349 1.33174 40.4187L20.5848 24.0964C21.9154 22.9563 24.0749 22.9472 25.4151 24.0641ZM20.4882 1.15611L1.23514 17.4784C-0.0955826 18.6065 -0.0879391 20.4217 1.25219 21.5267L4.47432 24.212C5.81449 25.3289 7.97395 25.3198 9.29046 24.1917L22.9375 12.6221L36.6814 24.0764C38.0216 25.1933 40.181 25.1842 41.4975 24.0561L44.6969 21.3437C46.0277 20.2156 46.02 18.4004 44.6799 17.2954L25.2901 1.13588C23.9783 0.0188548 21.8189 0.0279481 20.4882 1.15611Z" fill="#E0E0E0"/>
</g>
</svg>
