<svg width="46" height="48" viewBox="0 0 46 48" fill="none" xmlns="http://www.w3.org/2000/svg">
<g id="&#240;&#159;&#166;&#134; icon &#34;Angle Double Right&#34;">
<path id="Vector" d="M25.2534 23.8556L44.6432 40.0152C45.9834 41.1321 45.9911 42.9472 44.6603 44.0635L41.4609 46.7758C40.1302 47.904 37.9707 47.9131 36.6447 46.7961L22.9008 35.3419L9.2538 46.9115C7.92308 48.0396 5.76363 48.0487 4.43766 46.9317L1.18717 44.2585C-0.15301 43.1416 -0.160653 41.3264 1.17012 40.2102L20.4231 23.8879C21.7538 22.7478 23.9133 22.7387 25.2534 23.8556ZM20.3265 0.947609L1.07352 17.2699C-0.257204 18.398 -0.24956 20.2132 1.09057 21.3182L4.31269 24.0035C5.65287 25.1204 7.81232 25.1113 9.12884 23.9832L22.7758 12.4136L36.5198 23.8679C37.86 24.9848 40.0194 24.9757 41.3359 23.8476L44.5353 21.1352C45.866 20.0071 45.8584 18.1919 44.5183 17.0869L25.1285 0.927388C23.8167 -0.189641 21.6573 -0.180548 20.3265 0.947609Z" fill="#E0E0E0"/>
</g>
</svg>
