<svg xmlns="http://www.w3.org/2000/svg" xmlns:xlink="http://www.w3.org/1999/xlink" viewBox="0,0,256,256" width="80px" height="80px"><g transform="translate(40.96,40.96) scale(0.68,0.68)"><g fill="#b700ff" fill-rule="nonzero" stroke="none" stroke-width="1" stroke-linecap="butt" stroke-linejoin="miter" stroke-miterlimit="10" stroke-dasharray="" stroke-dashoffset="0" font-family="none" font-weight="none" font-size="none" text-anchor="none" style="mix-blend-mode: normal"><path d="M128,310.58824c-100.8407,0 -182.58824,-81.74754 -182.58824,-182.58824v0c0,-100.8407 81.74754,-182.58824 182.58824,-182.58824v0c100.8407,0 182.58824,81.74754 182.58824,182.58824v0c0,100.8407 -81.74754,182.58824 -182.58824,182.58824z" id="shape"></path></g><g fill="none" fill-rule="nonzero" stroke="none" stroke-width="1" stroke-linecap="butt" stroke-linejoin="miter" stroke-miterlimit="10" stroke-dasharray="" stroke-dashoffset="0" font-family="none" font-weight="none" font-size="none" text-anchor="none" style="mix-blend-mode: normal"><g transform="scale(6.4,6.4)"><path d="M28.997,23.331c-0.053,-1.786 -0.466,-6.289 -3.176,-9.098c-1.494,-1.55 -3.452,-2.335 -5.821,-2.335c-2.369,0 -4.327,0.785 -5.821,2.335c-2.71,2.809 -3.123,7.312 -3.176,9.098l-4.613,-1.861c-0.88,-0.801 -2.89,-2.918 -2.89,-5.542c0,-3.707 5.673,-14.424 16.5,-14.424c10.827,0 16.5,10.717 16.5,14.424c0,2.624 -2.01,4.741 -2.89,5.542z" fill="#f76d6d"></path><path d="M20,2.004c10.325,0 16,10.458 16,13.923c0,2.413 -1.942,4.445 -2.661,5.113l-3.879,1.565c-0.147,-2.149 -0.768,-6.116 -3.279,-8.719c-1.592,-1.65 -3.672,-2.487 -6.181,-2.487c-2.509,0 -4.589,0.837 -6.181,2.487c-2.511,2.603 -3.133,6.57 -3.279,8.719l-3.879,-1.565c-0.719,-0.668 -2.661,-2.699 -2.661,-5.113c0,-3.465 5.675,-13.923 16,-13.923M20,1.004c-11.035,0 -17,10.953 -17,14.923c0,3.367 3.051,5.895 3.117,5.972l5.383,2.172c0,0 -0.421,-11.672 8.5,-11.672c8.921,0 8.5,11.672 8.5,11.672l5.383,-2.172c0.066,-0.077 3.117,-2.605 3.117,-5.972c0,-3.97 -5.965,-14.923 -17,-14.923z" fill="#ab3434"></path><path d="M8.186,29.5c-2.277,0 -4.686,-3.014 -4.686,-5.863c0,-2.06 1.313,-3.137 2.611,-3.137c1.132,0 2.924,0.484 4.249,1.849l0.118,0.12l-0.71,6.893l-0.365,0.087c-0.209,0.045 -0.542,0.051 -0.773,0.051z" fill="#deb974"></path><path d="M6.111,21c1.021,0 2.631,0.433 3.846,1.652l-0.649,6.306l-0.004,0.001c-0.19,0.041 -0.555,0.041 -0.674,0.041h-0.445c-2.034,0 -4.185,-2.757 -4.185,-5.364c0,-1.811 1.094,-2.636 2.111,-2.636M6.111,20c-1.541,0 -3.111,1.247 -3.111,3.636c0,3.104 2.563,6.364 5.185,6.364h0.445c0.341,0 0.652,-0.013 0.889,-0.065l0.711,-0.169l0.77,-7.48l-0.281,-0.286c-1.437,-1.481 -3.378,-2 -4.608,-2z" fill="#967a44"></path><path d="M7.5,23h3c0.825,0 1.5,0.675 1.5,1.5v0c0,0.825 -0.675,1.5 -1.5,1.5h-3c-0.825,0 -1.5,-0.675 -1.5,-1.5v0c0,-0.825 0.675,-1.5 1.5,-1.5z" fill="#967a44"></path><path d="M31.37,29.5c-0.231,0 -0.564,-0.006 -0.78,-0.054l-0.358,-0.085l-0.71,-6.893l0.116,-0.118c1.327,-1.366 3.119,-1.851 4.251,-1.851c1.298,0 2.611,1.077 2.611,3.137c0,2.85 -2.408,5.863 -4.686,5.863h-0.444z" fill="#deb974"></path><path d="M33.889,21c1.017,0 2.111,0.825 2.111,2.636c0,2.607 -2.151,5.364 -4.185,5.364h-0.445c-0.12,0 -0.484,0 -0.658,-0.038l-0.02,-0.005l-0.649,-6.306c1.211,-1.217 2.824,-1.651 3.846,-1.651M33.889,20c-1.23,0 -3.17,0.519 -4.607,2l-0.282,0.286l0.77,7.48l0.711,0.169c0.237,0.052 0.549,0.065 0.889,0.065h0.444c2.623,0 5.186,-3.26 5.186,-6.364c0,-2.389 -1.57,-3.636 -3.111,-3.636z" fill="#967a44"></path><path d="M32.5,23h-3c-0.825,0 -1.5,0.675 -1.5,1.5v0c0,0.825 0.675,1.5 1.5,1.5h3c0.825,0 1.5,-0.675 1.5,-1.5v0c0,-0.825 -0.675,-1.5 -1.5,-1.5z" fill="#967a44"></path><path d="M20,38.5c-2.631,0 -3.864,-0.657 -5.17,-1.354c-0.395,-0.209 -0.743,-0.395 -1.136,-0.575c-0.226,-0.104 -0.497,-0.212 -0.799,-0.329c-0.652,-0.258 -6.396,-2.68 -6.396,-7.95c0,-1.717 0.818,-3.11 1.476,-4.229c0.178,-0.304 0.341,-0.583 0.47,-0.836l0.055,-0.107v-4.966c0.437,-0.587 3.126,-3.654 11.5,-3.654c8.434,0 11.068,3.058 11.5,3.651v4.969l0.055,0.106c0.129,0.253 0.292,0.532 0.47,0.836c0.657,1.119 1.476,2.513 1.476,4.229c0,5.271 -5.743,7.692 -6.397,7.951c-0.3,0.116 -0.571,0.224 -0.798,0.328c-0.392,0.181 -0.74,0.366 -1.079,0.546c-1.363,0.727 -2.596,1.384 -5.227,1.384z" fill="#f5ce85"></path><path d="M20,15v0c7.684,0 10.405,2.618 11,3.326v4.674v0.24l0.109,0.214c0.133,0.261 0.301,0.549 0.485,0.863c0.626,1.067 1.406,2.395 1.406,3.975c0,4.012 -3.822,6.594 -6.076,7.485c-0.313,0.122 -0.596,0.234 -0.826,0.341c-0.409,0.188 -0.763,0.376 -1.106,0.558l-0.058,0.031c-1.249,0.665 -2.429,1.293 -4.934,1.293c-2.506,0 -3.685,-0.628 -4.936,-1.295l-0.056,-0.03c-0.343,-0.182 -0.697,-0.371 -1.103,-0.557c-0.234,-0.108 -0.516,-0.221 -0.825,-0.341c-2.258,-0.892 -6.08,-3.473 -6.08,-7.485c0,-1.58 0.78,-2.908 1.406,-3.975c0.184,-0.314 0.352,-0.602 0.485,-0.863l0.109,-0.214v-0.24v-4.672c0.611,-0.725 3.338,-3.328 11,-3.328M20,14c-9.689,0 -12,4 -12,4c0,1.313 0,4.36 0,5c-0.604,1.188 -2,2.958 -2,5.292c0,4.85 4.626,7.591 6.713,8.416c0.291,0.113 0.554,0.217 0.771,0.318c0.404,0.186 0.762,0.378 1.11,0.563c1.303,0.693 2.65,1.411 5.406,1.411c2.756,0 4.103,-0.718 5.405,-1.412c0.348,-0.185 0.706,-0.377 1.11,-0.563c0.217,-0.101 0.48,-0.204 0.771,-0.318c2.088,-0.824 6.714,-3.565 6.714,-8.415c0,-2.333 -1.396,-4.104 -2,-5.292c0,-0.64 0,-3.688 0,-5c0,0 -2.311,-4 -12,-4z" fill="#967a44"></path><path d="M18,22.49c0,1.376 -0.895,2.49 -2,2.49c-1.105,0 -2,-1.115 -2,-2.49c0,-1.375 0.895,-2.49 2,-2.49c1.105,0 2,1.115 2,2.49z" fill="#ffffff"></path><path d="M17.674,23.132c0,1.032 -0.599,1.868 -1.337,1.868c-0.738,0 -1.337,-0.836 -1.337,-1.868c0,-1.032 0.599,-1.868 1.337,-1.868c0.738,0.001 1.337,0.836 1.337,1.868z" fill="#4e7ab5"></path><path d="M17.674,23.664c0,0.737 -0.402,1.336 -0.898,1.336c-0.495,0 -0.898,-0.598 -0.898,-1.336c0,-0.737 0.402,-1.336 0.898,-1.336c0.495,0 0.898,0.599 0.898,1.336z" fill="#36404d"></path><path d="M8,25c1.328,-2.266 3,-3 3,-3v-5.5h-3c0,0 0,6.925 0,8.5zM18.009,29.661c-0.554,0 -1.068,0.169 -1.494,0.457c-0.078,-0.223 -0.197,-0.425 -0.328,-0.617c-3.156,-0.324 -5.345,-1.343 -5.935,-2.501c-0.172,0.373 -0.252,1.004 -0.252,1.326c0,1.168 0.567,2.151 1.351,2.513c-0.003,0.053 -0.016,0.103 -0.016,0.157c0,1.474 1.195,2.67 2.67,2.67c0.554,0 1.068,-0.169 1.494,-0.457c0.364,1.04 1.345,1.791 2.51,1.791c1.474,0 2.67,-1.195 2.67,-2.67c0,-1.474 -1.196,-2.669 -2.67,-2.669z" fill="#4d3e40"></path><path d="M20,4c2.761,0 5,2.239 5,5c0,2.761 -2.239,5 -5,5zM20,4c-2.761,0 -5,2.239 -5,5c0,2.761 2.239,5 5,5z" fill="#ffffff"></path><path d="M20,7.375l1.255,-1.375c0,0 2.777,4.443 2.745,4.531c-0.033,0.088 -1.49,0.469 -1.49,0.469l-1.402,-3.496l-1.108,1.121zM20,7.375l-1.255,-1.375c0,0 -2.777,4.443 -2.745,4.531c0.033,0.088 1.49,0.469 1.49,0.469l1.402,-3.496l1.108,1.121z" fill="#f76d6d"></path><path d="M14.4,19c1.581,0 3.6,1 3.6,1c0,0 -1.558,-3 -3.6,-3c-1.793,0 -2.4,3 -2.4,3c0,0 1.195,-1 2.4,-1z" fill="#4d3e40"></path><path d="M24,20c1.105,0 2,1.115 2,2.49c0,1.375 -0.895,2.49 -2,2.49c-1.105,0 -2,-1.115 -2,-2.49c0,-1.375 0.895,-2.49 2,-2.49z" fill="#ffffff"></path><path d="M23.663,21.265c0.738,0 1.337,0.836 1.337,1.868c0,1.032 -0.599,1.867 -1.337,1.867c-0.738,0 -1.337,-0.836 -1.337,-1.868c0,-1.032 0.599,-1.867 1.337,-1.867z" fill="#4e7ab5"></path><path d="M23.224,22.328c0.495,0 0.898,0.598 0.898,1.336c0,0.737 -0.402,1.336 -0.898,1.336c-0.495,0 -0.898,-0.598 -0.898,-1.336c0,-0.737 0.403,-1.336 0.898,-1.336z" fill="#36404d"></path><path d="M32,25c-1.328,-2.266 -3,-3 -3,-3v-5.5h3c0,0 0,6.925 0,8.5zM21.991,29.661c0.554,0 1.068,0.169 1.494,0.457c0.078,-0.223 0.197,-0.425 0.328,-0.617c3.156,-0.324 5.345,-1.343 5.935,-2.501c0.172,0.373 0.252,1.004 0.252,1.326c0,1.168 -0.567,2.151 -1.351,2.513c0.003,0.053 0.016,0.103 0.016,0.157c0,1.474 -1.195,2.67 -2.67,2.67c-0.554,0 -1.068,-0.169 -1.494,-0.457c-0.364,1.04 -1.345,1.791 -2.51,1.791c-1.474,0 -2.67,-1.195 -2.67,-2.67c0,-1.474 1.196,-2.669 2.67,-2.669z" fill="#4d3e40"></path><g fill="#4d3e40"><path d="M25.6,19c-1.581,0 -3.6,1 -3.6,1c0,0 1.558,-3 3.6,-3c1.793,0 2.4,3 2.4,3c0,0 -1.195,-1 -2.4,-1z"></path></g><g><path d="M20,23.5c-2.48528,0 -4.5,1.79086 -4.5,4c0,2.20914 2.01472,4 4.5,4c2.48528,0 4.5,-1.79086 4.5,-4c0,-2.20914 -2.01472,-4 -4.5,-4z" fill="#fff7d1"></path><path d="M20,24c2.206,0 4,1.57 4,3.5c0,1.93 -1.794,3.5 -4,3.5c-2.206,0 -4,-1.57 -4,-3.5c0,-1.93 1.794,-3.5 4,-3.5M20,23c-2.758,0 -5,2.019 -5,4.5c0,2.481 2.242,4.5 5,4.5c2.758,0 5,-2.019 5,-4.5c0,-2.481 -2.242,-4.5 -5,-4.5z" fill="#ba9b48"></path></g><g><path d="M7.991,20.5c-0.665,0 -1.202,-0.558 -1.533,-1.026c-0.05,-0.06 -0.958,-1.074 -0.958,-2.599c0.058,-0.752 3.443,-6.375 14.5,-6.375c11.057,0 14.442,5.623 14.5,6.381c0,1.536 -0.907,2.532 -0.916,2.542c-0.372,0.518 -0.907,1.074 -1.578,1.077c-0.2,-0.037 -0.727,-0.592 -1.086,-1.147c-0.99,-1.192 -3.96,-3.853 -10.92,-3.853c-6.96,0 -9.93,2.661 -10.884,3.805c-0.398,0.606 -0.928,1.164 -1.125,1.195z" fill="#ffcaca"></path><path d="M20,11v0c10.281,0 13.74,4.933 14,5.928c-0.021,1.287 -0.781,2.152 -0.783,2.154l-0.045,0.049l-0.038,0.054c-0.198,0.28 -0.582,0.736 -1.02,0.806c-0.191,-0.144 -0.54,-0.55 -0.774,-0.91l-0.033,-0.05l-0.039,-0.046c-0.999,-1.199 -4.098,-3.985 -11.268,-3.985c-7.17,0 -10.269,2.786 -11.268,3.984l-0.039,0.046l-0.033,0.05c-0.229,0.353 -0.583,0.765 -0.775,0.91c-0.438,-0.07 -0.822,-0.526 -1.02,-0.806l-0.039,-0.054l-0.038,-0.043c-0.007,-0.007 -0.767,-0.871 -0.788,-2.159c0.26,-0.995 3.719,-5.928 14,-5.928M20,10c-11.558,0 -15,5.971 -15,6.875c0,1.756 1.05,2.887 1.05,2.887c0.575,0.814 1.253,1.238 1.95,1.238c0.609,0 1.5,-1.375 1.5,-1.375c0.573,-0.687 3.304,-3.625 10.5,-3.625c7.196,0 9.927,2.938 10.5,3.625c0,0 0.891,1.375 1.5,1.375c0.697,0 1.375,-0.424 1.95,-1.238c0,0 1.05,-1.132 1.05,-2.887c0,-0.904 -3.442,-6.875 -15,-6.875z" fill="#ab3434"></path></g></g></g></g></svg>