<svg width="27" height="27" viewBox="0 0 27 27" fill="none" xmlns="http://www.w3.org/2000/svg">
<g id="Group">
<path id="Vector" d="M22.7814 3.87526C20.2747 1.3776 16.9409 0.00140384 13.389 0C6.07057 0 0.114258 5.92739 0.11133 13.2131C0.11039 15.542 0.721782 17.8154 1.88368 19.8192L0 26.6667L7.03866 24.8292C8.97802 25.8818 11.1614 26.4366 13.3837 26.4376H13.3892C20.7068 26.4376 26.6637 20.5094 26.6667 13.2236C26.6681 9.6929 25.2883 6.37291 22.7814 3.87526ZM13.3892 24.2058H13.3846C11.4044 24.2051 9.46213 23.6756 7.76774 22.675L7.36473 22.437L3.18789 23.5274L4.30278 19.4745L4.04031 19.059C2.93562 17.3103 2.35217 15.2892 2.35304 13.214C2.35543 7.15842 7.30612 2.23175 13.3934 2.23175C16.341 2.23287 19.1119 3.37682 21.1955 5.45275C23.2791 7.52867 24.4259 10.2882 24.4248 13.2228C24.4225 19.2789 19.4718 24.2058 13.3892 24.2058ZM19.4425 15.9802C19.1107 15.8149 17.4797 15.0162 17.1755 14.906C16.8714 14.7958 16.6503 14.7407 16.4291 15.0713C16.208 15.4018 15.5722 16.1455 15.3786 16.3658C15.185 16.5862 14.9915 16.6138 14.6598 16.4485C14.328 16.2832 13.259 15.9346 11.9918 14.8097C11.0056 13.9343 10.3398 12.853 10.1462 12.5224C9.95272 12.1919 10.1257 12.0132 10.2917 11.8486C10.441 11.7007 10.6235 11.463 10.7894 11.2702C10.9552 11.0774 11.0106 10.9396 11.1211 10.7193C11.2317 10.4989 11.1764 10.3061 11.0935 10.1408C11.0106 9.97557 10.347 8.35042 10.0706 7.68936C9.80129 7.04553 9.52773 7.13264 9.32408 7.12253C9.13078 7.11295 8.90939 7.11094 8.68825 7.11094C8.46711 7.11094 8.10766 7.19355 7.80358 7.5241C7.49949 7.85465 6.64244 8.65344 6.64244 10.2786C6.64244 11.9037 7.8312 13.4737 7.99709 13.694C8.16298 13.9144 10.3365 17.2494 13.6645 18.6795C14.4561 19.0197 15.074 19.2229 15.5558 19.3751C16.3506 19.6263 17.0738 19.5909 17.6455 19.5059C18.2829 19.4111 19.6083 18.7072 19.8848 17.9359C20.1613 17.1646 20.1613 16.5036 20.0784 16.3659C19.9954 16.2281 19.7743 16.1455 19.4425 15.9802Z" fill="#E0E0E0"/>
</g>
</svg>
