<svg width="60" height="60" viewBox="0 0 60 60" fill="none" xmlns="http://www.w3.org/2000/svg">
<g id="action_svgrepo.com">
<path id="Vector" d="M13.606 34.0446L17.14 38.0498L19.0249 41.7409L19.4568 44.9608L20.0065 50.3011L17.6505 48.7697L15.1767 46.5315L13.0563 44.1754L11.6427 41.0734L10.9751 37.6179L11.9175 35.0262L13.606 34.0446Z" fill="#FFCE54"/>
<path id="Vector_2" d="M19.6924 51.479C19.48 51.479 19.2733 51.4101 19.1034 51.2827C18.2003 50.6151 10.2683 44.4502 10.0327 38.3638C9.98646 37.3884 10.1682 36.4156 10.5636 35.5227C10.9589 34.6298 11.5569 33.8413 12.3102 33.2198C12.5081 33.048 12.7661 32.9618 13.0275 32.9802C13.2889 32.9986 13.5324 33.1201 13.7042 33.318C13.876 33.5159 13.9622 33.7739 13.9438 34.0353C13.9254 34.2968 13.8039 34.5402 13.606 34.712C13.0646 35.1405 12.6328 35.6915 12.3461 36.3195C12.0594 36.9476 11.9259 37.6348 11.9568 38.3246C11.9568 42.5261 17.4542 47.6308 20.2421 49.7513C20.407 49.8749 20.5287 50.0472 20.5902 50.2439C20.6516 50.4406 20.6496 50.6516 20.5844 50.847C20.5193 51.0425 20.3943 51.2125 20.2271 51.333C20.06 51.4534 19.8592 51.5183 19.6531 51.5183L19.6924 51.479Z" fill="#FFCE54"/>
<path id="Vector_3" d="M17.1401 38.1283C14.8505 36.0971 13.0136 33.6071 11.7485 30.82C10.4835 28.0329 9.81867 25.011 9.79712 21.9503C9.79712 18.2985 13.2526 12.9974 23.4228 10.9948C33.5929 8.99219 42.7814 13.0367 45.3338 16.021C49.4699 19.4765 49.2212 33.7697 44.5877 58.9006C44.5407 59.1883 44.392 59.4496 44.1686 59.637C43.9452 59.8244 43.662 59.9253 43.3704 59.9215H21.0275C20.7359 59.9253 20.4527 59.8244 20.2293 59.637C20.0059 59.4496 19.8572 59.1883 19.8102 58.9006C20.0437 55.2394 20.0437 51.567 19.8102 47.9058C19.6566 44.4889 18.7445 41.149 17.1401 38.1283Z" fill="#DA4453"/>
<path id="Vector_4" d="M31.4725 48.8481H46.5903L45.3338 56.034H31.4725C30.5248 56.034 29.6159 55.6575 28.9458 54.9874C28.2757 54.3173 27.8992 53.4084 27.8992 52.4607C27.894 51.9882 27.9826 51.5193 28.1599 51.0812C28.3371 50.6431 28.5995 50.2446 28.9318 49.9086C29.2642 49.5726 29.6598 49.3059 30.0959 49.1239C30.5321 48.9418 30.9999 48.8481 31.4725 48.8481Z" fill="#FFCE54"/>
<path id="Vector_5" d="M5.55628 11.7801H2.96466V9.8168H4.02487C6.50916 10.1846 9.04668 9.87249 11.3678 8.91366C12.1139 8.44245 13.2526 6.91104 14.4699 2.47387L14.7448 1.37439L16.6296 1.88486L16.3154 2.82727C15.8853 5.71968 14.5036 8.3863 12.3887 10.4058C10.2725 11.459 7.91516 11.9332 5.55628 11.7801Z" fill="#DA4453"/>
<path id="Vector_6" d="M22.873 6.43979C20.0695 6.07628 17.3846 5.08287 15.0196 3.53403L14.1165 3.02356L15.0589 1.33508L15.9228 1.80628C18.0392 3.28956 20.4989 4.20857 23.0694 4.47644C25.4844 3.76921 27.6581 2.41065 29.3521 0.549738L30.0982 0L31.3547 1.49215L30.4516 2.12042C28.4763 4.17644 25.9786 5.65602 23.2264 6.40052L22.873 6.43979Z" fill="#DA4453"/>
<path id="Vector_7" d="M37.4018 7.57853H36.695C33.7707 6.52773 31.2089 4.66083 29.3128 2.19895L28.6453 1.49215L30.0589 0L30.7264 0.706806C34.2997 4.39791 36.106 5.30105 37.0092 5.45812C37.9123 5.61518 39.7971 5.26178 43.9202 2.82723L44.7448 2.31675L45.7264 4.00524L44.8626 4.51571C42.6627 6.12985 40.1013 7.18135 37.4018 7.57853Z" fill="#DA4453"/>
<path id="Vector_8" d="M52.8338 12.5654C51.3384 12.6661 49.8413 12.3964 48.4751 11.7801C46.3112 10.0875 44.7431 7.74916 43.9987 5.10466L43.6453 4.20152L45.4516 3.45544L45.805 4.35859C47.3757 8.28529 48.6322 9.5811 49.4175 10.013C51.4671 10.7655 53.6919 10.902 55.8181 10.4057H56.7997L57.0353 12.3691H56.0537C54.9852 12.4986 53.91 12.5641 52.8338 12.5654Z" fill="#DA4453"/>
</g>
</svg>
