<svg width="60" height="60" viewBox="0 0 60 60" fill="none" xmlns="http://www.w3.org/2000/svg">
<g id="arcade_svgrepo.com">
<path id="Vector" d="M55.1639 33.3931C59.7439 41.9666 59.4254 51.0703 54.454 53.7265C49.7242 56.2515 42.4899 52.035 37.8519 44.2407C35.3775 44.664 32.6801 44.8982 29.8572 44.8982C27.0324 44.8982 24.335 44.664 21.8606 44.2407C17.2244 52.035 9.9883 56.2515 5.25851 53.7265C0.287076 51.0703 -0.0313652 41.9666 4.54857 33.3931C9.12851 24.8176 16.8723 20.0204 21.8456 22.6766C23.2486 23.4277 24.2807 24.6921 24.9382 26.3124C26.5192 26.1551 28.1657 26.0708 29.8572 26.0708C31.5487 26.0708 33.1952 26.1551 34.7762 26.3124C35.4318 24.6921 36.4639 23.4277 37.8688 22.6766C42.8402 20.0204 50.584 24.8176 55.1639 33.3931ZM51.7491 35.0003C51.7491 33.7153 50.7057 32.6738 49.4226 32.6738C48.1376 32.6738 47.0961 33.7153 47.0961 35.0003C47.0961 36.2853 48.1376 37.3268 49.4226 37.3268C50.7057 37.3268 51.7491 36.2853 51.7491 35.0003ZM42.3832 35.0003C42.3832 33.7153 41.3398 32.6738 40.0567 32.6738C38.7717 32.6738 37.7302 33.7153 37.7302 35.0003C37.7302 36.2853 38.7717 37.3268 40.0567 37.3268C41.3398 37.3268 42.3832 36.2853 42.3832 35.0003ZM21.3398 36.9315V32.9491H17.1308V28.7382H13.1465V32.9491H8.93745V36.9315H13.1465V41.1424H17.1308V36.9315H21.3398Z" fill="#FFB578"/>
<path id="Vector_2" d="M49.4226 32.6738C50.7058 32.6738 51.7491 33.7153 51.7491 35.0003C51.7491 36.2853 50.7058 37.3268 49.4226 37.3268C48.1376 37.3268 47.0961 36.2853 47.0961 35.0003C47.0961 33.7153 48.1376 32.6738 49.4226 32.6738Z" fill="#5FCEFF"/>
<path id="Vector_3" d="M40.0567 32.6738C41.3398 32.6738 42.3832 33.7153 42.3832 35.0003C42.3832 36.2853 41.3398 37.3268 40.0567 37.3268C38.7717 37.3268 37.7302 36.2853 37.7302 35.0003C37.7302 33.7153 38.7717 32.6738 40.0567 32.6738Z" fill="#FF4893"/>
<path id="Vector_4" d="M21.3398 32.9492V36.9316H17.1308V41.1425H13.1465V36.9316H8.93744V32.9492H13.1465V28.7383H17.1308V32.9492H21.3398Z" fill="#8B87C1"/>
<path id="Vector_5" d="M51.4179 55.7695H51.4174C46.6126 55.7691 41.1 51.8339 37.1941 45.6745C34.8354 46.0296 32.3718 46.2093 29.8574 46.2093C27.3419 46.2093 24.8777 46.0295 22.5188 45.6745C18.6141 51.8343 13.1015 55.7695 8.29552 55.7695C6.97211 55.7695 5.74255 55.4712 4.64112 54.8833C1.80662 53.3688 0.16252 50.1518 0.0113544 45.8247C-0.13082 41.7567 1.0697 37.1225 3.39189 32.7754C7.2707 25.5128 13.4657 20.6332 18.8073 20.6332C20.1312 20.6332 21.3614 20.9316 22.4632 21.5199C23.8295 22.2516 24.9485 23.418 25.7384 24.9241C28.4796 24.7058 31.2337 24.7058 33.9748 24.9241C34.764 23.4179 35.8832 22.2514 37.2503 21.5205C38.3523 20.9318 39.582 20.6334 40.906 20.6334C46.247 20.6334 52.4416 25.5128 56.3204 32.7755C58.6424 37.1226 59.8431 41.7569 59.701 45.8249C59.5498 50.1521 57.9059 53.369 55.0718 54.8831C53.9703 55.4712 52.7408 55.7695 51.4179 55.7695ZM37.8525 42.9295C38.0797 42.9296 38.303 42.9887 38.5005 43.101C38.698 43.2133 38.8629 43.3751 38.979 43.5703C42.3873 49.2982 47.3861 53.1466 51.4176 53.147H51.4179C52.3054 53.147 53.1193 52.9527 53.8366 52.5699C58.0893 50.2977 58.1678 41.7987 54.0076 34.0109C50.6254 27.6784 45.2381 23.2556 40.9064 23.2556C40.0181 23.2556 39.2042 23.4499 38.487 23.8331C37.3925 24.4185 36.5529 25.418 35.9921 26.8044C35.8859 27.0672 35.6973 27.2885 35.4547 27.435C35.2122 27.5816 34.9286 27.6456 34.6465 27.6174C31.5095 27.3051 28.2047 27.3051 25.0682 27.6174C24.7865 27.6453 24.5033 27.5814 24.2609 27.4351C24.0185 27.2888 23.83 27.068 23.7234 26.8057C23.1607 25.4186 22.3206 24.4183 21.2269 23.8328C20.5104 23.4503 19.6961 23.2558 18.8076 23.2558C14.4753 23.2558 9.0875 27.6784 5.70528 34.0111C1.54531 41.7989 1.6236 50.2979 5.87667 52.5702C6.59354 52.9529 7.40763 53.1472 8.2957 53.1472C12.3283 53.1472 17.3269 49.2985 20.734 43.5707C20.8693 43.3427 21.0706 43.1612 21.3113 43.0501C21.552 42.939 21.8207 42.9036 22.082 42.9486C24.5594 43.3723 27.1754 43.5872 29.8576 43.5872C32.5385 43.5872 35.1538 43.3723 37.6313 42.9486C37.7049 42.9355 37.7791 42.9295 37.8525 42.9295Z" fill="#4F46A3"/>
<path id="Vector_6" d="M17.1309 42.4536H13.1467C12.9745 42.4536 12.804 42.4197 12.6449 42.3538C12.4858 42.2879 12.3413 42.1913 12.2195 42.0696C12.0977 41.9478 12.0012 41.8033 11.9353 41.6442C11.8694 41.4851 11.8355 41.3146 11.8355 41.1424V38.2429H8.93763C8.58987 38.2429 8.25636 38.1047 8.01045 37.8588C7.76455 37.6129 7.6264 37.2794 7.6264 36.9317V32.9491C7.6264 32.7769 7.66032 32.6064 7.72622 32.4473C7.79211 32.2882 7.8887 32.1437 8.01045 32.0219C8.13221 31.9001 8.27676 31.8036 8.43585 31.7377C8.59493 31.6718 8.76544 31.6379 8.93763 31.6379H11.8355V28.7384C11.8355 28.3906 11.9736 28.0571 12.2195 27.8112C12.4654 27.5653 12.7989 27.4271 13.1467 27.4271H17.1309C17.4787 27.4271 17.8122 27.5653 18.0581 27.8112C18.304 28.0571 18.4422 28.3906 18.4422 28.7384V31.6379H21.34C21.6878 31.6379 22.0213 31.776 22.2672 32.0219C22.5131 32.2678 22.6512 32.6013 22.6512 32.9491V36.9317C22.6512 37.1039 22.6173 37.2744 22.5514 37.4335C22.4855 37.5925 22.3889 37.7371 22.2672 37.8588C22.1454 37.9806 22.0009 38.0772 21.8418 38.1431C21.6827 38.209 21.5122 38.2429 21.34 38.2429H18.4422V41.1424C18.4422 41.3146 18.4083 41.4851 18.3424 41.6442C18.2765 41.8033 18.1799 41.9478 18.0581 42.0696C17.9364 42.1913 17.7918 42.2879 17.6327 42.3538C17.4736 42.4197 17.3031 42.4536 17.1309 42.4536ZM14.4577 39.8312H15.8195V36.9317C15.8195 36.5839 15.9577 36.2504 16.2036 36.0045C16.4495 35.7586 16.783 35.6204 17.1308 35.6204H20.0286V34.2603H17.1308C16.783 34.2603 16.4495 34.1222 16.2036 33.8763C15.9577 33.6304 15.8195 33.2968 15.8195 32.9491V30.0496H14.4577V32.9491C14.4577 33.2968 14.3196 33.6304 14.0737 33.8763C13.8278 34.1222 13.4943 34.2603 13.1465 34.2603H10.2487V35.6204H13.1465C13.4943 35.6204 13.8278 35.7586 14.0737 36.0045C14.3196 36.2504 14.4577 36.5839 14.4577 36.9317V39.8312ZM40.0567 38.6379C38.0509 38.6379 36.4189 37.006 36.4189 35.0002C36.4189 32.9944 38.0509 31.3625 40.0567 31.3625C42.0625 31.3625 43.6944 32.9944 43.6944 35.0002C43.6944 37.006 42.0625 38.6379 40.0567 38.6379ZM40.0567 33.985C39.497 33.985 39.0414 34.4405 39.0414 35.0002C39.0414 35.5599 39.497 36.0155 40.0567 36.0155C40.6164 36.0155 41.0719 35.5599 41.0719 35.0002C41.0719 34.4405 40.6164 33.985 40.0567 33.985ZM49.4226 38.6379C47.4168 38.6379 45.7849 37.006 45.7849 35.0002C45.7849 32.9944 47.4168 31.3625 49.4226 31.3625C51.4284 31.3625 53.0603 32.9944 53.0603 35.0002C53.0603 37.006 51.4284 38.6379 49.4226 38.6379ZM49.4226 33.985C48.8629 33.985 48.4073 34.4405 48.4073 35.0002C48.4073 35.5599 48.8629 36.0155 49.4226 36.0155C49.9823 36.0155 50.4379 35.5599 50.4379 35.0002C50.4379 34.4405 49.9823 33.985 49.4226 33.985ZM29.8572 26.0782C29.5094 26.0782 29.1759 25.9401 28.93 25.6942C28.6841 25.4483 28.5459 25.1148 28.5459 24.767C28.5459 19.1937 33.0804 14.6593 38.6535 14.6593H48.3697C48.7174 14.6593 49.051 14.7974 49.2969 15.0434C49.5428 15.2893 49.6809 15.6228 49.6809 15.9705C49.6809 16.3183 49.5428 16.6518 49.2969 16.8977C49.051 17.1436 48.7174 17.2818 48.3697 17.2818H38.6535C34.5261 17.2818 31.1682 20.6396 31.1682 24.767C31.1683 24.9392 31.1344 25.1097 31.0685 25.2688C31.0027 25.4279 30.9061 25.5725 30.7843 25.6942C30.6626 25.816 30.5181 25.9126 30.359 25.9785C30.1999 26.0444 30.0294 26.0783 29.8572 26.0782Z" fill="#4F46A3"/>
<path id="Vector_7" d="M47.9952 17.2668C47.6475 17.2668 47.314 17.1286 47.0681 16.8827C46.8222 16.6368 46.684 16.3033 46.684 15.9556C46.684 15.6078 46.8222 15.2743 47.0681 15.0284C47.314 14.7825 47.6475 14.6443 47.9952 14.6443C49.9748 14.6443 51.5517 14.2227 52.5555 13.4249C53.378 12.7723 53.7946 11.8969 53.7946 10.823C53.7946 8.43022 51.6266 7.00173 47.9952 7.00173H25.1667C24.819 7.00173 24.4855 6.86358 24.2395 6.61768C23.9936 6.37178 23.8555 6.03826 23.8555 5.6905C23.8555 5.34274 23.9936 5.00923 24.2395 4.76332C24.4855 4.51742 24.819 4.37927 25.1667 4.37927H47.9952C54.2116 4.37927 56.4171 7.85047 56.4171 10.823C56.4171 12.6837 55.6249 14.3369 54.1865 15.4786C52.6938 16.6649 50.6106 17.2668 47.9952 17.2668Z" fill="#4F46A3"/>
</g>
</svg>
