<svg width="60" height="60" viewBox="0 0 60 60" fill="none" xmlns="http://www.w3.org/2000/svg">
<g id="casual-placement_svgrepo.com">
<path id="Vector" d="M5.25194 26.5116H54.7481C56.4178 26.5116 57.7714 27.8652 57.7714 29.5348V56.9767C57.7714 58.6463 56.4178 60 54.7481 60H5.25194C3.58227 60 2.2287 58.6463 2.2287 56.9767V29.5348C2.2287 27.8651 3.58227 26.5116 5.25194 26.5116Z" fill="#656D78"/>
<path id="Vector_2" d="M39.3217 9.14728C39.3217 4.09538 35.2264 0 30.1745 0C25.1225 0 21.0272 4.09538 21.0272 9.14728C21.0272 13.1829 23.6407 16.6079 27.2675 17.8227V34.6899H33.2365V17.7688C36.7823 16.5094 39.3217 13.1251 39.3217 9.14728Z" fill="#ED5564"/>
<path id="Vector_3" d="M37.4225 46.2015C37.4225 47.1483 37.6089 48.0859 37.9711 48.9606C38.3334 49.8354 38.8644 50.6302 39.5339 51.2997C40.2033 51.9692 40.9981 52.5003 41.8728 52.8626C42.7475 53.225 43.685 53.4115 44.6318 53.4115C45.5786 53.4115 46.5162 53.225 47.3909 52.8626C48.2656 52.5003 49.0604 51.9692 49.7298 51.2997C50.3993 50.6302 50.9303 49.8354 51.2925 48.9606C51.6548 48.0859 51.8412 47.1483 51.8411 46.2015C51.8412 45.2547 51.6548 44.3172 51.2925 43.4424C50.9303 42.5677 50.3993 41.7729 49.7298 41.1034C49.0604 40.4338 48.2656 39.9028 47.3909 39.5404C46.5162 39.1781 45.5786 38.9916 44.6318 38.9916C43.685 38.9916 42.7475 39.1781 41.8728 39.5404C40.9981 39.9028 40.2033 40.4338 39.5339 41.1034C38.8644 41.7729 38.3334 42.5677 37.9711 43.4424C37.6089 44.3172 37.4225 45.2547 37.4225 46.2015Z" fill="#E6E7EB"/>
<path id="Vector_4" d="M23.8179 42.6357H19.8256V38.3721C19.8256 37.2162 18.8885 36.2791 17.7326 36.2791C17.6919 36.2761 17.6511 36.2742 17.6103 36.2736C16.4545 36.2554 15.5028 37.1776 15.4845 38.3334V42.6357H19.6706V46.5117H15.4845V42.6357H11.3372C10.2392 42.6327 9.32552 43.4787 9.2442 44.5737C9.2442 45.7296 10.1813 46.6666 11.3372 46.6666H15.4845V50.6589C15.396 51.8115 16.2585 52.8176 17.4111 52.9061L17.4226 52.907H17.7326C18.8886 52.907 19.8256 51.9699 19.8256 50.814V46.6667H23.7791C24.9351 46.6667 25.8721 45.7296 25.8721 44.5737C25.792 43.4934 24.901 42.6528 23.8179 42.6357Z" fill="#E6E7EB"/>
</g>
</svg>
