<svg width="30" height="29" viewBox="0 0 30 29" fill="none" xmlns="http://www.w3.org/2000/svg">
<path id="Vector" d="M25.5 0H4.5C3.30653 0 2.16193 0.558684 1.31802 1.55315C0.474106 2.54761 0 3.89639 0 5.30278V22.9787C0 24.3851 0.474106 25.7339 1.31802 26.7283C2.16193 27.7228 3.30653 28.2815 4.5 28.2815H25.5C26.6935 28.2815 27.8381 27.7228 28.682 26.7283C29.5259 25.7339 30 24.3851 30 22.9787V5.30278C30 3.89639 29.5259 2.54761 28.682 1.55315C27.8381 0.558684 26.6935 0 25.5 0ZM24.495 3.53518L15 11.9312L5.505 3.53518H24.495ZM25.5 24.7463H4.5C4.10218 24.7463 3.72064 24.5601 3.43934 24.2286C3.15804 23.8971 3 23.4475 3 22.9787V5.74467L14.1 15.5548C14.3596 15.7843 14.6754 15.9083 15 15.9083C15.3246 15.9083 15.6404 15.7843 15.9 15.5548L27 5.74467V22.9787C27 23.4475 26.842 23.8971 26.5607 24.2286C26.2794 24.5601 25.8978 24.7463 25.5 24.7463Z" fill="#E0E0E0"/>
</svg>
