<svg width="60" height="60" viewBox="0 0 60 60" fill="none" xmlns="http://www.w3.org/2000/svg">
<g id="sports_svgrepo.com">
<path id="Vector" d="M56.25 30C56.253 28.2624 56.0833 26.529 55.7437 24.825C54.8822 20.6049 53.0027 16.6593 50.2687 13.3313C49.4055 12.2994 48.4719 11.3283 47.475 10.425C44.0831 7.39118 39.9607 5.29125 35.5125 4.33125C34.1261 4.01306 32.7144 3.81855 31.2937 3.75H30C25.8077 3.74873 21.6759 4.75159 17.9508 6.67466C14.2255 8.59774 11.0151 11.3851 8.58808 14.8034C6.16108 18.2218 4.58812 22.1717 4.00083 26.3228C3.41355 30.4738 3.82903 34.7049 5.2125 38.6625C5.69403 40.0048 6.27695 41.3085 6.95625 42.5625C8.76371 45.8754 11.2643 48.7597 14.2875 51.0187C15.3062 51.7905 16.3846 52.4803 17.5125 53.0812C19.6971 54.2689 22.0391 55.14 24.4687 55.6688C25.7839 55.9498 27.1194 56.1253 28.4625 56.1937C28.9687 56.1937 29.475 56.1937 30 56.1937C36.1776 56.1979 42.1566 54.0122 46.875 50.025C49.8002 47.5701 52.1546 44.5063 53.7737 41.0477C55.3929 37.5891 56.238 33.8188 56.25 30Z" fill="#FF6F00"/>
<path id="Vector_2" d="M56.25 46.875C56.2624 48.9054 55.6031 50.883 54.375 52.5C53.6814 53.4396 52.8004 54.2248 51.7875 54.8062L51.45 55.0125C50.0632 55.8272 48.4834 56.2545 46.875 56.25C45.0261 56.2459 43.2197 55.6952 41.6827 54.6671C40.146 53.6391 38.9475 52.1796 38.2382 50.4722C37.5287 48.7646 37.3401 46.8857 37.6957 45.0712C38.0514 43.2568 38.9359 41.5881 40.2375 40.275C40.3026 40.185 40.3779 40.1033 40.4625 40.0313C42.2089 38.4165 44.4964 37.5135 46.875 37.5C49.3614 37.5 51.7461 38.4878 53.5041 40.2459C55.2622 42.0039 56.25 44.3886 56.25 46.875Z" fill="#689F38"/>
<path id="Vector_3" d="M54.375 52.5C53.6814 53.4396 52.8004 54.2248 51.7875 54.8062L51.45 55.0125C49.0851 53.1583 46.923 51.0592 45 48.75C43.1415 46.0991 41.5701 43.2581 40.3125 40.275C40.3776 40.185 40.4529 40.1032 40.5375 40.0312C41.3904 39.2246 42.3896 38.5882 43.4813 38.1562C44.6169 41.0276 46.0697 43.7634 47.8125 46.3125C49.7342 48.6399 51.9386 50.7184 54.375 52.5Z" fill="#E0E0E0"/>
<path id="Vector_4" d="M47.475 10.4252C41.4317 13.1715 35.907 16.9391 31.1438 21.5627C30.2378 22.4534 29.3801 23.3922 28.575 24.3752C27.9188 25.1065 27.3 25.8752 26.7 26.6627C25.7625 27.919 24.825 29.194 24.0375 30.4127C23.25 31.6315 22.6125 32.719 21.9563 33.8815C18.9488 39.3811 16.3844 45.1118 14.2875 51.019C15.3062 51.7907 16.3846 52.4804 17.5125 53.0815L17.7375 52.5002C19.755 46.8115 22.2124 41.2885 25.0875 35.9815C25.7438 34.7815 26.4563 33.6002 27.1875 32.4377C27.9188 31.2752 28.8188 29.9815 29.7 28.819C30.3788 27.9246 31.1048 27.067 31.875 26.2502C32.7864 25.2139 33.7568 24.2311 34.7813 23.3065C39.3191 19.0951 44.5695 15.7238 50.2875 13.3502C49.4188 12.3112 48.4791 11.3338 47.475 10.4252Z" fill="#263238"/>
<path id="Vector_5" d="M55.7437 24.8248C51.1686 26.8079 46.2364 27.8353 41.25 27.8435C38.3006 27.8885 35.3651 27.4319 32.5687 26.4935C32.331 26.432 32.0989 26.3504 31.875 26.2498C30.6832 25.8144 29.574 25.1804 28.5937 24.3748C27.6407 23.5846 26.8942 22.5742 26.4187 21.431C24.2437 16.1624 27.7125 8.4936 31.3125 3.8811C32.7321 3.93732 34.1437 4.11928 35.5312 4.42485C35.4666 4.67839 35.3374 4.91091 35.1562 5.09985C31.4062 9.2061 28.35 16.3499 29.8687 20.0998C30.1609 20.7459 30.6047 21.3119 31.1625 21.7498C31.9551 22.3586 32.8417 22.8335 33.7875 23.156L34.7812 23.4748C41.4851 24.9798 48.4984 24.2283 54.7312 21.3373C55.1477 22.4754 55.4861 23.6407 55.7437 24.8248Z" fill="#263238"/>
<path id="Vector_6" d="M28.4625 56.25C27.1194 56.1816 25.7839 56.0061 24.4688 55.725C24.5233 55.5505 24.6056 55.3858 24.7125 55.2375C26.9813 51.8813 27.6938 45 26.25 39.375C25.9869 38.1947 25.5709 37.0538 25.0125 35.9813C24.6864 35.2131 24.1378 34.56 23.4375 34.1063C22.9508 33.8826 22.4154 33.7858 21.8813 33.825C17.8687 33.825 9.67498 37.9688 7.16248 42.15C7.09013 42.2843 6.99495 42.4048 6.88123 42.5063C6.20196 41.2525 5.61902 39.9486 5.13748 38.6063C9.35623 33.7313 18.8437 29.1375 23.8875 30.3563C24.3261 30.4438 24.7493 30.5955 25.1437 30.8063C25.8609 31.2105 26.4967 31.7445 27.0187 32.3813C28.4674 34.1637 29.4874 36.2548 30 38.4938C31.2563 43.8 31.1063 51.3188 28.4625 56.25Z" fill="#263238"/>
<path id="Vector_7" d="M3.75 30C3.75202 32.9488 4.24633 35.8764 5.2125 38.6625C5.69404 40.0048 6.27696 41.3085 6.95625 42.5625C8.76371 45.8754 11.2643 48.7597 14.2875 51.0187C15.3062 51.7905 16.3846 52.4803 17.5125 53.0812C19.6971 54.2689 22.0391 55.14 24.4688 55.6688C25.7839 55.9498 27.1194 56.1253 28.4625 56.1937C28.9688 56.1937 29.475 56.1937 30 56.1937V3.75C23.0381 3.75 16.3613 6.51563 11.4384 11.4384C6.51563 16.3613 3.75 23.0381 3.75 30Z" fill="#FFA000"/>
<path id="Vector_8" d="M43.4062 38.175C42.3146 38.607 41.3154 39.2434 40.4625 40.05C40.3779 40.122 40.3026 40.2037 40.2375 40.2937C38.9422 41.6077 38.0634 43.2748 37.7113 45.0861C37.3592 46.8973 37.5495 48.7721 38.2581 50.4758C38.9668 52.1794 40.1625 53.6361 41.6953 54.6632C43.2281 55.6903 45.0298 56.2423 46.875 56.25V37.5C45.6864 37.503 44.5093 37.7321 43.4062 38.175Z" fill="#7CB342"/>
<path id="Vector_9" d="M28.575 24.375C27.9188 25.1063 27.3 25.8751 26.7 26.6625C25.7625 27.9188 24.825 29.1938 24.0375 30.4125C23.25 31.6313 22.6125 32.7188 21.9563 33.8813C18.9488 39.381 16.3844 45.1116 14.2875 51.0188C15.3062 51.7905 16.3846 52.4802 17.5125 53.0813L17.7375 52.5C19.755 46.8113 22.2124 41.2883 25.0875 35.9813C25.7438 34.7813 26.4563 33.6 27.1875 32.4375C27.9188 31.275 28.8188 29.9813 29.7 28.8188C29.7938 28.6875 29.9063 28.575 30 28.4626V22.7063C29.5125 23.2125 29.025 23.7375 28.575 24.375Z" fill="#455A64"/>
<path id="Vector_10" d="M29.85 19.9125C29.2922 18.0704 29.3449 16.0973 30 14.2875V5.625C26.925 10.2562 24.4875 16.7437 26.4 21.375C26.8676 22.5384 27.6146 23.5689 28.575 24.375C29.0162 24.7631 29.4934 25.1085 30 25.4062V20.1562C29.9392 20.082 29.8888 20.0001 29.85 19.9125Z" fill="#455A64"/>
<path id="Vector_11" d="M30 38.4938C29.5294 36.2894 28.5681 34.2194 27.1875 32.4376C26.6655 31.8008 26.0297 31.2668 25.3125 30.8626C24.918 30.6518 24.4948 30.5001 24.0562 30.4126C18.9375 29.1938 9.44998 33.7876 5.30623 38.6626C5.78775 40.0049 6.37068 41.3087 7.04998 42.5626C7.1637 42.4611 7.25887 42.3406 7.33123 42.2063C9.84373 38.0251 18.0375 33.9563 22.05 33.8813C22.5842 33.8421 23.1195 33.9389 23.6062 34.1626C24.3066 34.6165 24.8552 35.2694 25.1812 36.0376C25.677 37.1005 26.0361 38.2219 26.25 39.3751C27.6187 45.0001 26.9062 51.8813 24.6375 55.1813C24.5306 55.3298 24.4483 55.4944 24.3937 55.6688C25.7089 55.9499 27.0444 56.1254 28.3875 56.1938C29.0904 54.8959 29.6319 53.5171 30 52.0876V38.5876C29.9912 38.557 29.9912 38.5246 30 38.4938Z" fill="#455A64"/>
<path id="Vector_12" d="M43.4063 38.175C42.3146 38.607 41.3154 39.2434 40.4625 40.05C40.3779 40.122 40.3024 40.2038 40.2375 40.2938C41.52 43.2737 43.1166 46.1085 45 48.75C45.5063 49.3688 46.2 50.1188 46.875 50.925V45C45.5503 42.8145 44.3908 40.5332 43.4063 38.175Z" fill="#ECEFF1"/>
<path id="Vector_13" d="M56.25 30C56.2365 24.3778 54.4181 18.9086 51.063 14.3975C47.7077 9.88634 42.9926 6.57162 37.6121 4.94129C32.2316 3.31096 26.4697 3.45117 21.1749 5.3413C15.8801 7.23144 11.332 10.7716 8.20011 15.4406C5.06827 20.1097 3.51821 25.6608 3.77814 31.2768C4.03805 36.893 6.09422 42.2773 9.64391 46.637C13.1936 50.997 18.0493 54.1018 23.496 55.4949C28.9429 56.8878 34.6931 56.4952 39.9 54.375C41.6619 55.626 43.7767 56.2828 45.9375 56.25C47.8461 56.2711 49.7231 55.7613 51.3587 54.7771C52.9943 53.7931 54.324 52.3738 55.1992 50.6775C56.0747 48.9813 56.4611 47.075 56.3156 45.1719C56.1699 43.2686 55.4981 41.4433 54.375 39.9C55.6335 36.752 56.2701 33.3901 56.25 30ZM7.5 30C7.50345 26.7403 8.21512 23.5203 9.58577 20.5629C10.9564 17.6053 12.9533 14.981 15.4382 12.8714C17.9232 10.7617 20.8369 9.21725 23.9775 8.34475C27.1183 7.47226 30.411 7.29262 33.6281 7.81824C36.8451 8.34385 39.9096 9.56219 42.6092 11.3889C45.3088 13.2157 47.5794 15.6072 49.2638 18.398C50.9481 21.1888 52.0058 24.3123 52.3639 27.5521C52.7218 30.7921 52.3717 34.0711 51.3375 37.1625C49.3644 35.9373 47.0349 35.4155 44.7277 35.6818C42.4206 35.948 40.2713 36.9866 38.6289 38.6289C36.9866 40.2712 35.9481 42.4205 35.6818 44.7277C35.4156 47.0349 35.9374 49.3644 37.1625 51.3375C33.7781 52.4739 30.1719 52.7887 26.6419 52.256C23.1118 51.7231 19.7591 50.358 16.861 48.2731C13.9629 46.1883 11.6025 43.4439 9.97474 40.2665C8.34701 37.0891 7.49872 33.57 7.5 30ZM45.9375 52.5C44.6396 52.5 43.3708 52.115 42.2916 51.3939C41.2123 50.673 40.3712 49.6479 39.8745 48.4488C39.3778 47.2498 39.2479 45.9301 39.501 44.6572C39.7543 43.3843 40.3793 42.2148 41.2971 41.297C42.2149 40.3792 43.3841 39.7543 44.6572 39.5011C45.9302 39.2478 47.2496 39.3778 48.4489 39.8745C49.6479 40.3711 50.673 41.2123 51.3939 42.2915C52.1151 43.3708 52.5 44.6396 52.5 45.9375C52.5 47.678 51.8085 49.3471 50.5779 50.5779C49.3472 51.8086 47.6781 52.5 45.9375 52.5Z" fill="#263238"/>
</g>
</svg>
