<svg width="60" height="60" viewBox="0 0 60 60" fill="none" xmlns="http://www.w3.org/2000/svg">
<g id="strategy-finance-business-planning_svgrepo.com">
<g id="Planning">
<path id="Vector" fill-rule="evenodd" clip-rule="evenodd" d="M39.775 8.49999L38.725 9.47499C38.6109 9.5914 38.4748 9.68388 38.3246 9.74701C38.1743 9.81015 38.013 9.84267 37.85 9.84267C37.687 9.84267 37.5257 9.81015 37.3754 9.74701C37.2252 9.68388 37.0891 9.5914 36.975 9.47499C36.8578 9.35878 36.7648 9.22053 36.7014 9.06821C36.6379 8.91589 36.6053 8.7525 36.6053 8.58749C36.6053 8.42247 36.6379 8.25909 36.7014 8.10677C36.7648 7.95444 36.8578 7.81619 36.975 7.69999L40.125 4.74999C40.3561 4.53562 40.6597 4.4165 40.975 4.4165C41.2902 4.4165 41.5939 4.53562 41.825 4.74999L45 7.64999C45.1172 7.76619 45.2102 7.90444 45.2736 8.05677C45.3371 8.20909 45.3697 8.37247 45.3697 8.53749C45.3697 8.7025 45.3371 8.86589 45.2736 9.01821C45.2102 9.17053 45.1172 9.30878 45 9.42499C44.8838 9.54215 44.7455 9.63514 44.5932 9.6986C44.4409 9.76206 44.2775 9.79474 44.1125 9.79474C43.9475 9.79474 43.7841 9.76206 43.6318 9.6986C43.4795 9.63514 43.3412 9.54215 43.225 9.42499L42.175 8.44999V19.075C42.175 21.6211 41.1636 24.0629 39.3632 25.8632C37.5629 27.6636 35.1211 28.675 32.575 28.675H24.6C22.717 28.675 20.911 29.423 19.5795 30.7545C18.248 32.086 17.5 33.892 17.5 35.775V40.35C17.5 40.6815 17.3683 40.9995 17.1339 41.2339C16.8995 41.4683 16.5815 41.6 16.25 41.6C15.9185 41.6 15.6005 41.4683 15.3661 41.2339C15.1317 40.9995 15 40.6815 15 40.35V35.775C15 33.2289 16.0114 30.7871 17.8118 28.9868C19.6121 27.1864 22.0539 26.175 24.6 26.175H32.675C33.6074 26.175 34.5306 25.9913 35.3921 25.6345C36.2535 25.2777 37.0362 24.7547 37.6955 24.0954C38.3548 23.4362 38.8777 22.6535 39.2345 21.792C39.5914 20.9306 39.775 20.0074 39.775 19.075V8.49999Z" fill="#9293A5"/>
<path id="Vector_2" d="M23.425 47.5C23.4299 48.9201 23.0134 50.3098 22.228 51.493C21.4426 52.6762 20.3237 53.5997 19.0131 54.1466C17.7025 54.6935 16.2591 54.8392 14.8656 54.5651C13.4722 54.2911 12.1914 53.6098 11.1854 52.6073C10.1795 51.6049 9.49363 50.3265 9.21475 48.934C8.93587 47.5415 9.07649 46.0975 9.61881 44.785C10.1611 43.4725 11.0807 42.3505 12.2612 41.5609C13.4417 40.7714 14.8299 40.35 16.25 40.35C18.1486 40.35 19.9698 41.1025 21.3147 42.4426C22.6595 43.7828 23.4184 45.6014 23.425 47.5Z" fill="#96CCEE"/>
<path id="Vector_3" d="M50 39.775C49.6982 39.4726 49.3396 39.2327 48.945 39.0691C48.5503 38.9054 48.1273 38.8212 47.7 38.8212C47.2728 38.8212 46.8497 38.9054 46.4551 39.0691C46.0604 39.2327 45.7019 39.4726 45.4 39.775L43.75 41.425C43.5934 41.5841 43.4066 41.7103 43.2005 41.7961C42.9944 41.882 42.7733 41.9258 42.55 41.925C42.3301 41.9283 42.112 41.8855 41.9096 41.7994C41.7072 41.7133 41.5251 41.5857 41.375 41.425L39.7 39.775C39.398 39.4664 39.0381 39.2203 38.641 39.0508C38.2438 38.8812 37.8172 38.7916 37.3854 38.7869C36.9536 38.7823 36.5251 38.8627 36.1244 39.0237C35.7237 39.1846 35.3586 39.4229 35.05 39.725C34.7414 40.027 34.4953 40.3869 34.3258 40.784C34.1563 41.1812 34.0666 41.6078 34.062 42.0396C34.0573 42.4714 34.1378 42.8999 34.2987 43.3006C34.4597 43.7013 34.698 44.0664 35 44.375L36.675 46.025C36.985 46.3425 37.1585 46.7687 37.1585 47.2125C37.1585 47.6563 36.985 48.0824 36.675 48.4L35 50C34.698 50.302 34.4584 50.6606 34.2949 51.0552C34.1315 51.4499 34.0473 51.8728 34.0473 52.3C34.0473 52.7271 34.1315 53.1501 34.2949 53.5447C34.4584 53.9394 34.698 54.2979 35 54.6C35.61 55.21 36.4374 55.5527 37.3 55.5527C37.7272 55.5527 38.1501 55.4685 38.5448 55.3051C38.9394 55.1416 39.298 54.902 39.6 54.6L41.275 52.925C41.4407 52.7763 41.6344 52.6621 41.8447 52.5891C42.0551 52.5162 42.2778 52.4859 42.5 52.5C42.9455 52.5021 43.3738 52.6717 43.7 52.975L45.35 54.65C45.6553 54.9553 46.0178 55.1975 46.4167 55.3627C46.8157 55.528 47.2432 55.613 47.675 55.613C48.1068 55.613 48.5344 55.528 48.9333 55.3627C49.3322 55.1975 49.6947 54.9553 50 54.65C50.3053 54.3447 50.5475 53.9822 50.7128 53.5833C50.878 53.1843 50.9631 52.7568 50.9631 52.325C50.9631 51.8932 50.878 51.4656 50.7128 51.0667C50.5475 50.6678 50.3053 50.3053 50 50L48.35 48.35C48.1773 48.1908 48.0395 47.9975 47.9452 47.7824C47.8509 47.5672 47.8022 47.3349 47.8022 47.1C47.8022 46.8651 47.8509 46.6327 47.9452 46.4176C48.0395 46.2025 48.1773 46.0092 48.35 45.85L50 44.2C50.5588 43.5987 50.8694 42.8083 50.8694 41.9875C50.8694 41.1667 50.5588 40.3762 50 39.775Z" fill="#F94060"/>
<path id="Vector_4" d="M25 6.57503C24.6982 6.27267 24.3396 6.03279 23.945 5.86913C23.5503 5.70547 23.1273 5.62122 22.7 5.62122C22.2728 5.62122 21.8497 5.70547 21.455 5.86913C21.0604 6.03279 20.7019 6.27267 20.4 6.57503L18.725 8.25003C18.5634 8.40768 18.3715 8.53103 18.161 8.61265C17.9505 8.69428 17.7257 8.73251 17.5 8.72503C17.0546 8.72288 16.6262 8.55333 16.3 8.25003L14.65 6.57503C14.348 6.26971 13.9888 6.02687 13.5929 5.86037C13.197 5.69387 12.7722 5.60698 12.3427 5.60466C11.9132 5.60234 11.4875 5.68463 11.0898 5.84684C10.6922 6.00905 10.3303 6.24799 10.025 6.55003C9.40839 7.16003 9.05933 7.99 9.05464 8.85735C9.04996 9.72471 9.39001 10.5584 10 11.175L11.65 12.825C11.8262 12.9822 11.9671 13.1747 12.0636 13.3902C12.1602 13.6056 12.2101 13.839 12.2101 14.075C12.2101 14.3111 12.1602 14.5445 12.0636 14.7599C11.9671 14.9753 11.8262 15.1679 11.65 15.325L10 16.875C9.69797 17.1804 9.45903 17.5422 9.29682 17.9398C9.13461 18.3375 9.05232 18.7632 9.05464 19.1927C9.05697 19.6222 9.14385 20.047 9.31035 20.4429C9.47685 20.8388 9.71969 21.198 10.025 21.5C10.3303 21.8021 10.6922 22.041 11.0898 22.2032C11.4875 22.3654 11.9132 22.4477 12.3427 22.4454C12.7722 22.4431 13.197 22.3562 13.5929 22.1897C13.9888 22.0232 14.348 21.7804 14.65 21.475L16.3 19.825C16.4611 19.6556 16.655 19.5207 16.8699 19.4285C17.0848 19.3363 17.3162 19.2888 17.55 19.2888C17.7838 19.2888 18.0152 19.3363 18.2301 19.4285C18.445 19.5207 18.6389 19.6556 18.8 19.825L20.45 21.475C21.0763 21.9857 21.8704 22.2447 22.6773 22.2015C23.4842 22.1584 24.2461 21.8162 24.8143 21.2417C25.3826 20.6672 25.7165 19.9016 25.7508 19.0942C25.7851 18.2869 25.5175 17.4957 25 16.875L23.325 15.225C23.1523 15.0658 23.0144 14.8726 22.9202 14.6574C22.8259 14.4423 22.7772 14.2099 22.7772 13.975C22.7772 13.7401 22.8259 13.5078 22.9202 13.2926C23.0144 13.0775 23.1523 12.8842 23.325 12.725L25 11.175C25.3024 10.8732 25.5422 10.5147 25.7059 10.12C25.8696 9.72534 25.9538 9.30228 25.9538 8.87503C25.9538 8.44778 25.8696 8.02472 25.7059 7.63007C25.5422 7.23541 25.3024 6.87689 25 6.57503Z" fill="#F94060"/>
<path id="Vector_5" d="M16.25 40.35C15.2957 40.3526 14.3518 40.5482 13.475 40.925C14.7705 41.4717 15.876 42.3882 16.6533 43.5599C17.4306 44.7316 17.8452 46.1064 17.8452 47.5125C17.8452 48.9186 17.4306 50.2935 16.6533 51.4652C15.876 52.6369 14.7705 53.5534 13.475 54.1C14.3611 54.475 15.3128 54.6704 16.275 54.675C17.2512 54.7327 18.2289 54.5903 19.148 54.2564C20.0671 53.9225 20.9083 53.4043 21.6199 52.7335C22.3315 52.0628 22.8984 51.2536 23.2859 50.3558C23.6735 49.458 23.8734 48.4904 23.8734 47.5125C23.8734 46.5346 23.6735 45.5671 23.2859 44.6692C22.8984 43.7714 22.3315 42.9623 21.6199 42.2915C20.9083 41.6207 20.0671 41.1025 19.148 40.7687C18.2289 40.4348 17.2512 40.2923 16.275 40.35" fill="#6F73D5"/>
</g>
</g>
</svg>
