<svg width="86" height="78" viewBox="0 0 86 78" fill="none" xmlns="http://www.w3.org/2000/svg">
<g id="Group 1261156577">
<g id="Ellipse 1" filter="url(#filter0_b_88_7155)">
<path d="M86 39C86 60.5391 66.7482 78 43 78C19.2518 78 0 60.5391 0 39C0 17.4609 19.2518 0 43 0C66.7482 0 86 17.4609 86 39Z" fill="#0A064D"/>
<path d="M84.5 39C84.5 59.5762 66.061 76.5 43 76.5C19.939 76.5 1.5 59.5762 1.5 39C1.5 18.4238 19.939 1.5 43 1.5C66.061 1.5 84.5 18.4238 84.5 39Z" stroke="#B700FF" stroke-width="3"/>
</g>
<g id="Mask group">
<g id="Group">
<g id="Group_2">
<path id="Vector" fill-rule="evenodd" clip-rule="evenodd" d="M21.1538 31.4253H20.5385V38.2991H20.9692C20.2799 38.2991 19.9353 38.2991 19.672 38.4489C19.4404 38.5807 19.2521 38.791 19.1341 39.0497C19 39.3438 19 39.7288 19 40.4987V40.9111C19 41.681 19 42.066 19.1341 42.3601C19.2521 42.6188 19.4404 42.8291 19.672 42.9609C19.9353 43.1107 20.2799 43.1107 20.9692 43.1107H22.6923V46.7538C22.6923 47.5238 22.6923 47.9087 22.8265 48.2028C22.9445 48.4615 23.1327 48.6718 23.3643 48.8036C23.6276 48.9534 23.9722 48.9534 24.6615 48.9534H31.8C32.4893 48.9534 32.8339 48.9534 33.0972 48.8036C33.3288 48.6718 33.5171 48.4615 33.6351 48.2028C33.7692 47.9087 33.7692 47.5238 33.7692 46.7538V34.656C33.7692 33.886 33.7692 33.5011 33.6351 33.207C33.5171 32.9483 33.3288 32.738 33.0972 32.6062C32.8339 32.4564 32.4893 32.4564 31.8 32.4564H24.6615C23.9722 32.4564 23.6276 32.4564 23.3643 32.6062C23.1327 32.738 22.9445 32.9483 22.8265 33.207C22.6923 33.5011 22.6923 33.886 22.6923 34.656V38.2991H21.1538V31.4253ZM55.9231 39.4676C55.9231 38.6977 55.9231 38.3127 56.0572 38.0186C56.1751 37.76 56.3634 37.5497 56.5951 37.4179C56.8585 37.268 57.2031 37.268 57.8923 37.268H65.0308C65.72 37.268 66.0646 37.268 66.328 37.4179C66.5597 37.5497 66.748 37.76 66.8658 38.0186C67 38.3127 67 38.6977 67 39.4676V43.3169C67 44.0869 67 44.4718 66.8658 44.7659C66.748 45.0246 66.5597 45.2349 66.328 45.3667C66.0646 45.5165 65.72 45.5165 65.0308 45.5165H57.8923C57.2031 45.5165 56.8585 45.5165 56.5951 45.3667C56.3634 45.2349 56.1751 45.0246 56.0572 44.7659C55.9231 44.4718 55.9231 44.0869 55.9231 43.3169V39.4676Z" fill="#0076DE"/>
<g id="Mask group_2">
<mask id="mask0_88_7155" style="mask-type:alpha" maskUnits="userSpaceOnUse" x="19" y="31" width="48" height="18">
<g id="Group_3">
<path id="Vector_2" fill-rule="evenodd" clip-rule="evenodd" d="M21.1538 31.4253H20.5385V38.2991H20.9692C20.2799 38.2991 19.9353 38.2991 19.672 38.4489C19.4404 38.5807 19.2521 38.791 19.1341 39.0497C19 39.3438 19 39.7288 19 40.4987V40.9111C19 41.681 19 42.066 19.1341 42.3601C19.2521 42.6188 19.4404 42.8291 19.672 42.9609C19.9353 43.1107 20.2799 43.1107 20.9692 43.1107H22.6923V46.7538C22.6923 47.5238 22.6923 47.9087 22.8265 48.2028C22.9445 48.4615 23.1327 48.6718 23.3643 48.8036C23.6276 48.9534 23.9722 48.9534 24.6615 48.9534H31.8C32.4893 48.9534 32.8339 48.9534 33.0972 48.8036C33.3288 48.6718 33.5171 48.4615 33.6351 48.2028C33.7692 47.9087 33.7692 47.5238 33.7692 46.7538V34.656C33.7692 33.886 33.7692 33.5011 33.6351 33.207C33.5171 32.9483 33.3288 32.738 33.0972 32.6062C32.8339 32.4564 32.4893 32.4564 31.8 32.4564H24.6615C23.9722 32.4564 23.6276 32.4564 23.3643 32.6062C23.1327 32.738 22.9445 32.9483 22.8265 33.207C22.6923 33.5011 22.6923 33.886 22.6923 34.656V38.2991H21.1538V31.4253ZM55.9231 39.4676C55.9231 38.6977 55.9231 38.3127 56.0572 38.0186C56.1751 37.76 56.3634 37.5497 56.5951 37.4179C56.8585 37.268 57.2031 37.268 57.8923 37.268H65.0308C65.72 37.268 66.0646 37.268 66.328 37.4179C66.5597 37.5497 66.748 37.76 66.8658 38.0186C67 38.3127 67 38.6977 67 39.4676V43.3169C67 44.0869 67 44.4718 66.8658 44.7659C66.748 45.0246 66.5597 45.2349 66.328 45.3667C66.0646 45.5165 65.72 45.5165 65.0308 45.5165H57.8923C57.2031 45.5165 56.8585 45.5165 56.5951 45.3667C56.3634 45.2349 56.1751 45.0246 56.0572 44.7659C55.9231 44.4718 55.9231 44.0869 55.9231 43.3169V39.4676Z" fill="white"/>
</g>
</mask>
<g mask="url(#mask0_88_7155)">
<g id="Group_4">
<path id="Vector_3" d="M72.5389 27.6448H17.1543V53.7651H72.5389V27.6448Z" fill="#7E57C2"/>
<path id="Vector_4" d="M72.5389 40.7051H17.1543V53.7653H72.5389V40.7051Z" fill="black" fill-opacity="0.1"/>
</g>
</g>
</g>
<path id="Vector_5" d="M21.1554 31.4253H20.5391V38.2991H21.1554V31.4253Z" fill="white" fill-opacity="0.4"/>
<path id="Vector_6" fill-rule="evenodd" clip-rule="evenodd" d="M20.846 31.769C21.5257 31.769 22.0768 31.1535 22.0768 30.3943C22.0768 29.635 21.5257 29.0195 20.846 29.0195C20.1663 29.0195 19.6152 29.635 19.6152 30.3943C19.6152 31.1535 20.1663 31.769 20.846 31.769Z" fill="#FFEA8F"/>
<path id="Vector_7" fill-rule="evenodd" clip-rule="evenodd" d="M21.1544 30.7378C21.4943 30.7378 21.7698 30.43 21.7698 30.0504C21.7698 29.6708 21.4943 29.363 21.1544 29.363C20.8146 29.363 20.5391 29.6708 20.5391 30.0504C20.5391 30.43 20.8146 30.7378 21.1544 30.7378Z" fill="white"/>
</g>
<g id="Group_5">
<path id="Vector_8" fill-rule="evenodd" clip-rule="evenodd" d="M43.2458 14.721C40.8426 12.0366 40.8426 7.68438 43.2458 5L47.3796 9.61747L49.3652 7.39962C49.0864 6.87243 49.1498 6.18203 49.5554 5.72907C50.036 5.1922 50.8153 5.1922 51.2959 5.72907C51.7766 6.26595 51.7766 7.1364 51.2959 7.67327C50.8904 8.12623 50.2723 8.19703 49.8003 7.88567L47.8148 10.1035L51.9486 14.721C50.2716 16.5942 47.8675 17.1602 45.751 16.4191V22.8718H44.5203V15.8153C44.0646 15.5212 43.6356 15.1564 43.2458 14.721Z" fill="#E1E6E8"/>
<g id="Mask group_3">
<mask id="mask1_88_7155" style="mask-type:alpha" maskUnits="userSpaceOnUse" x="41" y="5" width="11" height="18">
<g id="Group_6">
<path id="Vector_9" fill-rule="evenodd" clip-rule="evenodd" d="M43.2458 14.721C40.8426 12.0366 40.8426 7.68438 43.2458 5L47.3796 9.61747L49.3652 7.39962C49.0864 6.87243 49.1498 6.18203 49.5554 5.72907C50.036 5.1922 50.8153 5.1922 51.2959 5.72907C51.7766 6.26595 51.7766 7.1364 51.2959 7.67327C50.8904 8.12623 50.2723 8.19703 49.8003 7.88567L47.8148 10.1035L51.9486 14.721C50.2716 16.5942 47.8675 17.1602 45.751 16.4191V22.8718H44.5203V15.8153C44.0646 15.5212 43.6356 15.1564 43.2458 14.721Z" fill="white"/>
</g>
</mask>
<g mask="url(#mask1_88_7155)">
<g id="Group_7">
<path id="Vector_10" d="M60.5388 4.96167H29.7695V22.8335H60.5388V4.96167Z" fill="#7E57C2"/>
<path id="Vector_11" fill-rule="evenodd" clip-rule="evenodd" d="M43.2458 5C40.8426 7.68438 40.8426 12.0366 43.2458 14.721C45.649 17.4054 49.5454 17.4054 51.9486 14.721" fill="white" fill-opacity="0.2"/>
<path id="Vector_12" fill-rule="evenodd" clip-rule="evenodd" d="M49.5558 7.67351C50.0364 8.21039 50.8157 8.21039 51.2964 7.67351C51.777 7.13664 51.777 6.26619 51.2964 5.72932C50.8157 5.19244 50.0364 5.19244 49.5558 5.72932C49.0752 6.26619 49.0752 7.13664 49.5558 7.67351Z" fill="white" fill-opacity="0.8"/>
</g>
</g>
</g>
</g>
<g id="Group_8">
<path id="Vector_13" fill-rule="evenodd" clip-rule="evenodd" d="M24.8467 55.1398V43.7471C24.8467 42.1885 25.0839 40.6413 25.5483 39.1716L30.9271 24.2109C31.7086 21.7375 33.8016 20.0835 36.1498 20.0835H53.5435C55.8916 20.0835 57.9848 21.7375 58.7664 24.2109L64.1451 39.1716C64.6095 40.6413 64.8467 42.1885 64.8467 43.7471V55.1398C64.8467 58.5564 62.367 61.3262 59.3082 61.3262H30.3851C27.3263 61.3262 24.8467 58.5564 24.8467 55.1398Z" fill="#0076DE"/>
<g id="Mask group_4">
<mask id="mask2_88_7155" style="mask-type:alpha" maskUnits="userSpaceOnUse" x="24" y="20" width="41" height="42">
<g id="Group_9">
<path id="Vector_14" fill-rule="evenodd" clip-rule="evenodd" d="M24.8467 55.1398V43.7471C24.8467 42.1885 25.0839 40.6413 25.5483 39.1716L30.9271 24.2109C31.7086 21.7375 33.8016 20.0835 36.1498 20.0835H53.5435C55.8916 20.0835 57.9848 21.7375 58.7664 24.2109L64.1451 39.1716C64.6095 40.6413 64.8467 42.1885 64.8467 43.7471V55.1398C64.8467 58.5564 62.367 61.3262 59.3082 61.3262H30.3851C27.3263 61.3262 24.8467 58.5564 24.8467 55.1398Z" fill="white"/>
</g>
</mask>
<g mask="url(#mask2_88_7155)">
<g id="Group_10">
<path id="Vector_15" d="M65.4622 19.3962H24.2314V62.0137H65.4622V19.3962Z" fill="#5E35B1"/>
<path id="Vector_16" fill-rule="evenodd" clip-rule="evenodd" d="M29.4622 20.0835H28.2314V26.2699H29.4622V20.0835ZM31.9238 20.0835H30.693V30.3942V31.7689H31.9238H47.1287C47.3661 32.3758 47.9083 32.8 48.5391 32.8C49.3888 32.8 50.0776 32.0306 50.0776 31.0815C50.0776 30.1325 49.3888 29.3631 48.5391 29.3631C47.9083 29.3631 47.3661 29.7872 47.1287 30.3942H31.9238V20.0835Z" fill="black" fill-opacity="0.1"/>
<path id="Vector_17" fill-rule="evenodd" clip-rule="evenodd" d="M62.3853 31.9697C62.9287 31.7045 63.3084 31.0989 63.3084 30.3942C63.3084 29.4452 62.6194 28.6758 61.7699 28.6758C60.9204 28.6758 60.2314 29.4452 60.2314 30.3942C60.2314 31.0989 60.6111 31.7045 61.1545 31.9697V40.7049V42.0797H62.3853H68.2314V40.7049H62.3853V31.9697Z" fill="white" fill-opacity="0.2"/>
<path id="Vector_18" fill-rule="evenodd" clip-rule="evenodd" d="M59.9241 35.8931H58.6934V43.4542V44.829H59.9241H68.2318V43.4542H59.9241V35.8931Z" fill="black" fill-opacity="0.2"/>
<path id="Vector_19" fill-rule="evenodd" clip-rule="evenodd" d="M33.1547 55.6843C32.6114 55.419 32.2317 54.8134 32.2317 54.1088C32.2317 53.1598 32.9205 52.3904 33.7701 52.3904C34.6198 52.3904 35.3086 53.1598 35.3086 54.1088C35.3086 54.8134 34.9289 55.419 34.3855 55.6843V64.4195V65.7943H33.1547H27.3086V64.4195H33.1547V55.6843Z" fill="black" fill-opacity="0.2"/>
</g>
</g>
</g>
</g>
<g id="Group_11">
<path id="Vector_20" d="M47.615 49.6409H41.7689C41.0891 49.6409 40.5381 50.2564 40.5381 51.0156C40.5381 51.7749 41.0891 52.3904 41.7689 52.3904H47.615C48.2947 52.3904 48.8458 51.7749 48.8458 51.0156C48.8458 50.2564 48.2947 49.6409 47.615 49.6409Z" fill="black" fill-opacity="0.8"/>
</g>
<g id="Group_12">
<path id="Vector_21" d="M59.6159 32.4563H30.0774C29.3977 32.4563 28.8467 33.0718 28.8467 33.8311V45.5165C28.8467 46.2757 29.3977 46.8912 30.0774 46.8912H59.6159C60.2957 46.8912 60.8467 46.2757 60.8467 45.5165V33.8311C60.8467 33.0718 60.2957 32.4563 59.6159 32.4563Z" fill="black" fill-opacity="0.8"/>
<path id="Vector_22" d="M39.9235 39.6738H38.0773C37.7374 39.6738 37.4619 39.9816 37.4619 40.3612V42.767C37.4619 43.1467 37.7374 43.4544 38.0773 43.4544H39.9235C40.2633 43.4544 40.5388 43.1467 40.5388 42.767V40.3612C40.5388 39.9816 40.2633 39.6738 39.9235 39.6738Z" fill="#8BDDFF"/>
<path id="Vector_23" d="M51.6158 39.6738H49.7697C49.4298 39.6738 49.1543 39.9816 49.1543 40.3612V42.767C49.1543 43.1467 49.4298 43.4544 49.7697 43.4544H51.6158C51.9557 43.4544 52.2312 43.1467 52.2312 42.767V40.3612C52.2312 39.9816 51.9557 39.6738 51.6158 39.6738Z" fill="#8BDDFF"/>
<path id="Vector_24" fill-rule="evenodd" clip-rule="evenodd" d="M35.3079 32.4563H37.7695L32.5387 46.8912H30.0771L35.3079 32.4563Z" fill="white" fill-opacity="0.4"/>
</g>
</g>
</g>
</g>
<defs>
<filter id="filter0_b_88_7155" x="-4" y="-4" width="94" height="86" filterUnits="userSpaceOnUse" color-interpolation-filters="sRGB">
<feFlood flood-opacity="0" result="BackgroundImageFix"/>
<feGaussianBlur in="BackgroundImageFix" stdDeviation="2"/>
<feComposite in2="SourceAlpha" operator="in" result="effect1_backgroundBlur_88_7155"/>
<feBlend mode="normal" in="SourceGraphic" in2="effect1_backgroundBlur_88_7155" result="shape"/>
</filter>
</defs>
</svg>
