<svg width="60" height="60" viewBox="0 0 60 60" fill="none" xmlns="http://www.w3.org/2000/svg">
<g id="fullscreen_svgrepo.com" clip-path="url(#clip0_433_1411)">
<g id="Group">
<g id="Group_2">
<path id="Vector" d="M0 0V60H60V0H0ZM22.8572 49.2857V53.5713H6.42855V37.1428H10.7142V46.2555L22.7705 34.1993L25.8009 37.2298L13.745 49.2857H22.8572ZM22.7706 25.8012L10.7143 13.745V22.8572H6.42855V6.42855H22.8571V10.7142H13.7443L25.8011 22.7707L22.7706 25.8012ZM53.5714 53.5714H37.1429V49.2858H46.2551L34.1991 37.2295L37.2295 34.1991L49.2858 46.2557V37.1429H53.5714V53.5714ZM53.5714 22.8572H49.2858V13.745L37.2295 25.8013L34.1991 22.7708L46.2555 10.7143H37.1428V6.42855H53.5713V22.8572H53.5714Z" fill="black"/>
</g>
</g>
</g>
<defs>
<clipPath id="clip0_433_1411">
<rect width="60" height="60" fill="white"/>
</clipPath>
</defs>
</svg>
