<svg width="60" height="60" viewBox="0 0 60 60" fill="none" xmlns="http://www.w3.org/2000/svg">
<g id="expand-fullscreen_svgrepo.com" clip-path="url(#clip0_433_1425)">
<g id="Group">
<g id="Group_2">
<path id="Vector" d="M58.8046 1.19543C58.0336 0.42457 57.0086 0 55.9184 0H34.7334C33.643 0 32.618 0.42457 31.8471 1.19555C30.2559 2.78695 30.2559 5.37656 31.8471 6.96797L38.8382 13.9589L13.959 38.8383L6.96797 31.8472C5.37656 30.2559 2.78695 30.2558 1.19555 31.8473C0.42457 32.6182 0 33.6432 0 34.7334V55.9184C0 57.0087 0.42457 58.0337 1.19543 58.8046C1.96652 59.5754 2.99145 60 4.08164 60H25.2666C26.357 60 27.382 59.5754 28.1529 58.8046C29.7442 57.213 29.7442 54.6234 28.1529 53.032L21.1618 46.0411L46.041 21.1617L53.032 28.1528C54.6234 29.7441 57.2129 29.7441 58.8045 28.1528C59.5753 27.3819 59.9999 26.3569 59.9999 25.2666V4.08164C60 2.99145 59.5754 1.96641 58.8046 1.19543ZM57.6097 25.2666C57.6097 25.7183 57.4338 26.1431 57.1144 26.4625C56.4548 27.122 55.3819 27.122 54.7223 26.4625L46.8861 18.6263C46.662 18.4022 46.358 18.2762 46.041 18.2762C45.724 18.2762 45.42 18.4022 45.1958 18.6263L18.6263 45.1958C18.4022 45.42 18.2762 45.724 18.2762 46.041C18.2762 46.358 18.4022 46.662 18.6263 46.8861L26.4625 54.7223C27.1219 55.3818 27.1219 56.4548 26.4625 57.1143C26.143 57.4337 25.7183 57.6097 25.2666 57.6097H4.08164C3.63 57.6097 3.2052 57.4338 2.88586 57.1144C2.56641 56.795 2.39039 56.3702 2.39039 55.9185V34.7334C2.39039 34.2817 2.56629 33.857 2.88574 33.5375C3.21539 33.2078 3.64852 33.043 4.08164 33.043C4.51465 33.043 4.94789 33.2079 5.27754 33.5375L13.1137 41.3737C13.3378 41.5978 13.6418 41.7238 13.9589 41.7238C14.276 41.7238 14.5799 41.5978 14.8041 41.3737L41.3736 14.8043C41.5977 14.5801 41.7237 14.2761 41.7237 13.9591C41.7237 13.6421 41.5977 13.3383 41.3736 13.114L33.5374 5.27789C32.878 4.61836 32.878 3.54527 33.5374 2.88586C33.8568 2.56641 34.2816 2.39039 34.7333 2.39039H55.9184C56.3701 2.39039 56.7949 2.56629 57.1143 2.88574C57.4337 3.20508 57.6097 3.62988 57.6097 4.08164V25.2666Z" fill="black"/>
</g>
</g>
<g id="Group_3">
<g id="Group_4">
<path id="Vector_2" d="M5.16878 42.0675C4.50866 42.0675 3.97359 42.6027 3.97359 43.2627V43.5206C3.97359 44.1806 4.50866 44.7158 5.16878 44.7158C5.8289 44.7158 6.36398 44.1807 6.36398 43.5206V43.2627C6.36409 42.6027 5.8289 42.0675 5.16878 42.0675Z" fill="black"/>
</g>
</g>
<g id="Group_5">
<g id="Group_6">
<path id="Vector_3" d="M5.13949 46.8746C4.47937 46.8746 3.94429 47.4098 3.94429 48.0698V54.8605C3.94429 55.5205 4.47937 56.0557 5.13949 56.0557C5.7996 56.0557 6.33468 55.5205 6.33468 54.8605V48.0698C6.33468 47.4099 5.7996 46.8746 5.13949 46.8746Z" fill="black"/>
</g>
</g>
</g>
<defs>
<clipPath id="clip0_433_1425">
<rect width="60" height="60" fill="white"/>
</clipPath>
</defs>
</svg>
