<svg width="61" height="61" viewBox="0 0 61 61" fill="none" xmlns="http://www.w3.org/2000/svg">
<g id="fullscreen_svgrepo.com">
<path id="Vector" fill-rule="evenodd" clip-rule="evenodd" d="M45.7604 12.0727V12.8002C44.1636 13.8004 42.6851 14.9778 41.3529 16.3102L33.9929 23.6702C33.5375 24.1417 33.2855 24.7732 33.2912 25.4287C33.2969 26.0842 33.5598 26.7112 34.0233 27.1747C34.4869 27.6382 35.1139 27.9012 35.7694 27.9069C36.4249 27.9126 37.0564 27.6606 37.5279 27.2052L44.8604 19.8752C46.1999 18.5345 47.3825 17.0457 48.3854 15.4377H49.1254L48.9004 16.4127C48.4747 18.2574 48.26 20.1445 48.2604 22.0377V24.1802C48.2604 24.8432 48.5238 25.4791 48.9926 25.9479C49.4614 26.4168 50.0973 26.6802 50.7604 26.6802C51.4234 26.6802 52.0593 26.4168 52.5281 25.9479C52.997 25.4791 53.2604 24.8432 53.2604 24.1802V11.6952C53.2604 10.7006 52.8653 9.74679 52.162 9.04353C51.4588 8.34027 50.5049 7.94518 49.5104 7.94518L37.0104 7.93768C36.3473 7.93768 35.7115 8.20108 35.2426 8.66992C34.7738 9.13876 34.5104 9.77464 34.5104 10.4377C34.5104 11.1007 34.7738 11.7366 35.2426 12.2054C35.7115 12.6743 36.3473 12.9377 37.0104 12.9377H39.1629C41.0552 12.9378 42.9415 12.7231 44.7854 12.2977L45.7604 12.0727ZM13.1354 45.4377C14.1384 43.8297 15.321 42.341 16.6604 41.0002L23.9929 33.6702C24.4644 33.2148 25.0959 32.9628 25.7514 32.9685C26.4069 32.9742 27.0339 33.2371 27.4974 33.7006C27.9609 34.1642 28.2239 34.7912 28.2296 35.4467C28.2353 36.1022 27.9833 36.7337 27.5279 37.2052L20.1679 44.5652C18.8357 45.8976 17.3571 47.075 15.7604 48.0752V48.8027L16.7354 48.5777C18.5801 48.152 20.4672 47.9373 22.3604 47.9377H24.5104C25.1734 47.9377 25.8093 48.2011 26.2781 48.6699C26.747 49.1388 27.0104 49.7746 27.0104 50.4377C27.0104 51.1007 26.747 51.7366 26.2781 52.2055C25.8093 52.6743 25.1734 52.9377 24.5104 52.9377L12.0104 52.9302C11.0158 52.9302 10.062 52.5351 9.35873 51.8318C8.65546 51.1286 8.26038 50.1747 8.26038 49.1802V36.6877C8.26038 36.0246 8.52377 35.3888 8.99261 34.9199C9.46145 34.4511 10.0973 34.1877 10.7604 34.1877C11.4234 34.1877 12.0593 34.4511 12.5281 34.9199C12.997 35.3888 13.2604 36.0246 13.2604 36.6877V38.8402C13.2605 40.7325 13.0458 42.6188 12.6204 44.4627L12.3954 45.4377H13.1354Z" fill="black"/>
</g>
</svg>
