<svg width="41" height="41" viewBox="0 0 41 41" fill="none" xmlns="http://www.w3.org/2000/svg">
<g id="Component 1">
<path id="Vector" fill-rule="evenodd" clip-rule="evenodd" d="M20.3554 31.2195C26.3803 31.2195 31.2645 26.3354 31.2645 20.3105C31.2645 14.2855 26.3803 9.40137 20.3554 9.40137C14.3305 9.40137 9.44629 14.2855 9.44629 20.3105C9.44629 26.3354 14.3305 31.2195 20.3554 31.2195ZM20.3554 27.5832C24.3719 27.5832 27.6281 24.327 27.6281 20.3105C27.6281 16.2938 24.3719 13.0377 20.3554 13.0377C16.3388 13.0377 13.0827 16.2938 13.0827 20.3105C13.0827 24.327 16.3388 27.5832 20.3554 27.5832Z" fill="#E0E0E0"/>
<path id="Vector_2" d="M31.2645 7.5835C30.2603 7.5835 29.4463 8.39753 29.4463 9.40168C29.4463 10.4058 30.2603 11.2199 31.2645 11.2199C32.2687 11.2199 33.0827 10.4058 33.0827 9.40168C33.0827 8.39753 32.2687 7.5835 31.2645 7.5835Z" fill="#E0E0E0"/>
<path id="Vector_3" fill-rule="evenodd" clip-rule="evenodd" d="M1.54436 6.26702C0.355347 8.6006 0.355347 11.6554 0.355347 17.7651V22.856C0.355347 28.9656 0.355347 32.0205 1.54436 34.354C2.59026 36.4067 4.25913 38.0756 6.31182 39.1215C8.6454 40.3106 11.7002 40.3105 17.8099 40.3105H22.9008C29.0104 40.3105 32.0653 40.3106 34.3988 39.1215C36.4515 38.0756 38.1204 36.4067 39.1663 34.354C40.3554 32.0205 40.3553 28.9656 40.3553 22.856V17.7651C40.3553 11.6554 40.3554 8.6006 39.1663 6.26702C38.1204 4.21433 36.4515 2.54546 34.3988 1.49957C32.0653 0.310547 29.0104 0.310547 22.9008 0.310547H17.8099C11.7002 0.310547 8.6454 0.310547 6.31182 1.49957C4.25913 2.54546 2.59026 4.21433 1.54436 6.26702ZM22.9008 3.94691H17.8099C14.6951 3.94691 12.5776 3.94975 10.9409 4.08346C9.34669 4.21371 8.53142 4.4498 7.96269 4.73958C6.59424 5.43686 5.48166 6.54944 4.78438 7.91789C4.4946 8.48662 4.25851 9.30189 4.12826 10.8961C3.99455 12.5328 3.99171 14.6503 3.99171 17.7651V22.856C3.99171 25.9709 3.99455 28.0882 4.12826 29.7249C4.25851 31.3193 4.4946 32.1345 4.78438 32.7033C5.48166 34.0716 6.59424 35.1842 7.96269 35.8815C8.53142 36.1713 9.34669 36.4075 10.9409 36.5376C12.5776 36.6713 14.6951 36.6742 17.8099 36.6742H22.9008C26.0157 36.6742 28.133 36.6713 29.7697 36.5376C31.3641 36.4075 32.1793 36.1713 32.7481 35.8815C34.1164 35.1842 35.229 34.0716 35.9263 32.7033C36.2161 32.1345 36.4523 31.3193 36.5824 29.7249C36.7161 28.0882 36.719 25.9709 36.719 22.856V17.7651C36.719 14.6503 36.7161 12.5328 36.5824 10.8961C36.4523 9.30189 36.2161 8.48662 35.9263 7.91789C35.229 6.54944 34.1164 5.43686 32.7481 4.73958C32.1793 4.4498 31.3641 4.21371 29.7697 4.08346C28.133 3.94975 26.0157 3.94691 22.9008 3.94691Z" fill="#E0E0E0"/>
</g>
</svg>
