<svg width="41" height="41" viewBox="0 0 41 41" fill="none" xmlns="http://www.w3.org/2000/svg">
<g id="Vector">
<path id="Vector_2" fill-rule="evenodd" clip-rule="evenodd" d="M34.9008 0.310547C37.9133 0.310547 40.3553 2.75264 40.3553 5.76509V34.856C40.3553 37.8685 37.9133 40.3105 34.9008 40.3105H5.80989C2.79744 40.3105 0.355347 37.8685 0.355347 34.856V5.76509C0.355347 2.75264 2.79744 0.310547 5.80989 0.310547H34.9008ZM34.9008 3.94691C35.905 3.94691 36.719 4.76095 36.719 5.76509V34.856C36.719 35.8602 35.905 36.6742 34.9008 36.6742H25.8099V23.9467H29.5848C30.3673 23.9467 31.0621 23.446 31.3097 22.7035L32.1152 20.2871C32.4095 19.404 31.7523 18.4922 30.8215 18.4922H25.8099V14.8559C25.8099 13.9468 26.719 13.0377 27.6281 13.0377H31.2644C32.2686 13.0377 33.0826 12.2236 33.0826 11.2195V9.97224C33.0826 9.38493 32.7075 8.85837 32.1395 8.70849C29.7563 8.07955 27.6281 8.07955 27.6281 8.07955C23.0826 8.07955 20.3553 11.2195 20.3553 13.9468V18.4922H16.719C15.7148 18.4922 14.9008 19.3062 14.9008 20.3104V22.1285C14.9008 23.1327 15.7148 23.9467 16.719 23.9467H20.3553V36.6742H5.80989C4.80575 36.6742 3.99171 35.8602 3.99171 34.856V5.76509C3.99171 4.76095 4.80575 3.94691 5.80989 3.94691H34.9008Z" fill="#E0E0E0"/>
</g>
</svg>
