<svg width="60" height="60" viewBox="0 0 60 60" fill="none" xmlns="http://www.w3.org/2000/svg">
<g id="menu-collapsed_svgrepo.com">
<path id="Vector" d="M6.42368 20.5275L36.8737 20.5275C38.3474 20.5275 39.5437 21.8175 39.5437 23.3925C39.5437 24.9675 38.3474 26.2575 36.8737 26.2575L6.42368 26.2575C4.94618 26.2575 3.74993 24.9675 3.74993 23.3925C3.74993 21.8175 4.94993 20.5275 6.42368 20.5275ZM6.42368 33.8925L36.8737 33.8925C38.3474 33.8925 39.5437 35.1788 39.5437 36.7575C39.5437 38.3325 38.3474 39.6225 36.8737 39.6225L6.42368 39.6225C4.94618 39.6225 3.74993 38.3325 3.74993 36.7575C3.74993 35.1825 4.94993 33.8925 6.42368 33.8925ZM6.61493 46.7775L53.2424 46.7775C54.8174 46.7775 56.2049 47.97 56.2499 49.5412C56.2625 49.9253 56.1977 50.308 56.0594 50.6664C55.921 51.0249 55.712 51.3519 55.4447 51.628C55.1774 51.904 54.8573 52.1235 54.5034 52.2733C54.1496 52.4231 53.7692 52.5002 53.3849 52.5L6.75743 52.5C5.18243 52.5 3.79493 51.3037 3.74993 49.7362C3.73684 49.3519 3.80127 48.9688 3.93938 48.6099C4.07749 48.251 4.28645 47.9235 4.5538 47.6471C4.82116 47.3706 5.14143 47.1508 5.49554 47.0008C5.84966 46.8507 6.23035 46.7735 6.61493 46.7738V46.7775ZM42.9299 20.5725V39.57L56.2499 30.0713L42.9299 20.5725C42.9299 20.5275 42.9299 20.5275 42.9299 20.5725ZM53.3849 13.3688L6.75743 13.3688C5.18243 13.3688 3.79493 12.1688 3.74993 10.6012C3.73736 10.2172 3.80217 9.83455 3.94051 9.47606C4.07885 9.11756 4.28789 8.79056 4.55519 8.51451C4.82249 8.23846 5.14259 8.019 5.49644 7.8692C5.8503 7.71939 6.23067 7.6423 6.61493 7.6425L53.2424 7.6425C54.8174 7.6425 56.2049 8.83875 56.2499 10.41C56.2625 10.7941 56.1977 11.1767 56.0594 11.5352C55.921 11.8937 55.712 12.2207 55.4447 12.4967C55.1774 12.7728 54.8573 12.9923 54.5034 13.1421C54.1496 13.2919 53.7692 13.369 53.3849 13.3688Z" fill="black"/>
</g>
</svg>
