<svg width="57" height="52" viewBox="0 0 57 52" fill="none" xmlns="http://www.w3.org/2000/svg">
<g id="menu-collapsed_svgrepo.com">
<path id="Vector" d="M51.1362 34.6428H22.2087C20.8086 34.6428 19.6722 33.5248 19.6722 32.1598C19.6722 30.7948 20.8086 29.6768 22.2087 29.6768H51.1362C52.5398 29.6768 53.6763 30.7948 53.6763 32.1598C53.6763 33.5248 52.5363 34.6428 51.1362 34.6428ZM51.1362 23.0598H22.2087C20.8086 23.0598 19.6722 21.9451 19.6722 20.5768C19.6722 19.2118 20.8086 18.0938 22.2087 18.0938H51.1362C52.5398 18.0938 53.6763 19.2118 53.6763 20.5768C53.6763 21.9418 52.5363 23.0598 51.1362 23.0598ZM50.9545 11.8928H6.65839C5.16214 11.8928 3.84401 10.8594 3.80126 9.4976C3.78932 9.16476 3.85089 8.83312 3.98231 8.52243C4.11373 8.21173 4.31232 7.92833 4.56626 7.68909C4.8202 7.44985 5.12429 7.25965 5.46045 7.12982C5.79661 6.99999 6.15797 6.93317 6.52301 6.93335H50.8191C52.3154 6.93335 53.6335 7.9701 53.6763 9.3286C53.6887 9.66171 53.6275 9.9937 53.4963 10.3048C53.3651 10.6158 53.1666 10.8996 52.9126 11.1392C52.6586 11.3788 52.3543 11.5693 52.0179 11.6993C51.6815 11.8294 51.3199 11.8963 50.9545 11.8961V11.8928ZM16.4553 34.6038V18.1393L3.80126 26.3716L16.4553 34.6038C16.4553 34.6428 16.4553 34.6428 16.4553 34.6038ZM6.52301 40.8471H50.8191C52.3154 40.8471 53.6335 41.8871 53.6763 43.2456C53.6882 43.5784 53.6266 43.9101 53.4952 44.2208C53.3638 44.5315 53.1652 44.8149 52.9113 45.0541C52.6573 45.2934 52.3532 45.4836 52.0171 45.6134C51.6809 45.7432 51.3196 45.81 50.9545 45.8098H6.65839C5.16214 45.8098 3.84401 44.7731 3.80126 43.4114C3.78932 43.0785 3.85089 42.7469 3.98231 42.4362C4.11373 42.1255 4.31232 41.8421 4.56626 41.6028C4.8202 41.3636 5.12429 41.1734 5.46045 41.0436C5.79661 40.9137 6.15797 40.8469 6.52301 40.8471Z" fill="#0A064D"/>
</g>
</svg>
