<svg width="60" height="60" viewBox="0 0 60 60" fill="none" xmlns="http://www.w3.org/2000/svg">
<g id="music_svgrepo.com">
<path id="Vector" d="M41.2445 50.7367L38.9044 49.8193L47.6166 27.55C48.0176 26.5228 47.4738 25.3637 46.4246 25.0232L31.1865 20.0464C30.2087 19.7278 29.1541 20.2331 28.7915 21.1944L21.2 41.2774L17.6019 39.9206L28.2587 11.7297C28.6157 10.7794 29.6539 10.274 30.6262 10.5707L53.4229 17.6129C54.4885 17.9425 55.0543 19.107 54.6478 20.1507L42.9803 49.9786C42.7057 50.6653 41.9312 51.0058 41.2445 50.7367Z" fill="#360682"/>
<path id="Vector_2" d="M6.54419 38.5638C6.54419 40.5743 7.34285 42.5025 8.76449 43.9241C10.1861 45.3457 12.1143 46.1444 14.1248 46.1444C16.1352 46.1444 18.0634 45.3457 19.485 43.9241C20.9067 42.5025 21.7053 40.5743 21.7053 38.5638C21.7053 36.5534 20.9067 34.6252 19.485 33.2036C18.0634 31.7819 16.1352 30.9833 14.1248 30.9833C12.1143 30.9833 10.1861 31.7819 8.76449 33.2036C7.34285 34.6252 6.54419 36.5534 6.54419 38.5638Z" fill="#360682"/>
<path id="Vector_3" d="M28.418 47.0453C28.418 49.0558 29.2166 50.9839 30.6383 52.4056C32.0599 53.8272 33.988 54.6259 35.9985 54.6259C38.009 54.6259 39.9372 53.8272 41.3588 52.4056C42.7804 50.9839 43.5791 49.0558 43.5791 47.0453C43.5791 45.0348 42.7804 43.1067 41.3588 41.685C39.9372 40.2634 38.009 39.4647 35.9985 39.4647C33.988 39.4647 32.0599 40.2634 30.6383 41.685C29.2166 43.1067 28.418 45.0348 28.418 47.0453Z" fill="#360682"/>
<path id="Vector_4" d="M14.4453 22.2285L8.3457 6.95309C7.94727 5.96286 8.48633 4.84372 9.50586 4.53317L15.8281 2.60544C16.6719 2.34762 17.5684 2.75192 17.9375 3.55465L18.7109 5.24215C19.1504 6.19723 18.6582 7.31637 17.6621 7.6445L13.3438 9.06833C12.9395 9.20309 12.7285 9.6484 12.8867 10.041L17.0117 20.5644C17.1348 20.8808 16.9824 21.2324 16.666 21.3613L14.4453 22.2285Z" fill="#E51C5A"/>
<path id="Vector_5" d="M7.42578 22.2285C7.42578 22.881 7.5543 23.5271 7.80401 24.13C8.05371 24.7328 8.4197 25.2806 8.88109 25.742C9.34249 26.2033 9.89024 26.5693 10.4931 26.819C11.0959 27.0687 11.742 27.1973 12.3945 27.1973C13.047 27.1973 13.6932 27.0687 14.296 26.819C14.8988 26.5693 15.4466 26.2033 15.908 25.742C16.3694 25.2806 16.7354 24.7328 16.9851 24.13C17.2348 23.5271 17.3633 22.881 17.3633 22.2285C17.3633 20.9107 16.8398 19.6469 15.908 18.7151C14.9761 17.7833 13.7123 17.2598 12.3945 17.2598C11.0767 17.2598 9.81292 17.7833 8.88109 18.7151C7.94927 19.6469 7.42578 20.9107 7.42578 22.2285Z" fill="#E51C5A"/>
</g>
</svg>
