<svg width="60" height="60" viewBox="0 0 60 60" fill="none" xmlns="http://www.w3.org/2000/svg">
<g id="virtual-reality_svgrepo.com">
<path id="secondary" d="M52.5 33.75V41.25L47.5 42.5V32.5L52.5 33.75ZM7.5 33.75V41.25L12.5 42.5V32.5L7.5 33.75ZM35 15C35 14.337 34.7366 13.7011 34.2678 13.2322C33.7989 12.7634 33.163 12.5 32.5 12.5H27.5C26.837 12.5 26.2011 12.7634 25.7322 13.2322C25.2634 13.7011 25 14.337 25 15V27.5H35V15Z" stroke="#2CA9BC" stroke-width="5" stroke-linecap="round" stroke-linejoin="round"/>
<path id="primary" d="M45 27.5H15C14.337 27.5 13.7011 27.7634 13.2322 28.2322C12.7634 28.7011 12.5 29.337 12.5 30V45C12.5 45.663 12.7634 46.2989 13.2322 46.7678C13.7011 47.2366 14.337 47.5 15 47.5H19.375C20.3456 47.502 21.3033 47.2769 22.1714 46.8428C23.0396 46.4087 23.7942 45.7777 24.375 45C24.9558 44.2223 25.7104 43.5913 26.5786 43.1572C27.4467 42.7231 28.4044 42.498 29.375 42.5H30.625C31.5956 42.498 32.5533 42.7231 33.4214 43.1572C34.2896 43.5913 35.0442 44.2223 35.625 45C36.2058 45.7777 36.9604 46.4087 37.8286 46.8428C38.6967 47.2769 39.6544 47.502 40.625 47.5H45C45.663 47.5 46.2989 47.2366 46.7678 46.7678C47.2366 46.2989 47.5 45.663 47.5 45V30C47.5 29.337 47.2366 28.7011 46.7678 28.2322C46.2989 27.7634 45.663 27.5 45 27.5Z" stroke="black" stroke-width="5" stroke-linecap="round" stroke-linejoin="round"/>
</g>
</svg>
