<svg width="60" height="60" viewBox="0 0 60 60" fill="none" xmlns="http://www.w3.org/2000/svg">
<g id="swiss-army-knife_svgrepo.com" clip-path="url(#clip0_461_1436)">
<g id="Group">
<path id="Vector" d="M11.2472 0.027832C14.9195 0.027832 46.8634 3.77698 46.8634 3.77698V15.0242C46.8634 15.0242 20.5035 15.0242 16.8707 15.0242C13.2379 15.0242 0 11.2451 0 7.52612C0 3.97748 7.57497 0.027832 11.2472 0.027832Z" fill="#CCCFD1"/>
<path id="Vector_2" d="M16.8709 15.0242C20.5037 15.0242 46.8636 15.0242 46.8636 15.0242V12.8347C43.8325 9.69674 37.4291 7.52612 29.9927 7.52612C21.5123 7.52612 14.3552 10.3437 12.0402 14.2089C14.0665 14.7187 15.8511 15.0242 16.8709 15.0242Z" fill="#D9DCDD"/>
<path id="Vector_3" d="M33.7416 15.0242C40.5874 15.0242 46.8634 15.0242 46.8634 15.0242V3.777C46.8634 3.777 40.8481 3.07224 33.7416 2.27173V15.0242Z" fill="#B7BABC"/>
<path id="Vector_4" d="M33.7416 15.0242C40.5874 15.0242 46.8634 15.0242 46.8634 15.0242V12.8348C44.3591 10.2424 39.5339 8.3303 33.7416 7.73779V15.0242Z" fill="#C2C4C5"/>
<path id="Vector_5" d="M7.07075 40.8648L40.8949 7.04066C45.2644 2.66923 52.3501 2.66923 56.7215 7.04066C61.0929 11.4102 61.0929 18.4978 56.7215 22.8692L22.8993 56.6933C18.5279 61.0648 11.4422 61.0648 7.07075 56.6933C2.69932 52.3219 2.69932 45.2362 7.07075 40.8648Z" fill="#BF392C"/>
<path id="Vector_6" d="M18.723 47.7892L20.0989 46.4133C20.8581 45.6561 20.8581 44.4226 20.0989 43.6596C19.3397 42.9024 18.1082 42.9024 17.3471 43.6596L15.9712 45.0355L14.5954 43.6596C13.8362 42.9024 12.6028 42.9024 11.8436 43.6596C11.0825 44.4207 11.0825 45.6541 11.8436 46.4133L13.2195 47.7892L11.8436 49.1651C11.0825 49.9262 11.0825 51.1557 11.8436 51.9151C12.6028 52.6762 13.8362 52.6762 14.5954 51.9151L15.9712 50.5429L17.3471 51.9151C18.1063 52.6762 19.3378 52.6762 20.0989 51.9151C20.8581 51.1579 20.8581 49.9262 20.0989 49.1653L18.723 47.7892Z" fill="#E4E5E5"/>
</g>
</g>
<defs>
<clipPath id="clip0_461_1436">
<rect width="60" height="60" fill="white"/>
</clipPath>
</defs>
</svg>
