<svg width="61" height="61" viewBox="0 0 61 61" fill="none" xmlns="http://www.w3.org/2000/svg">
<g id="zombie_svgrepo.com">
<path id="Vector" d="M51.0879 24.6769C50.5254 24.6769 50.0098 24.4894 49.916 23.9269C49.6817 22.5206 49.3067 21.0675 48.7442 20.13C48.6973 20.1769 48.6504 20.1769 48.5567 20.1769C45.1817 20.1769 41.9004 21.5831 38.5254 21.5831H30.0879H21.6504C19.4004 21.5831 17.1973 21.5363 14.9473 21.5363H11.666C11.5254 21.5363 11.4317 21.5363 11.3379 21.63C11.1504 21.7706 11.1973 22.4269 11.0098 22.6613C10.7754 23.0363 10.4004 23.3175 10.1192 23.6456C9.22854 24.5831 8.75979 25.9425 8.85354 27.255C8.94729 28.0988 9.27541 28.8956 9.74416 29.5988C9.93166 29.88 10.4004 30.1613 10.4942 30.5363C10.5879 30.9113 10.2598 31.38 10.1192 31.7081C9.79104 32.5988 9.46291 33.7706 9.74416 34.755C9.74416 34.755 10.8692 33.7238 11.5723 33.4894C11.5723 33.4894 11.7598 34.0519 12.2285 34.755C13.0723 36.0206 15.1817 36.6769 14.3848 38.3644C13.916 39.3488 12.6504 39.7238 12.6504 39.7238C13.5879 40.755 14.8535 40.8488 15.3223 40.8488H15.5098C15.8848 40.8488 16.166 41.13 16.4004 41.3644C19.0254 44.2706 20.8535 44.88 30.1348 44.88C39.416 44.88 41.2442 44.2706 43.8692 41.3644C44.1035 41.0831 44.3848 40.8488 44.7598 40.8488C44.7598 40.8488 45.1348 40.8956 45.6035 40.8956C46.2129 40.8956 47.0567 40.8019 47.8067 40.4269C47.8067 40.4269 46.0254 39.6769 45.9785 37.9894C45.9785 37.9894 46.541 37.4269 47.5723 37.4269C47.9942 37.4269 48.4629 37.5206 49.0254 37.8019C48.6035 35.6456 46.4004 35.1769 46.541 35.13C46.7754 34.7081 48.9785 33.9113 50.1504 29.5519C50.291 28.9894 50.5254 27.7238 50.5254 27.7238C50.5254 27.7238 52.3067 27.3488 52.7285 24.3488C52.7285 24.3488 51.8379 24.6769 51.0879 24.6769Z" fill="url(#paint0_radial_461_1393)"/>
<path id="Vector_2" d="M54.6973 56.7863C54.6973 48.9581 42.3691 45.0675 30.3691 45.0675H30.3223C18.3691 45.0675 5.94727 48.4894 5.94727 56.8331V58.2394H7.35352L54.6973 58.2863V56.7863Z" fill="url(#paint1_linear_461_1393)"/>
<path id="Vector_3" d="M34.5879 42.3019H26.0566V46.9894C26.0566 49.0988 27.791 50.8331 29.9473 50.8331H30.7441C32.9004 50.8331 34.6348 49.0988 34.6348 46.9894L34.5879 42.3019Z" fill="#709921"/>
<path id="Vector_4" d="M43.1191 23.6925H17.5254C14.7598 23.6925 12.5098 26.0831 12.5098 29.0363C12.5098 31.9894 14.7598 34.38 17.5254 34.38H43.166C45.9316 34.38 48.1816 31.9894 48.1816 29.0363C48.1348 26.13 45.8848 23.6925 43.1191 23.6925Z" fill="#709921"/>
<path id="Vector_5" d="M30.3223 5.27063C22.166 5.27063 14.6191 13.9894 14.6191 26.5519C14.6191 39.0206 22.4004 45.2081 30.3223 45.2081C38.2441 45.2081 46.0254 39.0206 46.0254 26.5519C46.0254 13.9894 38.4785 5.27063 30.3223 5.27063Z" fill="#82CC2B"/>
<path id="Vector_6" d="M37.166 37.4269C36.9785 37.2394 36.791 36.9582 36.791 36.6769C36.8379 36.2082 37.2598 35.9269 37.6816 35.7394C38.4785 35.3644 39.2754 34.9425 40.166 34.8488C40.4941 34.8019 40.8691 34.8019 41.1504 34.9894C41.4785 35.2238 41.666 35.6457 41.6191 36.0675C41.5723 36.4894 41.3848 36.8644 41.1035 37.1457C39.9785 38.505 38.4316 38.6457 37.166 37.4269Z" fill="#709921"/>
<path id="Vector_7" d="M38.4785 39.4426C38.6191 39.5832 38.666 39.8176 38.6191 40.0519C38.5723 40.3332 38.3379 40.5207 38.1035 40.7551C37.916 40.8957 37.7754 41.0363 37.541 41.1301C37.3066 41.2238 37.0723 41.1301 36.9316 40.9426C36.8848 40.8019 36.8848 40.6613 36.8848 40.5676C36.8379 39.9113 37.0254 38.9738 37.8691 39.0676C38.1035 39.1144 38.3379 39.2551 38.4785 39.4426Z" fill="#709921"/>
<path id="Vector_8" d="M20.2441 36.5363C20.0566 36.5831 19.8223 36.5363 19.6348 36.3488C19.4004 36.1613 19.3535 35.88 19.2598 35.5988C19.2129 35.3644 19.166 35.13 19.2129 34.9425C19.2598 34.755 19.4473 34.5206 19.6816 34.5206C19.7754 34.5206 19.916 34.5675 20.0098 34.6144C20.5723 34.8956 21.3691 35.505 20.8535 36.1613C20.666 36.3488 20.4785 36.4894 20.2441 36.5363Z" fill="#709921"/>
<path id="Vector_9" d="M26.9004 19.2863C27.2754 19.0988 27.6504 18.9581 28.0254 19.0988C28.4942 19.2863 28.7285 19.8956 28.5879 20.4113C28.4473 20.9269 28.0723 21.3019 27.6973 21.63C27.4629 21.8175 27.2285 22.005 26.9004 22.0519C26.5254 22.0988 26.1035 21.9113 25.7754 21.63C24.5567 20.505 25.7285 19.8488 26.9004 19.2863Z" fill="#709921"/>
<path id="Vector_10" d="M28.4941 33.4425C28.541 33.4425 28.5879 33.4894 28.6348 33.4894H31.9629C32.0098 33.4894 32.0566 33.4894 32.1035 33.4425C32.3848 33.3019 32.5723 33.0206 32.4316 32.6925C32.291 32.3644 31.6348 31.4269 30.3223 31.4269C29.0098 31.4269 28.3535 32.3644 28.2129 32.6925C28.0723 32.9738 28.2129 33.3019 28.4941 33.4425Z" fill="#597718"/>
<path id="Vector_11" d="M35.2441 38.9738C35.2441 40.4738 33.041 40.755 30.3223 40.755C27.6035 40.755 25.4004 40.4738 25.4004 38.9738C25.4004 37.4738 27.6035 35.3175 30.3223 35.3175C33.041 35.3175 35.2441 37.4738 35.2441 38.9738Z" fill="#333333"/>
<path id="Vector_12" d="M30.3223 40.755C31.9629 40.755 33.4629 40.6613 34.3535 40.2394C34.2598 38.88 32.4785 37.8019 30.3223 37.8019C28.166 37.8019 26.3848 38.88 26.291 40.2394C27.1816 40.6613 28.6816 40.755 30.3223 40.755Z" fill="#F05455"/>
<path id="Vector_13" d="M52.8691 22.5394C53.5816 18.9628 49.4519 16.1784 49.3676 16.1316C49.5035 15.9909 51.3691 13.9659 50.1504 10.8956L50.1269 10.9191C50.1176 10.8956 50.1129 10.8722 50.1035 10.8488L48.4863 12.4238C48.0738 11.205 47.0519 9.99563 45.7863 9.2175C44.741 8.56125 43.5363 8.20969 42.3691 8.40657C42.4582 6.15657 40.6816 4.09875 38.5722 3.34875C37.2129 2.88 35.8066 2.6925 34.4472 2.6925C30.7441 2.6925 27.3222 4.05188 25.541 4.755C25.166 4.84875 24.8847 4.89563 24.6035 4.89563C22.7754 4.89563 22.4004 2.83313 22.4004 2.83313L22.3582 2.86594C22.3535 2.84719 22.3535 2.83313 22.3535 2.83313C22.3535 2.83313 22.3347 2.86594 22.3019 2.9175C21.9316 3.24563 20.6613 4.57688 21.5097 6.67688C21.3691 6.72375 21.2754 6.72376 21.1347 6.72376C18.9316 6.72376 17.5722 2.45813 17.5722 2.45813C14.1035 7.05188 17.3847 9.53626 17.3847 9.53626C17.3847 9.53626 16.916 9.39563 16.2597 9.39563C15.4629 9.39563 14.4316 9.63 13.6347 10.6144C12.9316 11.505 13.1191 12.255 12.416 13.1456C12.2519 13.3566 11.9988 13.4972 11.7129 13.5816C10.8691 13.7878 9.74412 13.5675 9.74412 13.5675C9.75349 13.5863 9.76287 13.605 9.77224 13.6284C9.72537 13.6191 9.69724 13.6144 9.69724 13.6144C10.5316 15.6722 12.3457 15.8503 12.7301 15.8644C12.266 16.0425 11.9144 16.2816 11.6519 16.5581C10.4004 17.8238 11.0519 19.8909 11.0566 19.8956C11.3379 22.605 7.34412 21.3956 7.34412 21.3956C9.34099 27.3488 13.916 24.6769 13.916 24.7238C13.6347 29.7394 15.2285 32.2238 15.2285 32.2238C15.2285 32.2238 15.2379 32.1909 15.2472 32.1347C15.2613 32.1628 15.2754 32.1769 15.2754 32.1769C15.2754 32.1769 17.1972 23.505 17.0097 22.1925C17.0097 22.1925 20.666 21.4894 24.791 19.0988C27.6035 17.505 29.4785 15.63 32.6191 14.9269C33.2754 14.7863 33.8379 14.7394 34.3535 14.7394C35.5488 14.7394 36.416 15.0722 37.0394 15.4988C38.1176 16.2628 38.4316 17.3175 38.4316 17.3175C38.4316 17.3175 38.4457 17.3128 38.4785 17.3175C38.4785 17.3175 38.5394 17.3034 38.6472 17.2894C39.5472 17.2144 43.016 17.2847 44.1972 22.6144C44.7597 25.1456 44.9941 29.3644 45.2754 31.8956C45.2707 31.8722 45.2847 31.8253 45.3082 31.7644L45.3222 31.8956C45.2847 31.5394 45.7301 30.9253 45.8707 30.6159C46.2644 29.7394 46.6254 28.8441 46.8832 27.9159C47.0144 27.4472 47.066 27.0206 47.1035 26.5472C47.141 26.0831 47.2347 25.9144 47.6707 25.7222C49.4519 24.9488 49.2035 23.3597 50.5113 22.605C51.8191 21.8503 52.8691 22.5394 52.8691 22.5394Z" fill="url(#paint2_radial_461_1393)"/>
<path id="Vector_14" d="M22.3066 32.4581C20.0098 32.4581 18.1816 30.3488 18.1816 27.7238C18.1816 25.0988 20.0566 22.9894 22.3066 22.9894C24.6035 22.9894 26.4316 25.0988 26.4316 27.7238C26.4316 30.3488 24.6035 32.4581 22.3066 32.4581Z" fill="#4E6B17"/>
<path id="Vector_15" d="M22.3066 23.6456C24.2754 23.6456 26.2066 25.5628 26.2066 27.8597C26.2066 30.1566 24.7863 32.1769 22.3676 32.1769C19.9488 32.1769 18.4441 30.0066 18.4441 27.7097C18.4441 25.4128 20.3848 23.6456 22.3066 23.6456ZM22.3066 22.38C19.6816 22.38 17.5254 24.7706 17.5254 27.7238C17.5254 30.6769 19.6348 33.0675 22.3066 33.0675C24.9316 33.0675 27.0879 30.6769 27.0879 27.7238C27.0879 24.7706 24.9316 22.38 22.3066 22.38Z" fill="#709921"/>
<path id="Vector_16" d="M22.4004 30.5363C24.4456 30.5363 26.1035 28.8154 26.1035 26.6925C26.1035 24.5697 24.4456 22.8488 22.4004 22.8488C20.3552 22.8488 18.6973 24.5697 18.6973 26.6925C18.6973 28.8154 20.3552 30.5363 22.4004 30.5363Z" fill="white"/>
<path id="Vector_17" d="M22.4004 23.3644C24.1348 23.3644 25.5879 24.8644 25.5879 26.6925C25.5879 28.5206 24.1816 30.0206 22.4004 30.0206C20.6191 30.0206 19.2129 28.5206 19.2129 26.6925C19.2129 24.8644 20.666 23.3644 22.4004 23.3644ZM22.4004 22.3331C20.0566 22.3331 18.1816 24.3019 18.1816 26.6925C18.1816 29.0831 20.0566 31.0519 22.4004 31.0519C24.7441 31.0519 26.6191 29.0831 26.6191 26.6925C26.6191 24.3019 24.7441 22.3331 22.4004 22.3331Z" fill="#709921"/>
<g id="Group">
<path id="Vector_18" d="M19.3629 48.9394C19.0816 48.6113 18.7488 48.5129 18.4254 48.4707C17.9332 48.405 17.5113 48.5222 17.2722 48.8785C16.8551 49.5019 16.7097 50.7019 15.5332 50.8332C14.7644 50.9175 14.6285 48.2644 14.6191 47.2378C14.5863 43.6003 14.8066 41.955 14.8957 41.641C14.9894 41.3222 15.0597 40.755 15.2613 40.4269C16.0019 40.4129 16.5363 39.8082 16.5972 39.0675C16.6582 38.266 15.2238 36.9582 13.6347 38.0879C12.8379 38.655 11.9004 40.291 11.8066 44.9785C11.8066 44.9785 11.6285 45.6863 11.2816 44.8144C10.9347 43.9425 10.3488 42.33 11.0894 40.455C11.5722 40.4644 12.0879 40.0238 12.1113 39.2691C12.1441 38.3222 11.2863 37.905 10.6676 37.9707C10.0488 38.0363 8.82069 38.3269 8.38006 40.08C8.12694 41.0832 8.15975 42.1144 8.15975 42.1144C8.15975 42.1144 7.00662 42.3816 6.88475 42.4847C6.566 42.7613 5.75037 43.2722 5.84881 45.1613C5.891 46.0003 6.18631 47.0457 6.18631 47.0457C6.18631 47.0457 5.53475 47.3832 5.28162 47.6925C4.90194 48.1519 4.59256 48.6675 4.44256 49.2394C4.18006 50.266 4.2785 51.3113 4.58787 52.3144C4.78006 52.9425 5.04725 53.5519 5.35194 54.1379C5.5535 54.5269 5.84881 54.8879 5.97069 55.3191C6.02694 55.5207 6.01756 55.6988 5.98006 55.8816C5.94256 56.0785 5.58631 57.7004 5.46912 58.291H12.0691C12.116 58.0894 12.1957 57.8457 12.2472 57.6441C12.3551 57.2363 13.2176 57.0066 13.5597 56.8191C15.716 55.6519 17.9801 53.8472 19.2457 51.5269C19.6722 50.7488 19.9254 49.5957 19.3629 48.9394ZM8.60506 46.7738L8.23944 44.7957L8.73631 44.6129C8.73631 44.6129 8.98475 45.2597 9.13475 46.155C9.28475 47.0504 8.60506 46.7738 8.60506 46.7738Z" fill="#82CC2B"/>
<path id="Vector_19" d="M10.6488 55.094C10.5832 55.1081 11.0613 53.73 9.95039 52.4362C8.99414 51.3253 7.61133 51.78 7.61133 51.78C7.61133 51.78 8.73164 51.9769 9.55664 52.8956C10.3816 53.819 10.6488 55.094 10.6488 55.094Z" fill="#709921"/>
<path id="Vector_20" d="M7.58785 47.4676C7.93004 47.7441 8.20192 48.166 8.14567 48.602C8.08004 49.1176 7.56442 49.4832 7.0441 49.5395C6.52379 49.5957 6.01754 49.4176 5.53473 49.216C5.89098 49.9098 6.58942 49.9145 6.58942 49.9145C6.58942 49.9145 6.99254 51.616 7.20348 51.6957L7.24567 50.0176C7.24567 50.0176 8.23004 50.1723 8.63317 48.8551C8.88629 48.0207 8.45504 47.3785 7.85035 47.102C7.24567 46.8254 6.38785 47.0785 6.38785 47.0785C6.38785 47.0785 7.24098 47.1863 7.58785 47.4676Z" fill="#709921"/>
<path id="Vector_21" d="M8.41755 42.4847C8.79255 42.6206 9.13474 42.8456 9.17224 43.2863C9.21912 43.8019 8.79255 44.2706 8.30037 44.4394C7.80818 44.6081 7.26912 44.5425 6.75818 44.4488C7.19412 44.941 7.77537 44.8894 7.83162 45.0066C7.90662 45.166 7.86443 46.0331 8.18787 46.5253C8.35193 46.7738 8.7738 46.816 8.7738 46.816C8.7738 46.816 8.29568 46.0706 8.38474 44.9785C8.38474 44.9785 8.77849 44.8706 9.05974 44.6925C9.49099 44.4206 9.66912 43.9097 9.70662 43.4269C9.77224 42.555 8.95193 42.1894 8.35662 42.1285C7.46599 42.0347 6.88474 42.4894 6.88474 42.4894C6.88474 42.4894 7.99568 42.33 8.41755 42.4847Z" fill="#709921"/>
<path id="Vector_22" d="M5.98004 55.8957C6.65973 56.341 7.70504 56.5191 8.42692 56.4441C7.52223 56.2238 6.28473 55.3754 5.67535 54.6722C5.79723 54.8785 5.91442 55.0847 5.97535 55.3144C6.0316 55.516 6.02223 55.6941 5.98473 55.8769C5.98473 55.8816 5.98004 55.891 5.98004 55.8957Z" fill="#709921"/>
<path id="Vector_23" d="M9.95038 57.1847C10.3957 57.5785 11.4129 57.8082 12.2191 57.7378L12.2473 57.6394C12.3176 57.3722 12.7066 57.1847 13.0676 57.03C12.2754 57.3019 10.7801 57.3066 9.95038 57.1847Z" fill="#709921"/>
<path id="Vector_24" d="M9.69258 40.0942C9.68321 40.1082 9.68321 40.127 9.68789 40.141C9.73008 40.4738 9.91758 40.7879 10.1895 40.9848C10.3863 41.1254 10.6207 41.2004 10.8598 41.2098C10.9113 40.9613 10.9816 40.7129 11.0848 40.4504C10.6301 40.4645 10.1754 40.3426 9.79571 40.0942C9.76758 40.0801 9.71602 40.0613 9.69258 40.0942Z" fill="#709921"/>
<path id="Vector_25" d="M13.855 39.7706C13.8504 40.2113 14.0894 40.6238 14.4129 40.9238C14.5769 41.0784 14.7738 41.2097 14.9894 41.2894C15.055 40.9988 15.13 40.6659 15.266 40.4316C15.055 40.4269 14.8441 40.3753 14.6519 40.2909C14.3566 40.1644 14.1035 39.9675 13.855 39.7706Z" fill="#709921"/>
<path id="Vector_26" d="M17.0285 49.3379C16.7473 49.9613 16.4613 50.7254 15.5332 50.8285C15.4301 50.8379 15.341 50.8004 15.2567 50.7254C15.3129 51.4754 15.4113 52.3801 15.2707 53.0738C16.2457 52.0801 16.991 50.9129 17.0285 49.3379Z" fill="#709921"/>
</g>
<g id="Group_2">
<path id="Vector_27" d="M38.1504 32.4581C35.8535 32.4581 34.0254 30.3488 34.0254 27.7238C34.0254 25.0988 35.9004 22.9894 38.1504 22.9894C40.4473 22.9894 42.2754 25.0988 42.2754 27.7238C42.2754 30.3488 40.4473 32.4581 38.1504 32.4581Z" fill="#4E6B17"/>
<path id="Vector_28" d="M38.1504 23.6456C40.1191 23.6456 42.0504 25.5628 42.0504 27.8597C42.0504 30.1566 40.6301 32.1769 38.2113 32.1769C35.7973 32.1769 34.2879 30.0066 34.2879 27.7097C34.2879 25.4128 36.2285 23.6456 38.1504 23.6456ZM38.1504 22.38C35.5254 22.38 33.3691 24.7706 33.3691 27.7238C33.3691 30.6769 35.4785 33.0675 38.1504 33.0675C40.7754 33.0675 42.9316 30.6769 42.9316 27.7238C42.9316 24.7706 40.7754 22.38 38.1504 22.38Z" fill="#709921"/>
<path id="Vector_29" d="M38.2441 30.5363C40.2893 30.5363 41.9473 28.8154 41.9473 26.6925C41.9473 24.5697 40.2893 22.8488 38.2441 22.8488C36.199 22.8488 34.541 24.5697 34.541 26.6925C34.541 28.8154 36.199 30.5363 38.2441 30.5363Z" fill="white"/>
<path id="Vector_30" d="M38.2441 23.3644C39.9785 23.3644 41.4316 24.8644 41.4316 26.6925C41.4316 28.5206 40.0254 30.0206 38.2441 30.0206C36.4629 30.0206 35.0566 28.5206 35.0566 26.6925C35.0566 24.8644 36.5098 23.3644 38.2441 23.3644ZM38.2441 22.3331C35.9004 22.3331 34.0254 24.3019 34.0254 26.6925C34.0254 29.0831 35.9004 31.0519 38.2441 31.0519C40.5879 31.0519 42.4629 29.0831 42.4629 26.6925C42.4629 24.3019 40.5879 22.3331 38.2441 22.3331Z" fill="#709921"/>
</g>
<g id="Group_3">
<path id="Vector_31" d="M41.5535 51.5222C42.8192 53.8425 45.0832 55.6472 47.2395 56.8143C47.5817 57.0018 48.4488 57.2315 48.552 57.6393C48.6035 57.8409 48.6832 58.0847 48.7301 58.2862H55.3301C55.2082 57.6956 54.8567 56.0737 54.8192 55.8768C54.7863 55.6987 54.777 55.5159 54.8285 55.3143C54.9457 54.8831 55.241 54.5268 55.4473 54.1331C55.752 53.5472 56.0192 52.9425 56.2113 52.3097C56.5207 51.3065 56.6192 50.2565 56.3567 49.2347C56.2067 48.6581 55.8973 48.1425 55.5176 47.6878C55.2645 47.3831 54.6129 47.0409 54.6129 47.0409C54.6129 47.0409 54.9082 45.9956 54.9504 45.1565C55.0488 43.2675 54.2332 42.7565 53.9145 42.48C53.7926 42.3722 52.6395 42.1097 52.6395 42.1097C52.6395 42.1097 52.6723 41.0784 52.4192 40.0753C51.9785 38.3222 50.7504 38.0315 50.1317 37.9659C49.5129 37.9003 48.6551 38.3175 48.6879 39.2643C48.716 40.0143 49.227 40.4597 49.7098 40.4503C50.4504 42.3253 49.8692 43.9425 49.5176 44.8097C49.1707 45.6768 48.9926 44.9737 48.9926 44.9737C48.8988 40.2862 47.9613 38.6503 47.1645 38.0831C45.5754 36.9534 44.141 38.2612 44.202 39.0628C44.2582 39.8034 44.7973 40.4081 45.5379 40.4222C45.7442 40.7503 45.8145 41.3175 45.9035 41.6362C45.9926 41.9456 46.2129 43.5956 46.1801 47.2331C46.1707 48.2597 46.0348 50.9175 45.266 50.8284C44.0895 50.6972 43.9488 49.4972 43.527 48.8737C43.2879 48.5175 42.866 48.405 42.3738 48.4659C42.0504 48.5081 41.7176 48.6065 41.4363 48.9347C40.8785 49.5956 41.127 50.7487 41.5535 51.5222ZM51.6692 46.155C51.8192 45.2597 52.0676 44.6128 52.0676 44.6128L52.5645 44.7956L52.1988 46.7737C52.1988 46.7737 51.5145 47.0456 51.6692 46.155Z" fill="#82CC2B"/>
<path id="Vector_32" d="M50.1504 55.094C50.216 55.1081 49.7379 53.73 50.8488 52.4362C51.8051 51.3253 53.1879 51.78 53.1879 51.78C53.1879 51.78 52.0676 51.9769 51.2426 52.8956C50.4223 53.819 50.1504 55.094 50.1504 55.094Z" fill="#709921"/>
<path id="Vector_33" d="M53.2113 47.4675C52.8691 47.744 52.5973 48.1659 52.6535 48.6018C52.7191 49.1175 53.2348 49.4831 53.7551 49.5393C54.2707 49.6003 54.7816 49.4175 55.2644 49.2159C54.9082 49.9096 54.2098 49.9143 54.2098 49.9143C54.2098 49.9143 53.8066 51.6159 53.5957 51.6956L53.5535 50.0175C53.5535 50.0175 52.5691 50.1722 52.166 48.855C51.9129 48.0206 52.3441 47.3784 52.9488 47.1018C53.5535 46.8253 54.4113 47.0784 54.4113 47.0784C54.4113 47.0784 53.5629 47.1862 53.2113 47.4675Z" fill="#709921"/>
<path id="Vector_34" d="M52.3816 42.4847C52.0066 42.6206 51.6644 42.8456 51.6269 43.2863C51.5801 43.8019 52.0066 44.2706 52.4988 44.4394C52.991 44.6081 53.5301 44.5425 54.041 44.4488C53.6051 44.941 53.0238 44.8894 52.9676 45.0066C52.8926 45.166 52.9348 46.0331 52.6113 46.5253C52.4473 46.7738 52.0254 46.816 52.0254 46.816C52.0254 46.816 52.5035 46.0706 52.4144 44.9785C52.4144 44.9785 52.0207 44.8706 51.7394 44.6925C51.3082 44.4206 51.1301 43.9097 51.0926 43.4269C51.0269 42.555 51.8473 42.1894 52.4426 42.1285C53.3332 42.0347 53.9144 42.4894 53.9144 42.4894C53.9144 42.4894 52.8035 42.33 52.3816 42.4847Z" fill="#709921"/>
<path id="Vector_35" d="M54.8238 55.8956C54.1441 56.3409 53.0988 56.519 52.377 56.444C53.2816 56.2237 54.5191 55.3752 55.1285 54.6721C55.0066 54.8784 54.8895 55.0846 54.8285 55.3143C54.7723 55.5159 54.7816 55.694 54.8191 55.8768C54.8191 55.8815 54.8191 55.8909 54.8238 55.8956Z" fill="#709921"/>
<path id="Vector_36" d="M50.8488 57.1846C50.4035 57.5783 49.3863 57.808 48.5801 57.7377L48.5519 57.6393C48.4816 57.3721 48.0926 57.1846 47.7316 57.0299C48.5238 57.3018 50.0191 57.3065 50.8488 57.1846Z" fill="#709921"/>
<path id="Vector_37" d="M51.1067 40.094C51.116 40.1081 51.116 40.1269 51.1114 40.1409C51.0692 40.4737 50.8817 40.7878 50.6098 40.9847C50.4129 41.1253 50.1785 41.2003 49.9395 41.2097C49.8879 40.9612 49.8176 40.7128 49.7145 40.4503C50.1692 40.4644 50.6239 40.3425 51.0035 40.094C51.0364 40.08 51.0879 40.0612 51.1067 40.094Z" fill="#709921"/>
<path id="Vector_38" d="M46.9488 39.7706C46.9535 40.2113 46.7145 40.6238 46.391 40.9238C46.227 41.0784 46.0301 41.2097 45.8145 41.2894C45.7488 40.9988 45.6738 40.6659 45.5379 40.4316C45.7488 40.4269 45.9598 40.3753 46.152 40.2909C46.4426 40.1644 46.7004 39.9675 46.9488 39.7706Z" fill="#709921"/>
<path id="Vector_39" d="M43.7708 49.3378C44.052 49.9612 44.3379 50.7253 45.2661 50.8284C45.3692 50.8378 45.4583 50.8003 45.5426 50.7253C45.4864 51.4753 45.3879 52.38 45.5286 53.0737C44.5583 52.08 43.8083 50.9128 43.7708 49.3378Z" fill="#709921"/>
</g>
</g>
<defs>
<radialGradient id="paint0_radial_461_1393" cx="0" cy="0" r="1" gradientUnits="userSpaceOnUse" gradientTransform="translate(29.9107 25.3209) scale(23.1853 20.9758)">
<stop offset="0.818" stop-color="#802828"/>
<stop offset="1" stop-color="#BD5151"/>
</radialGradient>
<linearGradient id="paint1_linear_461_1393" x1="30.3223" y1="46.6158" x2="30.3223" y2="57.7322" gradientUnits="userSpaceOnUse">
<stop offset="0.004" stop-color="#F78C1F"/>
<stop offset="1" stop-color="#ED6D23"/>
</linearGradient>
<radialGradient id="paint2_radial_461_1393" cx="0" cy="0" r="1" gradientUnits="userSpaceOnUse" gradientTransform="translate(30.4615 26.265) scale(25.8731 28.0439)">
<stop offset="0.623" stop-color="#802828"/>
<stop offset="1" stop-color="#BD5151"/>
</radialGradient>
</defs>
</svg>
