<svg xmlns="http://www.w3.org/2000/svg" xmlns:xlink="http://www.w3.org/1999/xlink" viewBox="0,0,256,256" width="250px" height="250px"><g transform="translate(40.96,40.96) scale(0.68,0.68)"><g fill="#b700ff" fill-rule="nonzero" stroke="none" stroke-width="1" stroke-linecap="butt" stroke-linejoin="miter" stroke-miterlimit="10" stroke-dasharray="" stroke-dashoffset="0" font-family="none" font-weight="none" font-size="none" text-anchor="none" style="mix-blend-mode: normal"><path d="M128,316.23529c-103.95948,0 -188.23529,-84.27581 -188.23529,-188.23529v0c0,-103.95948 84.27581,-188.23529 188.23529,-188.23529v0c103.95948,0 188.23529,84.27581 188.23529,188.23529v0c0,103.95948 -84.27581,188.23529 -188.23529,188.23529z" id="shape"></path></g><g fill="none" fill-rule="nonzero" stroke="none" stroke-width="none" stroke-linecap="butt" stroke-linejoin="none" stroke-miterlimit="10" stroke-dasharray="" stroke-dashoffset="0" font-family="none" font-weight="none" font-size="none" text-anchor="none" style="mix-blend-mode: normal"><path transform="scale(5.12,5.12)" d="M40.39063,7.11328c3.99488,2.56812 6.60938,6.23839 6.60938,10.38672c0,5.77557 -4.98313,10.55162 -11.91992,12.89844c-0.32184,0.44163 -0.6842,0.83956 -1.08008,1.1875v3.5957c1.40218,0.26827 2.8015,0.56258 4.18164,0.95703c2.3858,0.68148 4.11412,2.96646 3.77539,5.49805c0,0.00065 0,0.0013 0,0.00195c-0.34541,2.577 -2.54407,4.36133 -4.95898,4.36133c-0.46369,0 -0.93386,-0.06527 -1.39648,-0.19922c-1.99817,-0.58 -4.03136,-0.98496 -6.07617,-1.23047c-0.98818,1.45081 -2.58564,2.42969 -4.52539,2.42969c-1.94018,0 -3.53922,-0.97835 -4.52734,-2.42969c-2.04408,0.24554 -4.07675,0.64872 -6.07422,1.22852c-2.77941,0.8098 -5.73039,-0.94857 -6.30273,-3.84375c-0.51838,-2.6272 1.23729,-5.10882 3.74414,-5.82422c1.37325,-0.39163 2.76606,-0.68446 4.16016,-0.95117v-3.59375c-0.39588,-0.34794 -0.75824,-0.74587 -1.08008,-1.1875c-6.9368,-2.34682 -11.91992,-7.12286 -11.91992,-12.89844c0,-4.14833 2.6145,-7.8186 6.60938,-10.38672c3.99488,-2.56812 9.41792,-4.11328 15.39063,-4.11328c5.97271,0 11.39575,1.54516 15.39063,4.11328z" id="strokeMainSVG" fill="#c0bbbb" stroke="#c0bbbb" stroke-width="3" stroke-linejoin="round"></path><g transform="scale(5.12,5.12)" fill="#000000" stroke="none" stroke-width="1" stroke-linejoin="miter"><path d="M25,3c-5.97271,0 -11.39575,1.54516 -15.39062,4.11328c-3.99488,2.56812 -6.60937,6.23839 -6.60937,10.38672c0,5.77557 4.98313,10.55162 11.91992,12.89844c0.32184,0.44163 0.6842,0.83956 1.08008,1.1875v3.59375c-1.3941,0.26671 -2.78691,0.55954 -4.16016,0.95117c-2.50685,0.7154 -4.26252,3.19702 -3.74414,5.82422c0.57235,2.89518 3.52332,4.65355 6.30273,3.84375c1.99746,-0.5798 4.03014,-0.98297 6.07422,-1.22852c0.98813,1.45134 2.58716,2.42969 4.52734,2.42969c1.93975,0 3.53721,-0.97888 4.52539,-2.42969c2.04481,0.24551 4.078,0.65047 6.07617,1.23047c0.46262,0.13395 0.93279,0.19922 1.39648,0.19922c2.41492,0 4.61357,-1.78433 4.95898,-4.36133c0,-0.00065 0,-0.0013 0,-0.00195c0.33873,-2.53159 -1.38959,-4.81656 -3.77539,-5.49805c-1.38014,-0.39445 -2.77946,-0.68876 -4.18164,-0.95703v-3.5957c0.39588,-0.34794 0.75824,-0.74587 1.08008,-1.1875c6.9368,-2.34682 11.91992,-7.12286 11.91992,-12.89844c0,-4.14833 -2.6145,-7.8186 -6.60937,-10.38672c-3.99488,-2.56812 -9.41792,-4.11328 -15.39062,-4.11328zM25,5c5.62529,0 10.70297,1.47704 14.30859,3.79492c3.60562,2.31788 5.69141,5.39741 5.69141,8.70508c0,4.11417 -3.30128,7.92815 -8.58594,10.24414c0.37601,-1.14635 0.58594,-2.4101 0.58594,-3.74414c0,-2.39475 -0.65734,-4.57922 -1.78711,-6.22266c-1.12978,-1.64344 -2.80087,-2.77734 -4.71289,-2.77734c-1.91202,0 -3.58312,1.13391 -4.71289,2.77734c-0.33722,0.49055 -0.53904,1.11122 -0.78711,1.68945c-0.24807,-0.57823 -0.44988,-1.19891 -0.78711,-1.68945c-1.12977,-1.64344 -2.80087,-2.77734 -4.71289,-2.77734c-1.91202,0 -3.58312,1.13391 -4.71289,2.77734c-1.12977,1.64344 -1.78711,3.8279 -1.78711,6.22266c0,1.33404 0.20992,2.59779 0.58594,3.74414c-5.28466,-2.31599 -8.58594,-6.12997 -8.58594,-10.24414c0,-3.30767 2.08578,-6.38719 5.69141,-8.70508c3.60562,-2.31788 8.6833,-3.79492 14.30859,-3.79492zM25,9.50391c-3.1116,0 -6.22334,0.51568 -9.31641,1.54687c-0.34915,0.10483 -0.61361,0.39133 -0.6902,0.74775c-0.07659,0.35641 0.04682,0.72627 0.32209,0.96528c0.27527,0.23901 0.65878,0.3093 1.00092,0.18346c5.80586,-1.93561 11.56133,-1.93561 17.36719,0c0.34214,0.12584 0.72565,0.05555 1.00092,-0.18346c0.27527,-0.23901 0.39868,-0.60886 0.32209,-0.96528c-0.07659,-0.35641 -0.34105,-0.64292 -0.6902,-0.74775c-3.09307,-1.0312 -6.2048,-1.54687 -9.31641,-1.54687zM19.5,17c1.12598,0 2.20373,0.65809 3.06445,1.91016c0.70888,1.03118 1.13742,2.49315 1.29688,4.08984h-8.72266c0.15945,-1.59669 0.588,-3.05867 1.29688,-4.08984c0.86073,-1.25206 1.93848,-1.91016 3.06445,-1.91016zM30.5,17c1.12598,0 2.20373,0.65809 3.06445,1.91016c0.70888,1.03118 1.13742,2.49315 1.29688,4.08984h-8.72266c0.15946,-1.59669 0.588,-3.05867 1.29688,-4.08984c0.86073,-1.25206 1.93848,-1.91016 3.06445,-1.91016zM15.13867,25h2.86133v1.5c0,0.828 0.672,1.5 1.5,1.5c0.828,0 1.5,-0.672 1.5,-1.5v-1.5h2.80469c-0.09312,0.90484 -0.19681,1.81394 -0.4668,2.57813c-0.46357,0.33978 -0.86272,0.79552 -1.20508,1.28711c-0.32735,0.47004 -0.6207,0.99961 -0.88867,1.56055c-0.55616,0.37526 -1.134,0.57422 -1.74414,0.57422c-1.12598,0 -2.20373,-0.65809 -3.06445,-1.91016c-0.70888,-1.03118 -1.13742,-2.49315 -1.29687,-4.08984zM26.19531,25h2.80469v1.5c0,0.828 0.672,1.5 1.5,1.5c0.828,0 1.5,-0.672 1.5,-1.5v-1.5h2.86133c-0.15946,1.59669 -0.588,3.05867 -1.29687,4.08984c-0.86073,1.25206 -1.93848,1.91016 -3.06445,1.91016c-0.60897,0 -1.1881,-0.19806 -1.74414,-0.57227c-0.26818,-0.56153 -0.56102,-1.09202 -0.88867,-1.5625c-0.34236,-0.49159 -0.74151,-0.94733 -1.20508,-1.28711c-0.27028,-0.76398 -0.37364,-1.673 -0.4668,-2.57812zM25,29c0.25,0 0.70391,0.25929 1.22656,1.00977c0.52266,0.75048 1.03573,1.87217 1.45508,3.07031c0.8387,2.3963 1.31836,5.25326 1.31836,5.91992c0,0.11662 -0.01612,0.22322 -0.01953,0.33789c-0.03078,0.12252 -0.03807,0.24976 -0.02148,0.375c-0.09395,1.48454 -0.45771,2.78663 -1.05078,3.68555c-0.68772,1.04238 -1.56643,1.60156 -2.9082,1.60156c-1.34177,0 -2.22048,-0.55918 -2.9082,-1.60156c-0.60863,-0.92251 -0.97775,-2.26889 -1.05859,-3.80273c0.00089,-0.0483 -0.00172,-0.09661 -0.00781,-0.14453c-0.00605,-0.15217 -0.02539,-0.29547 -0.02539,-0.45117c0,-0.66667 0.47966,-3.52363 1.31836,-5.91992c0.41935,-1.19815 0.93242,-2.31983 1.45508,-3.07031c0.52265,-0.75048 0.97656,-1.00977 1.22656,-1.00977zM18,32.75391c0.47871,0.15545 0.97953,0.24609 1.5,0.24609c0.26177,0 0.51805,-0.02896 0.77148,-0.07031c-0.75353,2.28252 -1.19799,4.49195 -1.25,5.78906c-2.0207,0.29984 -4.51101,0.84718 -6.27734,1.31445c-0.34743,0.08961 -0.62024,0.35847 -0.7149,0.70456c-0.09466,0.34609 0.00333,0.71637 0.25679,0.97033c0.25346,0.25396 0.62355,0.35268 0.96983,0.2587c1.63558,-0.43268 4.00064,-0.9501 5.86328,-1.24023c0.08882,0.67845 0.22342,1.33347 0.42773,1.94531c-1.91963,0.26441 -3.82684,0.66184 -5.70508,1.20703c-0.00065,0 -0.0013,0 -0.00195,0c-1.68202,0.49081 -3.42973,-0.5324 -3.78125,-2.31055c-0.3035,-1.5382 0.75385,-3.06638 2.33008,-3.51562c1.57877,-0.45024 3.17512,-0.81383 4.78125,-1.0918c0.47922,-0.08267 0.82951,-0.49808 0.83008,-0.98438zM32,32.75391v3.22266c-0.00038,0.48704 0.35013,0.90353 0.83008,0.98633c1.61345,0.27886 3.21681,0.64439 4.80273,1.09766c0,0.00065 0,0.0013 0,0.00195c1.5002,0.42852 2.53907,1.83618 2.3418,3.31055c-0.21459,1.60095 -1.53348,2.62695 -2.97656,2.62695c-0.27631,0 -0.55647,-0.03904 -0.83984,-0.12109c-1.87823,-0.54519 -3.78545,-0.94262 -5.70508,-1.20703c0.20431,-0.61184 0.33892,-1.26686 0.42773,-1.94531c1.86264,0.29014 4.2277,0.80756 5.86328,1.24023c0.34628,0.09398 0.71636,-0.00474 0.96983,-0.2587c0.25346,-0.25396 0.35146,-0.62424 0.25679,-0.97033c-0.09466,-0.34609 -0.36747,-0.61495 -0.7149,-0.70456c-1.76637,-0.46728 -4.25662,-1.01657 -6.27734,-1.31641c-0.05233,-1.29704 -0.49717,-3.50429 -1.25,-5.78516c0.25301,0.04125 0.51004,0.06836 0.77148,0.06836c0.52047,0 1.02129,-0.09065 1.5,-0.24609z"></path></g></g></g></svg>