<svg xmlns="http://www.w3.org/2000/svg" xmlns:xlink="http://www.w3.org/1999/xlink" viewBox="0,0,256,256" width="250px" height="250px"><g transform="translate(40.96,40.96) scale(0.68,0.68)"><g fill="#b700ff" fill-rule="nonzero" stroke="none" stroke-width="1" stroke-linecap="butt" stroke-linejoin="miter" stroke-miterlimit="10" stroke-dasharray="" stroke-dashoffset="0" font-family="none" font-weight="none" font-size="none" text-anchor="none" style="mix-blend-mode: normal"><path d="M128,316.23529c-103.95948,0 -188.23529,-84.27581 -188.23529,-188.23529v0c0,-103.95948 84.27581,-188.23529 188.23529,-188.23529v0c103.95948,0 188.23529,84.27581 188.23529,188.23529v0c0,103.95948 -84.27581,188.23529 -188.23529,188.23529z" id="shape"></path></g><g fill="none" fill-rule="nonzero" stroke="none" stroke-width="none" stroke-linecap="butt" stroke-linejoin="none" stroke-miterlimit="10" stroke-dasharray="" stroke-dashoffset="0" font-family="none" font-weight="none" font-size="none" text-anchor="none" style="mix-blend-mode: normal"><path transform="scale(5.12,5.12)" d="M20.125,1.00781c4.21372,0.52672 7.92222,2.36601 10.47461,5.05273c2.34679,2.47031 3.63042,5.70589 3.41016,9.17578c3.24814,0.52716 4.82623,2.69916 5.35742,3.60938l9.3457,-2.80273c0.42238,-0.12581 0.87733,0.0397 1.12013,0.4075c0.2428,0.3678 0.21622,0.85119 -0.06544,1.19015l-4.11914,4.94336l3.72266,1.48828c0.31178,0.12493 0.54003,0.39803 0.60764,0.72703c0.06761,0.329 -0.03445,0.66998 -0.2717,0.90773l-5.29297,5.29297l3.29297,3.29297c0.25015,0.25048 0.34925,0.61455 0.26056,0.95726c-0.08869,0.34271 -0.35194,0.61301 -0.6922,0.71071l-7,2c-0.02764,0.00903 -0.05566,0.01685 -0.08398,0.02344c-0.20137,0.22363 -0.43258,0.4223 -0.69727,0.58203l-4.01953,2.43164l-0.33594,1.86328c-0.00118,0.00913 -0.00248,0.01825 -0.00391,0.02734c-0.17189,0.82535 -0.64775,1.55543 -1.33008,2.04688l-6.31445,4.54688c-0.00065,0 -0.0013,0 -0.00195,0c-0.2575,0.18508 -0.54293,0.21593 -0.82227,0.29492c-0.17797,0.14402 -0.39997,0.22261 -0.62891,0.22266h-1.58789c-0.57462,0 -1.13404,-0.18072 -1.60156,-0.51758l-6.31641,-4.54687c-0.68238,-0.49188 -1.15641,-1.22238 -1.32812,-2.04687c-0.00292,-0.01426 -0.00552,-0.02859 -0.00781,-0.04297l-0.37109,-2.27148l-3.32031,-2.00781c-0.2639,-0.15951 -0.49432,-0.35872 -0.69531,-0.58203c-0.00065,0 -0.0013,0 -0.00195,0c-0.03168,-0.00758 -0.06296,-0.01671 -0.09375,-0.02734l-10,-3c-0.33676,-0.1013 -0.59558,-0.37203 -0.68162,-0.71301c-0.08605,-0.34098 0.01332,-0.7021 0.2617,-0.95105c0,0 2.03712,-2.03286 4.61523,-3.4082c-0.69165,-0.42888 -1.32424,-0.92501 -2.0293,-1.20703c-1.18597,-0.47439 -2.12109,-0.70703 -2.12109,-0.70703c-0.34972,-0.08726 -0.62543,-0.35596 -0.72167,-0.70331c-0.09624,-0.34735 0.00188,-0.71962 0.25682,-0.97442c0,0 3.334,-3.01524 8.90234,-3.91211c-1.48492,-0.89174 -3.41482,-1.90449 -5.4375,-2.41016c-0.40638,-0.1012 -0.70667,-0.44488 -0.75244,-0.86116c-0.04577,-0.41628 0.17268,-0.817 0.54736,-1.00407c1.58198,-0.79099 3.45353,-1.49856 5.69922,-1.82227c-0.8996,-1.46018 -3.21994,-4.80586 -8.52734,-6.32227c-0.39606,-0.11372 -0.68183,-0.45871 -0.71984,-0.86902c-0.03801,-0.4103 0.17953,-0.80192 0.54796,-0.98645c3.25839,-1.6292 7.66897,-2.12082 11.97266,-1.46875c3.47031,0.5258 6.84781,1.85308 9.46484,4.03711c0.02544,-2.14968 -0.19585,-5.46538 -2.69727,-7.9668c-0.28905,-0.28902 -0.37311,-0.72486 -0.2123,-1.10065c0.16081,-0.3758 0.53413,-0.61591 0.94277,-0.60638c0.03396,0.00088 0.06786,0.00348 0.10156,0.00781z" id="strokeMainSVG" fill="#c0bbbb" stroke="#c0bbbb" stroke-width="3" stroke-linejoin="round"></path><g transform="scale(5.12,5.12)" fill="#000000" stroke="none" stroke-width="1" stroke-linejoin="miter"><path d="M20.02344,1c-0.40865,-0.00953 -0.78196,0.23058 -0.94277,0.60638c-0.16081,0.3758 -0.07674,0.81163 0.2123,1.10065c2.50142,2.50141 2.7227,5.81711 2.69727,7.9668c-2.61703,-2.18403 -5.99453,-3.5113 -9.46484,-4.03711c-4.30369,-0.65207 -8.71427,-0.16045 -11.97266,1.46875c-0.36843,0.18453 -0.58597,0.57615 -0.54796,0.98645c0.03801,0.4103 0.32378,0.7553 0.71984,0.86902c5.30741,1.5164 7.62774,4.86209 8.52734,6.32227c-2.24569,0.32371 -4.11724,1.03128 -5.69922,1.82227c-0.37468,0.18707 -0.59313,0.58779 -0.54736,1.00407c0.04577,0.41628 0.34606,0.75996 0.75244,0.86116c2.02268,0.50567 3.95258,1.51842 5.4375,2.41016c-5.56834,0.89687 -8.90234,3.91211 -8.90234,3.91211c-0.25495,0.2548 -0.35306,0.62707 -0.25682,0.97442c0.09624,0.34735 0.37195,0.61605 0.72167,0.70331c0,0 0.93513,0.23264 2.12109,0.70703c0.70506,0.28202 1.33765,0.77815 2.0293,1.20703c-2.57812,1.37534 -4.61523,3.4082 -4.61523,3.4082c-0.24838,0.24896 -0.34774,0.61007 -0.2617,0.95105c0.08605,0.34098 0.34486,0.61171 0.68162,0.71301l10,3c0.03079,0.01064 0.06207,0.01976 0.09375,0.02734c0.00065,0 0.0013,0 0.00195,0c0.201,0.22332 0.43141,0.42252 0.69531,0.58203l3.32031,2.00781l0.37109,2.27148c0.00229,0.01438 0.0049,0.0287 0.00781,0.04297c0.17171,0.8245 0.64574,1.55499 1.32813,2.04688l6.31641,4.54688c0.46752,0.33685 1.02694,0.51758 1.60156,0.51758h0.92578h0.51367h0.14844c0.22894,-0.00005 0.45094,-0.07864 0.62891,-0.22266c0.27934,-0.07899 0.56477,-0.10985 0.82227,-0.29492c0.00065,0 0.0013,0 0.00195,0l6.31445,-4.54687c0.68233,-0.49145 1.15819,-1.22153 1.33008,-2.04687c0.00143,-0.0091 0.00273,-0.01821 0.00391,-0.02734l0.33594,-1.86328l4.01953,-2.43164c0.26469,-0.15973 0.4959,-0.3584 0.69727,-0.58203c0.02832,-0.00659 0.05634,-0.01441 0.08398,-0.02344l7,-2c0.34026,-0.0977 0.60351,-0.36799 0.6922,-0.71071c0.08869,-0.34271 -0.01041,-0.70678 -0.26056,-0.95726l-3.29297,-3.29297l5.29297,-5.29297c0.23725,-0.23776 0.33931,-0.57873 0.2717,-0.90773c-0.06761,-0.329 -0.29586,-0.6021 -0.60764,-0.72703l-3.72266,-1.48828l4.11914,-4.94336c0.28167,-0.33896 0.30824,-0.82235 0.06544,-1.19015c-0.2428,-0.3678 -0.69775,-0.53331 -1.12013,-0.4075l-9.3457,2.80273c-0.53119,-0.91022 -2.10928,-3.08222 -5.35742,-3.60937c0.22026,-3.46989 -1.06336,-6.70547 -3.41016,-9.17578c-2.55239,-2.68673 -6.26089,-4.52602 -10.47461,-5.05273c-0.0337,-0.00433 -0.0676,-0.00694 -0.10156,-0.00781zM22.46484,3.75c2.63747,0.7735 5.03156,1.94841 6.68555,3.68945c2.19761,2.31327 3.31412,5.23671 2.85938,8.41992c-0.04072,0.28689 0.045,0.57735 0.23497,0.79616c0.18996,0.21881 0.4655,0.34448 0.75527,0.34446c3.33333,0 5.10547,3.44727 5.10547,3.44727c0.21773,0.43443 0.71622,0.64948 1.18164,0.50977l6.81836,-2.04492l-2.87305,3.44727c-0.20478,0.24588 -0.27954,0.57491 -0.20111,0.88514c0.07843,0.31023 0.30057,0.5642 0.59759,0.68322l3.5918,1.4375l-4.92773,4.92773c-0.39037,0.39053 -0.39037,1.02353 0,1.41406l2.79883,2.79883l-4.09375,1.16992v-3.97266c0.01697,-0.77618 -0.11948,-1.43488 -0.44922,-1.96875c-0.32974,-0.53387 -0.89541,-0.91077 -1.48437,-0.97656c-0.26829,-0.03015 -0.53738,0.04945 -0.74609,0.2207l-2.23633,1.83789c-0.02692,-0.95971 -0.04823,-1.95652 -0.48242,-3.70703c-0.0822,-0.32937 -0.32586,-0.59456 -0.64711,-0.70427c-0.32125,-0.10972 -0.67623,-0.04898 -0.94273,0.1613c0,0 -3.04873,2.22057 -6.17383,4.04883c0.91776,-3.62466 0.24609,-6.66992 0.24609,-6.66992c-0.07718,-0.31073 -0.29847,-0.56573 -0.59523,-0.6859c-0.29677,-0.12017 -0.63313,-0.091 -0.90477,0.07848c0,0 -1.58097,0.98492 -3.41016,2.48047c-1.18681,0.97035 -2.39434,2.19936 -3.47266,3.52148c0.01795,-0.74166 0.08715,-1.50867 0.20703,-2.20117c0.25995,-1.50177 0.63672,-2.63867 0.63672,-2.63867c0.1016,-0.30678 0.0487,-0.64376 -0.14203,-0.90465c-0.19072,-0.26089 -0.49576,-0.41354 -0.81891,-0.40981c-0.25447,0.00298 -0.49824,0.10286 -0.68164,0.2793c0,0 -3.4402,3.4392 -4.46484,8.16797c-0.27773,-0.49833 -0.55253,-1.06479 -0.98437,-2.17578c-0.10076,-0.25757 -0.30369,-0.4619 -0.56055,-0.56445c-0.67246,-0.26974 -1.55847,-0.13336 -2.11914,0.42969c-0.56067,0.56305 -0.79133,1.38818 -0.76953,2.38086v3.95508l-6.95898,-2.08789c1.10216,-0.92298 2.61342,-2.06776 4.27344,-2.62109c0.3289,-0.10963 0.57755,-0.38178 0.65714,-0.7192c0.07958,-0.33743 -0.02126,-0.692 -0.26651,-0.93705c-1.17678,-1.17678 -2.7719,-1.94509 -4.08594,-2.4707c-0.2395,-0.0958 -0.21559,-0.06602 -0.43359,-0.14453c1.43352,-1.07426 4.03219,-2.67773 8.8125,-2.67773c0.43072,0.00015 0.81316,-0.27549 0.94923,-0.68415c0.13607,-0.40866 -0.00479,-0.85854 -0.34962,-1.11663c0,0 -2.64126,-1.95752 -5.90234,-3.30078c1.24917,-0.50367 2.57194,-0.89844 4.30273,-0.89844c0.34659,-0.00001 0.66846,-0.17947 0.85069,-0.47429c0.18222,-0.29482 0.19881,-0.66297 0.04385,-0.97298c0,0 -2.58302,-4.66111 -8.05859,-7.32422c2.50686,-0.71201 5.39683,-1.06854 8.38867,-0.61523c3.94631,0.59793 7.72121,2.28342 10.00781,5.02734c0.25323,0.30329 0.66128,0.42907 1.04132,0.32097c0.38003,-0.1081 0.6608,-0.42981 0.7165,-0.82097c0,0 0.77677,-5.09853 -1.52539,-9.39062zM26.29297,26.01563c0.15143,1.45807 0.19153,3.6777 -1.15234,6.38672c-0.18782,0.38046 -0.11513,0.83804 0.18137,1.14155c0.29649,0.30352 0.75223,0.38691 1.13699,0.20805c3.14086,-1.46304 5.93023,-3.49101 7.4082,-4.60352c0.14656,0.96501 0.37389,2.13481 0.35156,2.60352c-0.01784,0.37446 -0.06314,0.60735 -0.09375,0.72656c-0.03061,0.11922 -0.00781,0.05078 -0.00781,0.05078c-0.22564,0.42107 -0.12198,0.94292 0.24745,1.24579c0.36943,0.30287 0.90148,0.30218 1.27013,-0.00165l3.26563,-2.68359c0.04604,0.14746 0.10484,0.23974 0.09766,0.56836c-0.00009,0.00781 -0.00009,0.01563 0,0.02344v4.21289c0,0.39576 -0.20649,0.75946 -0.53711,0.95898l-2.51172,1.51758l0.03516,-0.19336c0.09816,-0.54366 -0.26299,-1.06395 -0.80664,-1.16211c-0.54366,-0.09816 -1.06395,0.26299 -1.16211,0.80664l-0.8418,4.66016c-0.07059,0.33552 -0.26219,0.63206 -0.53711,0.83008l-6.31641,4.54688c-0.08435,0.06024 -0.20387,0.1067 -0.36914,0.12109c-0.04138,0.00395 -0.08248,0.01047 -0.12305,0.01953h-0.45312h-0.92578c-0.15338,0 -0.3071,-0.04948 -0.43359,-0.14062l-6.31445,-4.54687c-0.27686,-0.19957 -0.46831,-0.49372 -0.53906,-0.83008l-0.00195,-0.00195l-0.80859,-4.96875c-0.07216,-0.48127 -0.48027,-0.84074 -0.9668,-0.85156c-0.29962,-0.00688 -0.58653,0.12097 -0.78176,0.34836c-0.19523,0.22739 -0.27819,0.53034 -0.22605,0.82547l0.02344,0.14648l-1.86133,-1.12695c-0.33083,-0.19997 -0.53711,-0.56265 -0.53711,-0.95898v-4.21289c-0.00056,-0.00782 -0.00121,-0.01563 -0.00195,-0.02344c-0.0065,-0.29388 0.04632,-0.27358 0.08594,-0.41992c0.75095,1.68529 1.37157,2.63329 2.20703,3.46875c0.28603,0.28583 0.71604,0.37129 1.08963,0.21656c0.37359,-0.15474 0.61724,-0.51922 0.6174,-0.92359c0,-2.12201 0.85371,-4.05684 1.77734,-5.64258c-0.1259,1.30486 -0.1543,2.67578 0.27344,3.95898c0.12779,0.38401 0.47443,0.65314 0.87813,0.68179c0.4037,0.02865 0.78487,-0.18883 0.96562,-0.55093c0.87466,-1.74932 2.81665,-3.66863 4.54297,-5.08008c1.00018,-0.81775 1.2618,-0.94669 1.85547,-1.35156zM32.02539,33.99609c-0.09028,-0.00106 -0.18029,0.01011 -0.26758,0.0332l-4,1c-0.50427,0.12802 -0.82626,0.62116 -0.74065,1.13433c0.08561,0.51317 0.55025,0.87508 1.06877,0.83246c0.21055,0.60081 0.77743,1.00326 1.41406,1.00391c0.43529,-0.00005 0.84909,-0.18918 1.13397,-0.51829c0.28488,-0.32912 0.41275,-0.76575 0.3504,-1.19655l1.25781,-0.31445c0.49414,-0.11391 0.82481,-0.57962 0.76947,-1.08369c-0.05534,-0.50407 -0.47918,-0.88693 -0.98626,-0.89092zM17.94531,33.99805c-0.49925,0.02094 -0.90643,0.40715 -0.95371,0.90459c-0.04728,0.49744 0.27985,0.95345 0.76621,1.06807l1.25977,0.31445c-0.0623,0.43046 0.06532,0.86677 0.34976,1.19581c0.28445,0.32904 0.69771,0.51842 1.13266,0.51903c0.63663,-0.00065 1.20351,-0.4031 1.41406,-1.00391c0.51852,0.04262 0.98316,-0.31929 1.06877,-0.83246c0.08561,-0.51317 -0.23638,-1.00632 -0.74065,-1.13433l-4,-1c-0.09684,-0.02521 -0.19691,-0.03574 -0.29688,-0.03125zM24,40c-0.36064,-0.0051 -0.69608,0.18438 -0.87789,0.49587c-0.18181,0.3115 -0.18181,0.69676 0,1.00825c0.18181,0.3115 0.51725,0.50097 0.87789,0.49587h2c0.36064,0.0051 0.69608,-0.18438 0.87789,-0.49587c0.18181,-0.3115 0.18181,-0.69676 0,-1.00825c-0.18181,-0.3115 -0.51725,-0.50097 -0.87789,-0.49587zM22,43c0.536,1.179 1.673,2 3,2c1.327,0 2.464,-0.821 3,-2z"></path></g></g></g></svg>