<svg xmlns="http://www.w3.org/2000/svg" xmlns:xlink="http://www.w3.org/1999/xlink" viewBox="0,0,256,256" width="250px" height="250px"><g transform="translate(40.96,40.96) scale(0.68,0.68)"><g fill="#b700ff" fill-rule="nonzero" stroke="none" stroke-width="1" stroke-linecap="butt" stroke-linejoin="miter" stroke-miterlimit="10" stroke-dasharray="" stroke-dashoffset="0" font-family="none" font-weight="none" font-size="none" text-anchor="none" style="mix-blend-mode: normal"><path d="M128,316.23529c-103.95948,0 -188.23529,-84.27581 -188.23529,-188.23529v0c0,-103.95948 84.27581,-188.23529 188.23529,-188.23529v0c103.95948,0 188.23529,84.27581 188.23529,188.23529v0c0,103.95948 -84.27581,188.23529 -188.23529,188.23529z" id="shape"></path></g><g fill="none" fill-rule="nonzero" stroke="none" stroke-width="none" stroke-linecap="butt" stroke-linejoin="none" stroke-miterlimit="10" stroke-dasharray="" stroke-dashoffset="0" font-family="none" font-weight="none" font-size="none" text-anchor="none" style="mix-blend-mode: normal"><path transform="scale(5.12,5.12)" d="M44,20c0,6.11111 -1,8.22222 -1,11c0,3.66667 1.92773,8.62891 1.92773,8.62891c0.13473,0.33689 0.07643,0.72033 -0.15234,1.00195c0,0 -0.19429,0.22645 -0.49023,0.45898c-0.29595,0.23253 -0.74105,0.53109 -1.38672,0.85938c-1.23009,0.62542 -3.22299,1.35346 -6.28906,1.94336c-0.85464,3.35089 -3.01953,4.93555 -3.01953,4.93555c-0.22198,0.15029 -0.495,0.20518 -0.75781,0.15234c0,0 -1.34384,-0.26797 -2.83398,-0.94531c-1.3091,-0.59504 -2.83105,-1.51271 -3.64453,-3.03516h-2.87695c-2.50522,3.02473 -6.25195,3.9668 -6.25195,3.9668c-0.27878,0.07331 -0.57564,0.02277 -0.81445,-0.13867c0,0 -2.16497,-1.58434 -3.01953,-4.93555c-3.06607,-0.5899 -5.05898,-1.31794 -6.28906,-1.94336c-0.64567,-0.32829 -1.09077,-0.62684 -1.38672,-0.85937c-0.29595,-0.23253 -0.49023,-0.45898 -0.49023,-0.45898c-0.22877,-0.28162 -0.28708,-0.66506 -0.15234,-1.00195c0,0 1.92773,-4.96224 1.92773,-8.62891c0,-2.77778 -1,-4.88889 -1,-11c0,-10.48058 8.51942,-19 19,-19c10.48058,0 19,8.51942 19,19z" id="strokeMainSVG" fill="#c0bbbb" stroke="#c0bbbb" stroke-width="3" stroke-linejoin="round"></path><g transform="scale(5.12,5.12)" fill="#000000" stroke="none" stroke-width="1" stroke-linejoin="miter"><path d="M25,1c-10.48058,0 -19,8.51942 -19,19c0,6.11111 1,8.22222 1,11c0,3.66667 -1.92773,8.62891 -1.92773,8.62891c-0.13473,0.33689 -0.07643,0.72033 0.15234,1.00195c0,0 0.19429,0.22645 0.49023,0.45898c0.29595,0.23253 0.74105,0.53109 1.38672,0.85938c1.23008,0.62542 3.22299,1.35346 6.28906,1.94336c0.85456,3.3512 3.01953,4.93555 3.01953,4.93555c0.23881,0.16144 0.53567,0.21198 0.81445,0.13867c0,0 3.74673,-0.94207 6.25195,-3.9668h2.87695c0.81348,1.52244 2.33543,2.44011 3.64453,3.03516c1.49015,0.67734 2.83398,0.94531 2.83398,0.94531c0.26281,0.05283 0.53583,-0.00205 0.75781,-0.15234c0,0 2.16489,-1.58466 3.01953,-4.93555c3.06607,-0.5899 5.05898,-1.31794 6.28906,-1.94336c0.64567,-0.32829 1.09077,-0.62684 1.38672,-0.85937c0.29595,-0.23253 0.49023,-0.45898 0.49023,-0.45898c0.22877,-0.28162 0.28708,-0.66506 0.15234,-1.00195c0,0 -1.92773,-4.96224 -1.92773,-8.62891c0,-2.77778 1,-4.88889 1,-11c0,-10.48058 -8.51942,-19 -19,-19zM25,3c9.39942,0 17,7.60058 17,17c0,5.88889 -1,7.77778 -1,11c0,0.80629 0.07445,1.60909 0.17969,2.39063c-0.10472,0.09808 -0.38467,0.34036 -1.19922,0.78711c-0.83628,0.45867 -2.15288,1.02545 -4.00586,1.53516c-0.02477,-0.05539 -0.07031,-0.16016 -0.07031,-0.16016c-0.16944,-0.33878 -0.51574,-0.55276 -0.89453,-0.55273c0,0 -1.80443,-0.004 -3.78516,0.39453c-0.99036,0.19927 -2.03723,0.49589 -2.9707,0.98633c-0.34661,0.18211 -0.67359,0.40772 -0.98047,0.6582c-0.0889,-0.02561 -0.18092,-0.03875 -0.27344,-0.03906h-4c-0.08841,0.0001 -0.17642,0.01192 -0.26172,0.03516c-0.3039,-0.24907 -0.62744,-0.47342 -0.9707,-0.6543c-0.9326,-0.49141 -1.97911,-0.78709 -2.97266,-0.98633c-1.98708,-0.39848 -3.80469,-0.39453 -3.80469,-0.39453c-0.37879,-0.00003 -0.72509,0.21395 -0.89453,0.55273c0,0 -0.0456,0.10509 -0.07031,0.16016c-1.85298,-0.50971 -3.16958,-1.07649 -4.00586,-1.53516c-0.81455,-0.44675 -1.09449,-0.68903 -1.19922,-0.78711c0.10524,-0.78153 0.17969,-1.58433 0.17969,-2.39062c0,-3.22222 -1,-5.11111 -1,-11c0,-9.39942 7.60058,-17 17,-17zM33,10c-2.74958,0 -5,2.25042 -5,5c0,2.74958 2.25042,5 5,5c2.74958,0 5,-2.25042 5,-5c0,-2.74958 -2.25042,-5 -5,-5zM16,11c-2.74958,0 -5,2.25042 -5,5c0,2.74958 2.25042,5 5,5c2.74958,0 5,-2.25042 5,-5c0,-2.74958 -2.25042,-5 -5,-5zM33,12c1.6687,0 3,1.3313 3,3c0,1.6687 -1.3313,3 -3,3c-1.6687,0 -3,-1.3313 -3,-3c0,-1.6687 1.3313,-3 3,-3zM16,13c1.6687,0 3,1.3313 3,3c0,1.6687 -1.3313,3 -3,3c-1.6687,0 -3,-1.3313 -3,-3c0,-1.6687 1.3313,-3 3,-3zM34,14c-0.55228,0 -1,0.44772 -1,1c0,0.55228 0.44772,1 1,1c0.55228,0 1,-0.44772 1,-1c0,-0.55228 -0.44772,-1 -1,-1zM15,15c-0.55228,0 -1,0.44772 -1,1c0,0.55228 0.44772,1 1,1c0.55228,0 1,-0.44772 1,-1c0,-0.55228 -0.44772,-1 -1,-1zM25,18c-2.19729,0 -4,1.80271 -4,4c0,2.19729 1.80271,4 4,4c2.19729,0 4,-1.80271 4,-4c0,-2.19729 -1.80271,-4 -4,-4zM25,20c0.762,0 1.40795,0.41686 1.74609,1.0332c-0.43895,0.11486 -0.74536,0.51112 -0.74609,0.96484c-0.00015,0.45445 0.30644,0.85175 0.74609,0.9668c-0.3379,0.61718 -0.98347,1.03516 -1.74609,1.03516c-0.762,0 -1.40795,-0.41686 -1.74609,-1.0332c0.43945,-0.11536 0.7459,-0.51246 0.74609,-0.9668c-0.0002,-0.45434 -0.30665,-0.85144 -0.74609,-0.9668c0.33814,-0.61634 0.98409,-1.0332 1.74609,-1.0332zM16.02148,23c-0.26991,-0.00736 -0.53133,0.09474 -0.72482,0.28308c-0.19349,0.18834 -0.3026,0.44691 -0.30252,0.71692c0,0 -0.01227,2.45872 1.23242,4.94727c1.24469,2.48855 3.93676,5.05273 8.77148,5.05273c4.31936,0 6.95164,-2.56664 8.32617,-5.00977c1.37453,-2.44313 1.66797,-4.86523 1.66797,-4.86523c0.0575,-0.46203 -0.21144,-0.90261 -0.64866,-1.06266c-0.43722,-0.16005 -0.92704,0.00278 -1.18142,0.39274c0,0 -2.90379,4.54492 -9.16211,4.54492c-5.03462,0 -7.10156,-4.42969 -7.10156,-4.42969c-0.16167,-0.34002 -0.50059,-0.56043 -0.87695,-0.57031zM31.80664,27.45508c-0.09673,0.1995 -0.11148,0.35361 -0.22461,0.55469c-1.15722,2.05687 -3.02634,3.99023 -6.58398,3.99023c-4.16828,0 -5.97636,-1.93581 -6.98242,-3.94727c-0.06576,-0.13148 -0.05963,-0.23212 -0.11719,-0.36328c1.44021,1.20156 3.37678,2.31055 6.10156,2.31055c3.44615,0 6.00663,-1.25071 7.80664,-2.54492zM8.42773,35.55273c0.19144,0.12196 0.3906,0.24518 0.63086,0.37695c0.96534,0.52945 2.39852,1.14401 4.34961,1.6875c-0.21908,0.89392 -0.4082,2.04064 -0.4082,3.38281c0,0.27074 0.02272,0.52169 0.04102,0.77539c-2.47909,-0.52945 -4.09672,-1.13323 -5.0332,-1.60937c-0.42692,-0.21706 -0.6386,-0.37396 -0.83594,-0.51562c0.22218,-0.57138 0.80613,-2.13925 1.25586,-4.09766zM41.57227,35.55273c0.44973,1.9584 1.03368,3.52628 1.25586,4.09766c-0.19734,0.14167 -0.40902,0.29856 -0.83594,0.51563c-0.93649,0.47615 -2.55411,1.07992 -5.0332,1.60938c0.01838,-0.25386 0.04102,-0.50443 0.04102,-0.77539c0,-1.34217 -0.18912,-2.48889 -0.4082,-3.38281c1.95109,-0.54349 3.38427,-1.15805 4.34961,-1.6875c0.24026,-0.13177 0.43942,-0.25499 0.63086,-0.37695zM15.65625,37.06836c0.47311,0.01179 1.33352,0.0042 2.74414,0.28711c0.87646,0.17576 1.76689,0.44259 2.43555,0.79492c0.63769,0.33602 0.9981,0.72432 1.16406,1.12891v4.32227c-1.74971,2.17273 -4.15423,3.02877 -4.80664,3.23633c-0.43252,-0.34651 -1.50492,-1.32316 -2.00195,-3.84961v-0.00195c0,-0.00065 0,-0.0013 0,-0.00195c-0.11724,-0.58608 -0.19141,-1.25104 -0.19141,-1.98437c0,-1.59209 0.30747,-2.8814 0.5625,-3.67383c0.00134,-0.0052 0.00265,-0.01041 0.00391,-0.01562c0.05081,-0.16766 0.04809,-0.12534 0.08984,-0.24219zM34.3457,37.07031c0.04145,0.11619 0.03758,0.0742 0.08789,0.24023c0.00126,0.00522 0.00256,0.01043 0.00391,0.01563c0.25504,0.79243 0.5625,2.08174 0.5625,3.67383c0,0.73333 -0.07417,1.3982 -0.19141,1.98438c0,0.00065 0,0.0013 0,0.00195c0,0.00065 0,0.0013 0,0.00195c-0.50707,2.57748 -1.62669,3.56226 -2.0332,3.88086c-0.31888,-0.07408 -0.92603,-0.18921 -1.94922,-0.6543c-1.22781,-0.5581 -2.41525,-1.44008 -2.82617,-2.47461v-4.45312c0.17667,-0.40951 0.54692,-0.80119 1.18555,-1.13672c0.67246,-0.35331 1.56021,-0.61919 2.43359,-0.79492c1.40463,-0.28262 2.25604,-0.27333 2.72656,-0.28516zM24,39h2v4h-2z"></path></g></g></g></svg>