<svg xmlns="http://www.w3.org/2000/svg" xmlns:xlink="http://www.w3.org/1999/xlink" viewBox="0,0,256,256" width="250px" height="250px"><g transform="translate(42.24,42.24) scale(0.67,0.67)"><g fill="#b700ff" fill-rule="nonzero" stroke="none" stroke-width="1" stroke-linecap="butt" stroke-linejoin="miter" stroke-miterlimit="10" stroke-dasharray="" stroke-dashoffset="0" font-family="none" font-weight="none" font-size="none" text-anchor="none" style="mix-blend-mode: normal"><path d="M128,319.04478c-105.51112,0 -191.04478,-85.53366 -191.04478,-191.04478v0c0,-105.51112 85.53366,-191.04478 191.04478,-191.04478v0c105.51112,0 191.04478,85.53366 191.04478,191.04478v0c0,105.51112 -85.53366,191.04478 -191.04478,191.04478z" id="shape"></path></g><g fill="none" fill-rule="nonzero" stroke="none" stroke-width="none" stroke-linecap="butt" stroke-linejoin="none" stroke-miterlimit="10" stroke-dasharray="" stroke-dashoffset="0" font-family="none" font-weight="none" font-size="none" text-anchor="none" style="mix-blend-mode: normal"><path transform="scale(5.12,5.12)" d="M17.34961,0.9707c0.55571,0.12009 1.10318,0.3603 1.64063,0.63672c1.07488,0.55283 2.15483,1.34383 3.14453,2.1543c1.5774,1.29172 2.38361,2.16916 2.86523,2.66797c0.48163,-0.49881 1.28783,-1.37625 2.86523,-2.66797c0.98971,-0.81046 2.06965,-1.60147 3.14453,-2.1543c1.07488,-0.55283 2.19067,-0.95945 3.32813,-0.55078c0.39657,0.1424 0.66135,0.51809 0.66211,0.93945c0,3.73116 0.52568,6.85154 0.7793,8.24219c1.48161,-0.75273 4.99101,-2.34987 9.41016,-1.49609c0.34136,0.06604 0.62392,0.30464 0.74622,0.63011c0.1223,0.32547 0.06679,0.6911 -0.14661,0.9656c-2.40073,3.09293 -3.98553,7.81013 -4.45117,9.24609c1.2116,0.249 3.84231,0.73438 7.66211,0.73438c0.33399,0.00005 0.64591,0.16682 0.83144,0.44453c0.18553,0.27771 0.22019,0.62972 0.09238,0.93828c-1.76154,4.25411 -4.97936,5.98347 -6.40625,6.6582c0.69557,0.88238 1.97245,2.38815 4.02344,3.70898c0.34959,0.22474 0.52376,0.64228 0.4375,1.04883c-0.11699,0.54998 -0.43782,0.82989 -0.73633,1.06641c-0.29852,0.23652 -0.63308,0.4286 -1.00586,0.61328c-0.74557,0.36936 -1.64268,0.69949 -2.52539,0.99023c-1.35577,0.44656 -2.12857,0.6249 -2.66992,0.76172c0.02712,0.97637 0.13954,3.90874 0.9043,6.125c0.1054,0.30561 0.05658,0.64333 -0.13107,0.90657c-0.18765,0.26325 -0.49096,0.41955 -0.81424,0.4196c-2.42143,0 -4.27668,-0.62525 -5.05078,-0.93555c-2.29671,4.14786 -6.30929,6.93555 -10.94922,6.93555c-4.65072,0 -8.67084,-2.80097 -10.96484,-6.96484c-0.66335,0.20877 -3.23759,0.96484 -6.03516,0.96484c-0.34894,0.00002 -0.67267,-0.18183 -0.85419,-0.47985c-0.18152,-0.29801 -0.19459,-0.66909 -0.03448,-0.97914c1.54301,-2.98187 1.75118,-5.13952 1.80273,-5.99609l-6.17969,-1.70508c-0.37901,-0.10417 -0.66185,-0.42068 -0.72292,-0.80897c-0.06106,-0.38829 0.11098,-0.77634 0.43972,-0.99181c0,0 2.52175,-1.74438 4.99219,-3.98047c-0.40167,-0.37427 -0.74211,-0.7207 -1.7207,-1.15039c-1.35866,-0.59657 -3.21241,-1.36413 -5.30859,-2.88281c-0.23978,-0.17336 -0.39049,-0.44399 -0.4116,-0.73912c-0.02111,-0.29513 0.08955,-0.58446 0.30222,-0.79017c1.69967,-1.64188 4.06462,-2.6224 6.01367,-3.25c1.02092,-0.32874 1.20303,-0.32026 1.8457,-0.46094c-1.46215,-1.41899 -4.16406,-4.45353 -4.16406,-10.06055c-0.00012,-0.29849 0.13308,-0.58142 0.36322,-0.7715c0.23014,-0.19008 0.53315,-0.26743 0.82623,-0.21092l8.99219,1.73828c0.22451,-1.19807 0.81836,-4.56205 0.81836,-8.48438c0.00076,-0.42136 0.26554,-0.79705 0.66211,-0.93945c0.28436,-0.10217 0.56634,-0.15311 0.84766,-0.16406c0.28132,-0.01095 0.56199,0.01808 0.83984,0.07813z" id="strokeMainSVG" fill="#c0bbbb" stroke="#c0bbbb" stroke-width="3" stroke-linejoin="round"></path><g transform="scale(5.12,5.12)" fill="#282828" stroke="none" stroke-width="1" stroke-linejoin="miter"><path d="M16.50977,0.89258c-0.28132,0.01095 -0.56329,0.0619 -0.84766,0.16406c-0.39657,0.1424 -0.66135,0.51809 -0.66211,0.93945c0,3.92232 -0.59385,7.2863 -0.81836,8.48438l-8.99219,-1.73828c-0.29309,-0.05651 -0.5961,0.02084 -0.82623,0.21092c-0.23014,0.19008 -0.36334,0.47302 -0.36322,0.7715c0,5.60701 2.70191,8.64156 4.16406,10.06055c-0.64267,0.14067 -0.82478,0.1322 -1.8457,0.46094c-1.94906,0.6276 -4.31401,1.60812 -6.01367,3.25c-0.21267,0.20572 -0.32333,0.49504 -0.30222,0.79017c0.02111,0.29513 0.17182,0.56577 0.4116,0.73912c2.09619,1.51869 3.94994,2.28624 5.30859,2.88281c0.97859,0.42969 1.31904,0.77612 1.7207,1.15039c-2.47044,2.23609 -4.99219,3.98047 -4.99219,3.98047c-0.32874,0.21547 -0.50078,0.60352 -0.43972,0.99181c0.06106,0.38829 0.34391,0.7048 0.72292,0.80897l6.17969,1.70508c-0.05155,0.85657 -0.25972,3.01422 -1.80273,5.99609c-0.16011,0.31004 -0.14704,0.68112 0.03448,0.97914c0.18152,0.29801 0.50525,0.47987 0.85419,0.47985c2.79757,0 5.37181,-0.75607 6.03516,-0.96484c2.29401,4.16388 6.31412,6.96484 10.96484,6.96484c4.63993,0 8.65251,-2.78769 10.94922,-6.93555c0.7741,0.31029 2.62935,0.93555 5.05078,0.93555c0.32328,-0.00004 0.6266,-0.15635 0.81424,-0.4196c0.18765,-0.26325 0.23647,-0.60096 0.13107,-0.90657c-0.76476,-2.21626 -0.87717,-5.14863 -0.9043,-6.125c0.54135,-0.13682 1.31415,-0.31516 2.66992,-0.76172c0.88271,-0.29074 1.77982,-0.62087 2.52539,-0.99023c0.37278,-0.18468 0.70734,-0.37676 1.00586,-0.61328c0.29851,-0.23652 0.61934,-0.51642 0.73633,-1.06641c0.08626,-0.40655 -0.08791,-0.82408 -0.4375,-1.04883c-2.05098,-1.32083 -3.32787,-2.82661 -4.02344,-3.70898c1.42689,-0.67473 4.64471,-2.40409 6.40625,-6.6582c0.12781,-0.30857 0.09315,-0.66057 -0.09238,-0.93828c-0.18553,-0.27771 -0.49746,-0.44448 -0.83144,-0.44453c-3.81979,0 -6.4505,-0.48537 -7.66211,-0.73437c0.46564,-1.43596 2.05045,-6.15316 4.45117,-9.24609c0.21339,-0.2745 0.26891,-0.64013 0.14661,-0.9656c-0.1223,-0.32547 -0.40486,-0.56406 -0.74622,-0.63011c-4.41914,-0.85378 -7.92854,0.74336 -9.41016,1.49609c-0.25362,-1.39065 -0.7793,-4.51103 -0.7793,-8.24219c-0.00076,-0.42136 -0.26554,-0.79705 -0.66211,-0.93945c-1.13745,-0.40866 -2.25324,-0.00205 -3.32812,0.55078c-1.07488,0.55283 -2.15483,1.34383 -3.14453,2.1543c-1.5774,1.29172 -2.38361,2.16916 -2.86523,2.66797c-0.48163,-0.49881 -1.28783,-1.37625 -2.86523,-2.66797c-0.98971,-0.81046 -2.06965,-1.60147 -3.14453,-2.1543c-0.53744,-0.27642 -1.08492,-0.51663 -1.64062,-0.63672c-0.27785,-0.06005 -0.55852,-0.08908 -0.83984,-0.07812zM16.91797,3.08789c0.32317,0.03444 0.58317,0.00308 1.1582,0.29883c0.86312,0.44392 1.86667,1.16334 2.79297,1.92187c1.85259,1.51707 3.40039,3.16797 3.40039,3.16797c0.18911,0.20223 0.4536,0.31701 0.73047,0.31701c0.27687,0 0.54136,-0.11478 0.73047,-0.31701c0,0 1.5478,-1.6509 3.40039,-3.16797c0.92629,-0.75854 1.92985,-1.47796 2.79297,-1.92187c0.57503,-0.29575 0.83503,-0.26439 1.1582,-0.29883c0.13872,4.52944 0.93945,8.77148 0.93945,8.77148c0.0653,0.31451 0.27769,0.57851 0.57092,0.70965c0.29323,0.13114 0.6316,0.11345 0.90955,-0.04754c0,0 3.75377,-1.96233 7.73438,-1.85351c-2.59325,4.10268 -4.19531,9.40039 -4.19531,9.40039c-0.07773,0.26283 -0.04418,0.54604 0.09279,0.78344c0.13697,0.2374 0.36538,0.40818 0.63182,0.47242c0,0 3.34383,0.66685 7.52344,0.86328c-2.08403,3.39327 -5.65039,4.95898 -5.65039,4.95898c-0.28572,0.11068 -0.50494,0.34623 -0.59483,0.63916c-0.0899,0.29292 -0.04055,0.61089 0.13389,0.8628c0,0 1.7715,2.30125 4.31836,4.26758c-0.06041,0.03263 -0.08107,0.05451 -0.14844,0.08789c-0.59234,0.29345 -1.4283,0.60831 -2.26172,0.88281c-1.66683,0.54901 -3.32031,0.94922 -3.32031,0.94922c-0.4493,0.10836 -0.76582,0.51048 -0.76562,0.97266c0,0 0.10756,3.13163 0.77148,6.02539c-1.55488,-0.17629 -2.53901,-0.48061 -2.95312,-0.61719c0.75315,-1.90249 1.18164,-4.00545 1.18164,-6.2168v-9c0,-8.19527 -5.74245,-15 -13,-15c-7.25755,0 -13,6.80473 -13,15v9c0,2.19301 0.42072,4.2798 1.16211,6.16992c-0.59253,0.14596 -1.94597,0.46525 -3.70898,0.65234c1.28222,-3.26127 1.54688,-6.01367 1.54688,-6.01367c0.00031,-0.45026 -0.3003,-0.84521 -0.73437,-0.96484l-4.97461,-1.37305c1.2108,-0.89183 2.77705,-2.12144 4.40625,-3.70898c0.31572,-0.30703 0.39344,-0.78446 0.19141,-1.17578c-0.68765,-1.32854 -1.96999,-1.89689 -3.36133,-2.50781c-1.02079,-0.44822 -2.32905,-1.18913 -3.625,-1.96094c1.23489,-0.8268 2.67576,-1.53291 4.0293,-1.96875c1.80094,-0.57991 3.22656,-0.80859 3.22656,-0.80859c0.39397,-0.06299 0.71281,-0.35411 0.81127,-0.74074c0.09846,-0.38663 -0.04229,-0.7948 -0.35814,-1.03855c0,0 -3.80285,-3.16229 -4.39453,-8.58203l8.59375,1.66016c0.53688,0.10313 1.05708,-0.24396 1.16797,-0.7793c0,0 0.80073,-4.24204 0.93945,-8.77148zM25,13c5.99645,0 11,5.73127 11,13v9c0,7.26873 -5.00355,13 -11,13c-5.99645,0 -11,-5.73127 -11,-13v-9c0,-7.26873 5.00355,-13 11,-13zM16.96094,20.98633c-0.49019,0.00134 -0.90717,0.35777 -0.98477,0.84178c-0.0776,0.48402 0.20706,0.95293 0.67227,1.10744c0,0 0.69872,0.24418 1.9668,0.49609c-1.53624,0.71843 -2.61523,2.26942 -2.61523,4.06836c0,2.47344 2.02656,4.5 4.5,4.5c2.47344,0 4.5,-2.02656 4.5,-4.5c0,-1.44069 -0.6988,-2.71571 -1.76172,-3.54102c0.55657,0.02465 1.13759,0.04102 1.76172,0.04102c0.62413,0 1.20515,-0.01636 1.76172,-0.04102c-1.06292,0.82531 -1.76172,2.10032 -1.76172,3.54102c0,2.47344 2.02656,4.5 4.5,4.5c2.47344,0 4.5,-2.02656 4.5,-4.5c0,-1.79894 -1.07899,-3.34993 -2.61523,-4.06836c1.26807,-0.25191 1.9668,-0.49609 1.9668,-0.49609c0.45832,-0.16449 0.73155,-0.63516 0.64712,-1.11472c-0.08443,-0.47956 -0.50198,-0.82862 -0.98892,-0.82669c-0.12376,0.00088 -0.24627,0.02472 -0.36133,0.07031c0,0 -2.44045,0.93555 -7.64844,0.93555c-5.20799,0 -7.64844,-0.93555 -7.64844,-0.93555c-0.12365,-0.05197 -0.25649,-0.07854 -0.39062,-0.07812zM20.5,25c1.39256,0 2.5,1.10744 2.5,2.5c0,1.39256 -1.10744,2.5 -2.5,2.5c-1.39256,0 -2.5,-1.10744 -2.5,-2.5c0,-1.39256 1.10744,-2.5 2.5,-2.5zM29.5,25c1.39256,0 2.5,1.10744 2.5,2.5c0,1.39256 -1.10744,2.5 -2.5,2.5c-1.39256,0 -2.5,-1.10744 -2.5,-2.5c0,-1.39256 1.10744,-2.5 2.5,-2.5zM30,26c-0.55228,0 -1,0.44772 -1,1c0,0.55228 0.44772,1 1,1c0.55228,0 1,-0.44772 1,-1c0,-0.55228 -0.44772,-1 -1,-1zM20,27c-0.55228,0 -1,0.44772 -1,1c0,0.55228 0.44772,1 1,1c0.55228,0 1,-0.44772 1,-1c0,-0.55228 -0.44772,-1 -1,-1zM25.98438,31.98633c-0.55152,0.00862 -0.99193,0.46214 -0.98437,1.01367v2.76953c0,0.1096 -0.0104,0.10583 -0.01953,0.16992c-0.04813,-0.0104 0.02141,-0.0032 -0.06055,-0.04102c-0.5197,-0.23984 -1.24219,-0.86523 -1.24219,-0.86523c-0.26192,-0.24708 -0.63643,-0.33429 -0.98056,-0.22834c-0.34413,0.10595 -0.60473,0.38871 -0.68232,0.74032c-0.07759,0.35161 0.03983,0.71778 0.30741,0.95872c0,0 0.77751,0.75853 1.75781,1.21094c0.49015,0.22621 1.12924,0.47322 1.87109,0.13086c0.37093,-0.17118 0.67849,-0.51694 0.83789,-0.88477c0.15941,-0.36782 0.21094,-0.755 0.21094,-1.19141v-2.76953c0.0037,-0.2703 -0.10218,-0.53059 -0.29351,-0.72155c-0.19133,-0.19097 -0.45182,-0.29634 -0.72212,-0.29212zM25,39c-4.16667,0 -7.31641,1.05078 -7.31641,1.05078c-0.3392,0.11298 -0.59234,0.39837 -0.66405,0.74862c-0.0717,0.35026 0.04893,0.71216 0.31645,0.94934c0.26752,0.23718 0.64126,0.31361 0.98041,0.20047c0,0 0.31907,-0.09228 0.77734,-0.21094c0.0449,0.20467 0.1053,0.42513 0.20898,0.66211c0.23186,0.52996 0.84161,1.02691 1.60156,1.31641c0.03703,0.25768 -0.0063,0.32997 0.14844,0.68359c0.31687,0.72428 1.19131,1.59961 2.44727,1.59961c1.25595,0 2.13039,-0.87533 2.44727,-1.59961c0.14319,-0.32728 0.09689,-0.38304 0.13672,-0.63281c0.22724,-0.05489 0.26815,0.0053 0.53711,-0.14844c0.65163,-0.37236 1.29965,-1.23745 1.36523,-2.42773c2.22833,0.27673 3.69727,0.75781 3.69727,0.75781c0.33915,0.11314 0.71289,0.03671 0.98041,-0.20047c0.26752,-0.23718 0.38815,-0.59909 0.31645,-0.94934c-0.0717,-0.35026 -0.32485,-0.63564 -0.66405,-0.74862c0,0 -3.14974,-1.05078 -7.31641,-1.05078zM25,41c0.34438,0 0.67089,0.01535 0.99805,0.0293c-0.00619,0.67431 -0.18425,0.74591 -0.36914,0.85156c-0.18816,0.10752 -0.37891,0.11914 -0.37891,0.11914c-0.55226,0.00006 -0.99994,0.44774 -1,1c0,0 -0.01414,0.32389 -0.13477,0.59961c-0.12063,0.27572 -0.12119,0.40039 -0.61523,0.40039c-0.49405,0 -0.49461,-0.12467 -0.61523,-0.40039c-0.12063,-0.27572 -0.13477,-0.59961 -0.13477,-0.59961c-0.00006,-0.55226 -0.44774,-0.99994 -1,-1c-0.49405,0 -0.49461,-0.12467 -0.61523,-0.40039c-0.04096,-0.09362 -0.05615,-0.18328 -0.07617,-0.27344c1.08975,-0.17809 2.43422,-0.32617 3.94141,-0.32617z"></path></g></g></g></svg>