<svg xmlns="http://www.w3.org/2000/svg" xmlns:xlink="http://www.w3.org/1999/xlink" viewBox="0,0,256,256" width="250px" height="250px"><g transform="translate(25.6,25.6) scale(0.8,0.8)"><g fill="#b700ff" fill-rule="nonzero" stroke="none" stroke-width="1" stroke-linecap="butt" stroke-linejoin="miter" stroke-miterlimit="10" stroke-dasharray="" stroke-dashoffset="0" font-family="none" font-weight="none" font-size="none" text-anchor="none" style="mix-blend-mode: normal"><path d="M128,288c-88.36556,0 -160,-71.63444 -160,-160v0c0,-88.36556 71.63444,-160 160,-160v0c88.36556,0 160,71.63444 160,160v0c0,88.36556 -71.63444,160 -160,160z" id="shape"></path></g><g fill="none" fill-rule="nonzero" stroke="none" stroke-width="none" stroke-linecap="butt" stroke-linejoin="none" stroke-miterlimit="10" stroke-dasharray="" stroke-dashoffset="0" font-family="none" font-weight="none" font-size="none" text-anchor="none" style="mix-blend-mode: normal"><path transform="scale(5.12,5.12)" d="M42.51953,13.57813c4.53061,2.84632 7.48047,6.88692 7.48047,11.42188c0,4.57972 -2.95034,8.62675 -7.48242,11.46094c-4.53209,2.83419 -10.69966,4.53906 -17.51758,4.53906c-6.81792,0 -12.98549,-1.70488 -17.51758,-4.53906c-4.53209,-2.83419 -7.48242,-6.88122 -7.48242,-11.46094c0,-4.57972 2.95034,-8.62675 7.48242,-11.46094c4.53209,-2.83418 10.69966,-4.53906 17.51758,-4.53906c6.82043,0 12.98892,1.7318 17.51953,4.57813z" id="strokeMainSVG" fill="#c0bbbb" stroke="#c0bbbb" stroke-width="3" stroke-linejoin="round"></path><g transform="scale(5.12,5.12)" fill="#282828" stroke="none" stroke-width="1" stroke-linejoin="miter"><path d="M25,9c-6.81792,0 -12.98549,1.70488 -17.51758,4.53906c-4.53209,2.83419 -7.48242,6.88122 -7.48242,11.46094c0,4.57972 2.95034,8.62675 7.48242,11.46094c4.53209,2.83419 10.69966,4.53906 17.51758,4.53906c6.81792,0 12.98549,-1.70488 17.51758,-4.53906c4.53209,-2.83419 7.48242,-6.88122 7.48242,-11.46094c0,-4.53496 -2.94986,-8.57555 -7.48047,-11.42187c-4.53061,-2.84632 -10.6991,-4.57812 -17.51953,-4.57812zM25,11c6.47957,0 12.31069,1.6678 16.45508,4.27148c4.14439,2.60368 6.54492,6.06348 6.54492,9.72852c0,3.72028 -2.40006,7.17286 -6.54297,9.76367c-4.14291,2.59081 -9.97495,4.23633 -16.45703,4.23633c-6.48208,0 -12.31412,-1.64552 -16.45703,-4.23633c-4.14291,-2.59081 -6.54297,-6.04339 -6.54297,-9.76367c0,-3.72028 2.40006,-7.17286 6.54297,-9.76367c4.14291,-2.59081 9.97495,-4.23633 16.45703,-4.23633zM22.09961,14.5l-0.59961,5.90039c-1.4,5.9 -9.5,1.19961 -4.5,-5.40039c-7.1,1.6 -11.9,5.60078 -12,9.80078c0.1,1.9 1.2,3.89961 3,5.59961c1.3,1.2 3,2.79961 5,3.59961c-3.3,-4.8 3.1,-7.2 6,-2c1.1,-4.2 4.9,-1.3 6,4c1.1,-5.3 4.9,-8.2 6,-4c2.9,-5.2 9.3,-2.8 6,2c2,-0.8 3.7,-2.4 5,-3.5c1.8,-1.7 2.9,-3.69961 3,-5.59961c-0.1,-4.2 -4.9,-8.20039 -12,-9.90039c5,6.6 -3.1,11.20039 -4.5,5.40039l-0.59961,-5.90039l-1.40039,1.5h-1.5h-1.5z"></path></g></g></g></svg>